G04 #@! TF.GenerationSoftware,KiCad,Pcbnew,5.1.5*
G04 #@! TF.CreationDate,2020-04-23T21:43:41+02:00*
G04 #@! TF.ProjectId,teensy-load,7465656e-7379-42d6-9c6f-61642e6b6963,rev?*
G04 #@! TF.SameCoordinates,Original*
G04 #@! TF.FileFunction,Legend,Bot*
G04 #@! TF.FilePolarity,Positive*
%FSLAX46Y46*%
G04 Gerber Fmt 4.6, Leading zero omitted, Abs format (unit mm)*
G04 Created by KiCad (PCBNEW 5.1.5) date 2020-04-23 21:43:41*
%MOMM*%
%LPD*%
G04 APERTURE LIST*
%ADD10C,0.120000*%
%ADD11C,0.150000*%
G04 APERTURE END LIST*
D10*
X142494000Y-72644000D02*
X143129000Y-72898000D01*
X142494000Y-72644000D02*
X143129000Y-72390000D01*
X145288000Y-72644000D02*
X142494000Y-72644000D01*
X142120252Y-76760000D02*
X141597748Y-76760000D01*
X142120252Y-78180000D02*
X141597748Y-78180000D01*
X124258000Y-91574252D02*
X124258000Y-91051748D01*
X125678000Y-91574252D02*
X125678000Y-91051748D01*
X135838000Y-91574252D02*
X135838000Y-91051748D01*
X134418000Y-91574252D02*
X134418000Y-91051748D01*
X110490000Y-101473000D02*
X146050000Y-101473000D01*
X146050000Y-83693000D02*
X110490000Y-83693000D01*
X110490000Y-83693000D02*
X110490000Y-101473000D01*
X146050000Y-86233000D02*
X113030000Y-86233000D01*
X113030000Y-86233000D02*
X113030000Y-98933000D01*
X113030000Y-98933000D02*
X146050000Y-98933000D01*
X146050000Y-83693000D02*
X146050000Y-86233000D01*
X146050000Y-98933000D02*
X146050000Y-101473000D01*
X139394000Y-69969748D02*
X139394000Y-70492252D01*
X137974000Y-69969748D02*
X137974000Y-70492252D01*
X140514000Y-69969748D02*
X140514000Y-70492252D01*
X141934000Y-69969748D02*
X141934000Y-70492252D01*
X131818748Y-76760000D02*
X132341252Y-76760000D01*
X131818748Y-78180000D02*
X132341252Y-78180000D01*
D11*
X143105047Y-76049142D02*
X143152666Y-76096761D01*
X143295523Y-76144380D01*
X143390761Y-76144380D01*
X143533619Y-76096761D01*
X143628857Y-76001523D01*
X143676476Y-75906285D01*
X143724095Y-75715809D01*
X143724095Y-75572952D01*
X143676476Y-75382476D01*
X143628857Y-75287238D01*
X143533619Y-75192000D01*
X143390761Y-75144380D01*
X143295523Y-75144380D01*
X143152666Y-75192000D01*
X143105047Y-75239619D01*
X142152666Y-76144380D02*
X142724095Y-76144380D01*
X142438380Y-76144380D02*
X142438380Y-75144380D01*
X142533619Y-75287238D01*
X142628857Y-75382476D01*
X142724095Y-75430095D01*
X141533619Y-75144380D02*
X141438380Y-75144380D01*
X141343142Y-75192000D01*
X141295523Y-75239619D01*
X141247904Y-75334857D01*
X141200285Y-75525333D01*
X141200285Y-75763428D01*
X141247904Y-75953904D01*
X141295523Y-76049142D01*
X141343142Y-76096761D01*
X141438380Y-76144380D01*
X141533619Y-76144380D01*
X141628857Y-76096761D01*
X141676476Y-76049142D01*
X141724095Y-75953904D01*
X141771714Y-75763428D01*
X141771714Y-75525333D01*
X141724095Y-75334857D01*
X141676476Y-75239619D01*
X141628857Y-75192000D01*
X141533619Y-75144380D01*
X140247904Y-76144380D02*
X140819333Y-76144380D01*
X140533619Y-76144380D02*
X140533619Y-75144380D01*
X140628857Y-75287238D01*
X140724095Y-75382476D01*
X140819333Y-75430095D01*
X123547142Y-89685952D02*
X123594761Y-89638333D01*
X123642380Y-89495476D01*
X123642380Y-89400238D01*
X123594761Y-89257380D01*
X123499523Y-89162142D01*
X123404285Y-89114523D01*
X123213809Y-89066904D01*
X123070952Y-89066904D01*
X122880476Y-89114523D01*
X122785238Y-89162142D01*
X122690000Y-89257380D01*
X122642380Y-89400238D01*
X122642380Y-89495476D01*
X122690000Y-89638333D01*
X122737619Y-89685952D01*
X122737619Y-90066904D02*
X122690000Y-90114523D01*
X122642380Y-90209761D01*
X122642380Y-90447857D01*
X122690000Y-90543095D01*
X122737619Y-90590714D01*
X122832857Y-90638333D01*
X122928095Y-90638333D01*
X123070952Y-90590714D01*
X123642380Y-90019285D01*
X123642380Y-90638333D01*
X122642380Y-91257380D02*
X122642380Y-91352619D01*
X122690000Y-91447857D01*
X122737619Y-91495476D01*
X122832857Y-91543095D01*
X123023333Y-91590714D01*
X123261428Y-91590714D01*
X123451904Y-91543095D01*
X123547142Y-91495476D01*
X123594761Y-91447857D01*
X123642380Y-91352619D01*
X123642380Y-91257380D01*
X123594761Y-91162142D01*
X123547142Y-91114523D01*
X123451904Y-91066904D01*
X123261428Y-91019285D01*
X123023333Y-91019285D01*
X122832857Y-91066904D01*
X122737619Y-91114523D01*
X122690000Y-91162142D01*
X122642380Y-91257380D01*
X123642380Y-92543095D02*
X123642380Y-91971666D01*
X123642380Y-92257380D02*
X122642380Y-92257380D01*
X122785238Y-92162142D01*
X122880476Y-92066904D01*
X122928095Y-91971666D01*
X133707142Y-89812952D02*
X133754761Y-89765333D01*
X133802380Y-89622476D01*
X133802380Y-89527238D01*
X133754761Y-89384380D01*
X133659523Y-89289142D01*
X133564285Y-89241523D01*
X133373809Y-89193904D01*
X133230952Y-89193904D01*
X133040476Y-89241523D01*
X132945238Y-89289142D01*
X132850000Y-89384380D01*
X132802380Y-89527238D01*
X132802380Y-89622476D01*
X132850000Y-89765333D01*
X132897619Y-89812952D01*
X132802380Y-90146285D02*
X132802380Y-90765333D01*
X133183333Y-90432000D01*
X133183333Y-90574857D01*
X133230952Y-90670095D01*
X133278571Y-90717714D01*
X133373809Y-90765333D01*
X133611904Y-90765333D01*
X133707142Y-90717714D01*
X133754761Y-90670095D01*
X133802380Y-90574857D01*
X133802380Y-90289142D01*
X133754761Y-90193904D01*
X133707142Y-90146285D01*
X132802380Y-91384380D02*
X132802380Y-91479619D01*
X132850000Y-91574857D01*
X132897619Y-91622476D01*
X132992857Y-91670095D01*
X133183333Y-91717714D01*
X133421428Y-91717714D01*
X133611904Y-91670095D01*
X133707142Y-91622476D01*
X133754761Y-91574857D01*
X133802380Y-91479619D01*
X133802380Y-91384380D01*
X133754761Y-91289142D01*
X133707142Y-91241523D01*
X133611904Y-91193904D01*
X133421428Y-91146285D01*
X133183333Y-91146285D01*
X132992857Y-91193904D01*
X132897619Y-91241523D01*
X132850000Y-91289142D01*
X132802380Y-91384380D01*
X133802380Y-92670095D02*
X133802380Y-92098666D01*
X133802380Y-92384380D02*
X132802380Y-92384380D01*
X132945238Y-92289142D01*
X133040476Y-92193904D01*
X133088095Y-92098666D01*
X145732285Y-82129380D02*
X145732285Y-82938904D01*
X145684666Y-83034142D01*
X145637047Y-83081761D01*
X145541809Y-83129380D01*
X145351333Y-83129380D01*
X145256095Y-83081761D01*
X145208476Y-83034142D01*
X145160857Y-82938904D01*
X145160857Y-82129380D01*
X144160857Y-83129380D02*
X144732285Y-83129380D01*
X144446571Y-83129380D02*
X144446571Y-82129380D01*
X144541809Y-82272238D01*
X144637047Y-82367476D01*
X144732285Y-82415095D01*
X143541809Y-82129380D02*
X143446571Y-82129380D01*
X143351333Y-82177000D01*
X143303714Y-82224619D01*
X143256095Y-82319857D01*
X143208476Y-82510333D01*
X143208476Y-82748428D01*
X143256095Y-82938904D01*
X143303714Y-83034142D01*
X143351333Y-83081761D01*
X143446571Y-83129380D01*
X143541809Y-83129380D01*
X143637047Y-83081761D01*
X143684666Y-83034142D01*
X143732285Y-82938904D01*
X143779904Y-82748428D01*
X143779904Y-82510333D01*
X143732285Y-82319857D01*
X143684666Y-82224619D01*
X143637047Y-82177000D01*
X143541809Y-82129380D01*
X142256095Y-83129380D02*
X142827523Y-83129380D01*
X142541809Y-83129380D02*
X142541809Y-82129380D01*
X142637047Y-82272238D01*
X142732285Y-82367476D01*
X142827523Y-82415095D01*
X116345642Y-94575380D02*
X115726595Y-94575380D01*
X116059928Y-94956333D01*
X115917071Y-94956333D01*
X115821833Y-95003952D01*
X115774214Y-95051571D01*
X115726595Y-95146809D01*
X115726595Y-95384904D01*
X115774214Y-95480142D01*
X115821833Y-95527761D01*
X115917071Y-95575380D01*
X116202785Y-95575380D01*
X116298023Y-95527761D01*
X116345642Y-95480142D01*
X115298023Y-95480142D02*
X115250404Y-95527761D01*
X115298023Y-95575380D01*
X115345642Y-95527761D01*
X115298023Y-95480142D01*
X115298023Y-95575380D01*
X114917071Y-94575380D02*
X114298023Y-94575380D01*
X114631357Y-94956333D01*
X114488500Y-94956333D01*
X114393261Y-95003952D01*
X114345642Y-95051571D01*
X114298023Y-95146809D01*
X114298023Y-95384904D01*
X114345642Y-95480142D01*
X114393261Y-95527761D01*
X114488500Y-95575380D01*
X114774214Y-95575380D01*
X114869452Y-95527761D01*
X114917071Y-95480142D01*
X114012309Y-94575380D02*
X113678976Y-95575380D01*
X113345642Y-94575380D01*
X141368738Y-86574380D02*
X140749690Y-86574380D01*
X141083023Y-86955333D01*
X140940166Y-86955333D01*
X140844928Y-87002952D01*
X140797309Y-87050571D01*
X140749690Y-87145809D01*
X140749690Y-87383904D01*
X140797309Y-87479142D01*
X140844928Y-87526761D01*
X140940166Y-87574380D01*
X141225880Y-87574380D01*
X141321119Y-87526761D01*
X141368738Y-87479142D01*
X140321119Y-87479142D02*
X140273500Y-87526761D01*
X140321119Y-87574380D01*
X140368738Y-87526761D01*
X140321119Y-87479142D01*
X140321119Y-87574380D01*
X139940166Y-86574380D02*
X139321119Y-86574380D01*
X139654452Y-86955333D01*
X139511595Y-86955333D01*
X139416357Y-87002952D01*
X139368738Y-87050571D01*
X139321119Y-87145809D01*
X139321119Y-87383904D01*
X139368738Y-87479142D01*
X139416357Y-87526761D01*
X139511595Y-87574380D01*
X139797309Y-87574380D01*
X139892547Y-87526761D01*
X139940166Y-87479142D01*
X139035404Y-86574380D02*
X138702071Y-87574380D01*
X138368738Y-86574380D01*
X145750357Y-86574380D02*
X145417023Y-87574380D01*
X145083690Y-86574380D01*
X144750357Y-87574380D02*
X144750357Y-86907714D01*
X144750357Y-86574380D02*
X144797976Y-86622000D01*
X144750357Y-86669619D01*
X144702738Y-86622000D01*
X144750357Y-86574380D01*
X144750357Y-86669619D01*
X144274166Y-86907714D02*
X144274166Y-87574380D01*
X144274166Y-87002952D02*
X144226547Y-86955333D01*
X144131309Y-86907714D01*
X143988452Y-86907714D01*
X143893214Y-86955333D01*
X143845595Y-87050571D01*
X143845595Y-87574380D01*
X145444595Y-97671000D02*
X145539833Y-97623380D01*
X145682690Y-97623380D01*
X145825547Y-97671000D01*
X145920785Y-97766238D01*
X145968404Y-97861476D01*
X146016023Y-98051952D01*
X146016023Y-98194809D01*
X145968404Y-98385285D01*
X145920785Y-98480523D01*
X145825547Y-98575761D01*
X145682690Y-98623380D01*
X145587452Y-98623380D01*
X145444595Y-98575761D01*
X145396976Y-98528142D01*
X145396976Y-98194809D01*
X145587452Y-98194809D01*
X144968404Y-98623380D02*
X144968404Y-97623380D01*
X144396976Y-98623380D01*
X144396976Y-97623380D01*
X143920785Y-98623380D02*
X143920785Y-97623380D01*
X143682690Y-97623380D01*
X143539833Y-97671000D01*
X143444595Y-97766238D01*
X143396976Y-97861476D01*
X143349357Y-98051952D01*
X143349357Y-98194809D01*
X143396976Y-98385285D01*
X143444595Y-98480523D01*
X143539833Y-98575761D01*
X143682690Y-98623380D01*
X143920785Y-98623380D01*
X143581380Y-69111952D02*
X143105190Y-68778619D01*
X143581380Y-68540523D02*
X142581380Y-68540523D01*
X142581380Y-68921476D01*
X142629000Y-69016714D01*
X142676619Y-69064333D01*
X142771857Y-69111952D01*
X142914714Y-69111952D01*
X143009952Y-69064333D01*
X143057571Y-69016714D01*
X143105190Y-68921476D01*
X143105190Y-68540523D01*
X142676619Y-69492904D02*
X142629000Y-69540523D01*
X142581380Y-69635761D01*
X142581380Y-69873857D01*
X142629000Y-69969095D01*
X142676619Y-70016714D01*
X142771857Y-70064333D01*
X142867095Y-70064333D01*
X143009952Y-70016714D01*
X143581380Y-69445285D01*
X143581380Y-70064333D01*
X142581380Y-70683380D02*
X142581380Y-70778619D01*
X142629000Y-70873857D01*
X142676619Y-70921476D01*
X142771857Y-70969095D01*
X142962333Y-71016714D01*
X143200428Y-71016714D01*
X143390904Y-70969095D01*
X143486142Y-70921476D01*
X143533761Y-70873857D01*
X143581380Y-70778619D01*
X143581380Y-70683380D01*
X143533761Y-70588142D01*
X143486142Y-70540523D01*
X143390904Y-70492904D01*
X143200428Y-70445285D01*
X142962333Y-70445285D01*
X142771857Y-70492904D01*
X142676619Y-70540523D01*
X142629000Y-70588142D01*
X142581380Y-70683380D01*
X142581380Y-71873857D02*
X142581380Y-71683380D01*
X142629000Y-71588142D01*
X142676619Y-71540523D01*
X142819476Y-71445285D01*
X143009952Y-71397666D01*
X143390904Y-71397666D01*
X143486142Y-71445285D01*
X143533761Y-71492904D01*
X143581380Y-71588142D01*
X143581380Y-71778619D01*
X143533761Y-71873857D01*
X143486142Y-71921476D01*
X143390904Y-71969095D01*
X143152809Y-71969095D01*
X143057571Y-71921476D01*
X143009952Y-71873857D01*
X142962333Y-71778619D01*
X142962333Y-71588142D01*
X143009952Y-71492904D01*
X143057571Y-71445285D01*
X143152809Y-71397666D01*
X145232380Y-69111952D02*
X144756190Y-68778619D01*
X145232380Y-68540523D02*
X144232380Y-68540523D01*
X144232380Y-68921476D01*
X144280000Y-69016714D01*
X144327619Y-69064333D01*
X144422857Y-69111952D01*
X144565714Y-69111952D01*
X144660952Y-69064333D01*
X144708571Y-69016714D01*
X144756190Y-68921476D01*
X144756190Y-68540523D01*
X144327619Y-69492904D02*
X144280000Y-69540523D01*
X144232380Y-69635761D01*
X144232380Y-69873857D01*
X144280000Y-69969095D01*
X144327619Y-70016714D01*
X144422857Y-70064333D01*
X144518095Y-70064333D01*
X144660952Y-70016714D01*
X145232380Y-69445285D01*
X145232380Y-70064333D01*
X144232380Y-70683380D02*
X144232380Y-70778619D01*
X144280000Y-70873857D01*
X144327619Y-70921476D01*
X144422857Y-70969095D01*
X144613333Y-71016714D01*
X144851428Y-71016714D01*
X145041904Y-70969095D01*
X145137142Y-70921476D01*
X145184761Y-70873857D01*
X145232380Y-70778619D01*
X145232380Y-70683380D01*
X145184761Y-70588142D01*
X145137142Y-70540523D01*
X145041904Y-70492904D01*
X144851428Y-70445285D01*
X144613333Y-70445285D01*
X144422857Y-70492904D01*
X144327619Y-70540523D01*
X144280000Y-70588142D01*
X144232380Y-70683380D01*
X144232380Y-71350047D02*
X144232380Y-72016714D01*
X145232380Y-71588142D01*
X133199047Y-76017380D02*
X133532380Y-75541190D01*
X133770476Y-76017380D02*
X133770476Y-75017380D01*
X133389523Y-75017380D01*
X133294285Y-75065000D01*
X133246666Y-75112619D01*
X133199047Y-75207857D01*
X133199047Y-75350714D01*
X133246666Y-75445952D01*
X133294285Y-75493571D01*
X133389523Y-75541190D01*
X133770476Y-75541190D01*
X132865714Y-75017380D02*
X132246666Y-75017380D01*
X132580000Y-75398333D01*
X132437142Y-75398333D01*
X132341904Y-75445952D01*
X132294285Y-75493571D01*
X132246666Y-75588809D01*
X132246666Y-75826904D01*
X132294285Y-75922142D01*
X132341904Y-75969761D01*
X132437142Y-76017380D01*
X132722857Y-76017380D01*
X132818095Y-75969761D01*
X132865714Y-75922142D01*
X131627619Y-75017380D02*
X131532380Y-75017380D01*
X131437142Y-75065000D01*
X131389523Y-75112619D01*
X131341904Y-75207857D01*
X131294285Y-75398333D01*
X131294285Y-75636428D01*
X131341904Y-75826904D01*
X131389523Y-75922142D01*
X131437142Y-75969761D01*
X131532380Y-76017380D01*
X131627619Y-76017380D01*
X131722857Y-75969761D01*
X131770476Y-75922142D01*
X131818095Y-75826904D01*
X131865714Y-75636428D01*
X131865714Y-75398333D01*
X131818095Y-75207857D01*
X131770476Y-75112619D01*
X131722857Y-75065000D01*
X131627619Y-75017380D01*
X130389523Y-75017380D02*
X130865714Y-75017380D01*
X130913333Y-75493571D01*
X130865714Y-75445952D01*
X130770476Y-75398333D01*
X130532380Y-75398333D01*
X130437142Y-75445952D01*
X130389523Y-75493571D01*
X130341904Y-75588809D01*
X130341904Y-75826904D01*
X130389523Y-75922142D01*
X130437142Y-75969761D01*
X130532380Y-76017380D01*
X130770476Y-76017380D01*
X130865714Y-75969761D01*
X130913333Y-75922142D01*
M02*
