G04 #@! TF.GenerationSoftware,KiCad,Pcbnew,5.1.5*
G04 #@! TF.CreationDate,2020-04-23T21:43:41+02:00*
G04 #@! TF.ProjectId,teensy-load,7465656e-7379-42d6-9c6f-61642e6b6963,rev?*
G04 #@! TF.SameCoordinates,Original*
G04 #@! TF.FileFunction,Copper,L1,Top*
G04 #@! TF.FilePolarity,Positive*
%FSLAX46Y46*%
G04 Gerber Fmt 4.6, Leading zero omitted, Abs format (unit mm)*
G04 Created by KiCad (PCBNEW 5.1.5) date 2020-04-23 21:43:41*
%MOMM*%
%LPD*%
G04 APERTURE LIST*
%ADD10C,3.000000*%
%ADD11C,3.000000*%
%ADD12C,0.100000*%
%ADD13C,4.000000*%
%ADD14R,1.100000X1.100000*%
%ADD15R,2.600000X2.600000*%
%ADD16C,2.600000*%
%ADD17R,1.905000X2.000000*%
%ADD18O,1.905000X2.000000*%
%ADD19R,0.650000X1.560000*%
%ADD20C,1.524000*%
%ADD21C,0.685800*%
%ADD22C,0.254000*%
G04 APERTURE END LIST*
D10*
X133350000Y-62865000D03*
D11*
X125700000Y-76115189D02*
X125700000Y-76115189D01*
G04 #@! TA.AperFunction,SMDPad,CuDef*
D12*
G36*
X122902505Y-93905204D02*
G01*
X122926773Y-93908804D01*
X122950572Y-93914765D01*
X122973671Y-93923030D01*
X122995850Y-93933520D01*
X123016893Y-93946132D01*
X123036599Y-93960747D01*
X123054777Y-93977223D01*
X123071253Y-93995401D01*
X123085868Y-94015107D01*
X123098480Y-94036150D01*
X123108970Y-94058329D01*
X123117235Y-94081428D01*
X123123196Y-94105227D01*
X123126796Y-94129495D01*
X123128000Y-94153999D01*
X123128000Y-94804001D01*
X123126796Y-94828505D01*
X123123196Y-94852773D01*
X123117235Y-94876572D01*
X123108970Y-94899671D01*
X123098480Y-94921850D01*
X123085868Y-94942893D01*
X123071253Y-94962599D01*
X123054777Y-94980777D01*
X123036599Y-94997253D01*
X123016893Y-95011868D01*
X122995850Y-95024480D01*
X122973671Y-95034970D01*
X122950572Y-95043235D01*
X122926773Y-95049196D01*
X122902505Y-95052796D01*
X122878001Y-95054000D01*
X121977999Y-95054000D01*
X121953495Y-95052796D01*
X121929227Y-95049196D01*
X121905428Y-95043235D01*
X121882329Y-95034970D01*
X121860150Y-95024480D01*
X121839107Y-95011868D01*
X121819401Y-94997253D01*
X121801223Y-94980777D01*
X121784747Y-94962599D01*
X121770132Y-94942893D01*
X121757520Y-94921850D01*
X121747030Y-94899671D01*
X121738765Y-94876572D01*
X121732804Y-94852773D01*
X121729204Y-94828505D01*
X121728000Y-94804001D01*
X121728000Y-94153999D01*
X121729204Y-94129495D01*
X121732804Y-94105227D01*
X121738765Y-94081428D01*
X121747030Y-94058329D01*
X121757520Y-94036150D01*
X121770132Y-94015107D01*
X121784747Y-93995401D01*
X121801223Y-93977223D01*
X121819401Y-93960747D01*
X121839107Y-93946132D01*
X121860150Y-93933520D01*
X121882329Y-93923030D01*
X121905428Y-93914765D01*
X121929227Y-93908804D01*
X121953495Y-93905204D01*
X121977999Y-93904000D01*
X122878001Y-93904000D01*
X122902505Y-93905204D01*
G37*
G04 #@! TD.AperFunction*
G04 #@! TA.AperFunction,SMDPad,CuDef*
G36*
X122902505Y-95955204D02*
G01*
X122926773Y-95958804D01*
X122950572Y-95964765D01*
X122973671Y-95973030D01*
X122995850Y-95983520D01*
X123016893Y-95996132D01*
X123036599Y-96010747D01*
X123054777Y-96027223D01*
X123071253Y-96045401D01*
X123085868Y-96065107D01*
X123098480Y-96086150D01*
X123108970Y-96108329D01*
X123117235Y-96131428D01*
X123123196Y-96155227D01*
X123126796Y-96179495D01*
X123128000Y-96203999D01*
X123128000Y-96854001D01*
X123126796Y-96878505D01*
X123123196Y-96902773D01*
X123117235Y-96926572D01*
X123108970Y-96949671D01*
X123098480Y-96971850D01*
X123085868Y-96992893D01*
X123071253Y-97012599D01*
X123054777Y-97030777D01*
X123036599Y-97047253D01*
X123016893Y-97061868D01*
X122995850Y-97074480D01*
X122973671Y-97084970D01*
X122950572Y-97093235D01*
X122926773Y-97099196D01*
X122902505Y-97102796D01*
X122878001Y-97104000D01*
X121977999Y-97104000D01*
X121953495Y-97102796D01*
X121929227Y-97099196D01*
X121905428Y-97093235D01*
X121882329Y-97084970D01*
X121860150Y-97074480D01*
X121839107Y-97061868D01*
X121819401Y-97047253D01*
X121801223Y-97030777D01*
X121784747Y-97012599D01*
X121770132Y-96992893D01*
X121757520Y-96971850D01*
X121747030Y-96949671D01*
X121738765Y-96926572D01*
X121732804Y-96902773D01*
X121729204Y-96878505D01*
X121728000Y-96854001D01*
X121728000Y-96203999D01*
X121729204Y-96179495D01*
X121732804Y-96155227D01*
X121738765Y-96131428D01*
X121747030Y-96108329D01*
X121757520Y-96086150D01*
X121770132Y-96065107D01*
X121784747Y-96045401D01*
X121801223Y-96027223D01*
X121819401Y-96010747D01*
X121839107Y-95996132D01*
X121860150Y-95983520D01*
X121882329Y-95973030D01*
X121905428Y-95964765D01*
X121929227Y-95958804D01*
X121953495Y-95955204D01*
X121977999Y-95954000D01*
X122878001Y-95954000D01*
X122902505Y-95955204D01*
G37*
G04 #@! TD.AperFunction*
G04 #@! TA.AperFunction,SMDPad,CuDef*
G36*
X143776703Y-81234722D02*
G01*
X143791264Y-81236882D01*
X143805543Y-81240459D01*
X143819403Y-81245418D01*
X143832710Y-81251712D01*
X143845336Y-81259280D01*
X143857159Y-81268048D01*
X143868066Y-81277934D01*
X143877952Y-81288841D01*
X143886720Y-81300664D01*
X143894288Y-81313290D01*
X143900582Y-81326597D01*
X143905541Y-81340457D01*
X143909118Y-81354736D01*
X143911278Y-81369297D01*
X143912000Y-81384000D01*
X143912000Y-81684000D01*
X143911278Y-81698703D01*
X143909118Y-81713264D01*
X143905541Y-81727543D01*
X143900582Y-81741403D01*
X143894288Y-81754710D01*
X143886720Y-81767336D01*
X143877952Y-81779159D01*
X143868066Y-81790066D01*
X143857159Y-81799952D01*
X143845336Y-81808720D01*
X143832710Y-81816288D01*
X143819403Y-81822582D01*
X143805543Y-81827541D01*
X143791264Y-81831118D01*
X143776703Y-81833278D01*
X143762000Y-81834000D01*
X142112000Y-81834000D01*
X142097297Y-81833278D01*
X142082736Y-81831118D01*
X142068457Y-81827541D01*
X142054597Y-81822582D01*
X142041290Y-81816288D01*
X142028664Y-81808720D01*
X142016841Y-81799952D01*
X142005934Y-81790066D01*
X141996048Y-81779159D01*
X141987280Y-81767336D01*
X141979712Y-81754710D01*
X141973418Y-81741403D01*
X141968459Y-81727543D01*
X141964882Y-81713264D01*
X141962722Y-81698703D01*
X141962000Y-81684000D01*
X141962000Y-81384000D01*
X141962722Y-81369297D01*
X141964882Y-81354736D01*
X141968459Y-81340457D01*
X141973418Y-81326597D01*
X141979712Y-81313290D01*
X141987280Y-81300664D01*
X141996048Y-81288841D01*
X142005934Y-81277934D01*
X142016841Y-81268048D01*
X142028664Y-81259280D01*
X142041290Y-81251712D01*
X142054597Y-81245418D01*
X142068457Y-81240459D01*
X142082736Y-81236882D01*
X142097297Y-81234722D01*
X142112000Y-81234000D01*
X143762000Y-81234000D01*
X143776703Y-81234722D01*
G37*
G04 #@! TD.AperFunction*
G04 #@! TA.AperFunction,SMDPad,CuDef*
G36*
X143776703Y-79964722D02*
G01*
X143791264Y-79966882D01*
X143805543Y-79970459D01*
X143819403Y-79975418D01*
X143832710Y-79981712D01*
X143845336Y-79989280D01*
X143857159Y-79998048D01*
X143868066Y-80007934D01*
X143877952Y-80018841D01*
X143886720Y-80030664D01*
X143894288Y-80043290D01*
X143900582Y-80056597D01*
X143905541Y-80070457D01*
X143909118Y-80084736D01*
X143911278Y-80099297D01*
X143912000Y-80114000D01*
X143912000Y-80414000D01*
X143911278Y-80428703D01*
X143909118Y-80443264D01*
X143905541Y-80457543D01*
X143900582Y-80471403D01*
X143894288Y-80484710D01*
X143886720Y-80497336D01*
X143877952Y-80509159D01*
X143868066Y-80520066D01*
X143857159Y-80529952D01*
X143845336Y-80538720D01*
X143832710Y-80546288D01*
X143819403Y-80552582D01*
X143805543Y-80557541D01*
X143791264Y-80561118D01*
X143776703Y-80563278D01*
X143762000Y-80564000D01*
X142112000Y-80564000D01*
X142097297Y-80563278D01*
X142082736Y-80561118D01*
X142068457Y-80557541D01*
X142054597Y-80552582D01*
X142041290Y-80546288D01*
X142028664Y-80538720D01*
X142016841Y-80529952D01*
X142005934Y-80520066D01*
X141996048Y-80509159D01*
X141987280Y-80497336D01*
X141979712Y-80484710D01*
X141973418Y-80471403D01*
X141968459Y-80457543D01*
X141964882Y-80443264D01*
X141962722Y-80428703D01*
X141962000Y-80414000D01*
X141962000Y-80114000D01*
X141962722Y-80099297D01*
X141964882Y-80084736D01*
X141968459Y-80070457D01*
X141973418Y-80056597D01*
X141979712Y-80043290D01*
X141987280Y-80030664D01*
X141996048Y-80018841D01*
X142005934Y-80007934D01*
X142016841Y-79998048D01*
X142028664Y-79989280D01*
X142041290Y-79981712D01*
X142054597Y-79975418D01*
X142068457Y-79970459D01*
X142082736Y-79966882D01*
X142097297Y-79964722D01*
X142112000Y-79964000D01*
X143762000Y-79964000D01*
X143776703Y-79964722D01*
G37*
G04 #@! TD.AperFunction*
G04 #@! TA.AperFunction,SMDPad,CuDef*
G36*
X143776703Y-78694722D02*
G01*
X143791264Y-78696882D01*
X143805543Y-78700459D01*
X143819403Y-78705418D01*
X143832710Y-78711712D01*
X143845336Y-78719280D01*
X143857159Y-78728048D01*
X143868066Y-78737934D01*
X143877952Y-78748841D01*
X143886720Y-78760664D01*
X143894288Y-78773290D01*
X143900582Y-78786597D01*
X143905541Y-78800457D01*
X143909118Y-78814736D01*
X143911278Y-78829297D01*
X143912000Y-78844000D01*
X143912000Y-79144000D01*
X143911278Y-79158703D01*
X143909118Y-79173264D01*
X143905541Y-79187543D01*
X143900582Y-79201403D01*
X143894288Y-79214710D01*
X143886720Y-79227336D01*
X143877952Y-79239159D01*
X143868066Y-79250066D01*
X143857159Y-79259952D01*
X143845336Y-79268720D01*
X143832710Y-79276288D01*
X143819403Y-79282582D01*
X143805543Y-79287541D01*
X143791264Y-79291118D01*
X143776703Y-79293278D01*
X143762000Y-79294000D01*
X142112000Y-79294000D01*
X142097297Y-79293278D01*
X142082736Y-79291118D01*
X142068457Y-79287541D01*
X142054597Y-79282582D01*
X142041290Y-79276288D01*
X142028664Y-79268720D01*
X142016841Y-79259952D01*
X142005934Y-79250066D01*
X141996048Y-79239159D01*
X141987280Y-79227336D01*
X141979712Y-79214710D01*
X141973418Y-79201403D01*
X141968459Y-79187543D01*
X141964882Y-79173264D01*
X141962722Y-79158703D01*
X141962000Y-79144000D01*
X141962000Y-78844000D01*
X141962722Y-78829297D01*
X141964882Y-78814736D01*
X141968459Y-78800457D01*
X141973418Y-78786597D01*
X141979712Y-78773290D01*
X141987280Y-78760664D01*
X141996048Y-78748841D01*
X142005934Y-78737934D01*
X142016841Y-78728048D01*
X142028664Y-78719280D01*
X142041290Y-78711712D01*
X142054597Y-78705418D01*
X142068457Y-78700459D01*
X142082736Y-78696882D01*
X142097297Y-78694722D01*
X142112000Y-78694000D01*
X143762000Y-78694000D01*
X143776703Y-78694722D01*
G37*
G04 #@! TD.AperFunction*
G04 #@! TA.AperFunction,SMDPad,CuDef*
G36*
X143776703Y-77424722D02*
G01*
X143791264Y-77426882D01*
X143805543Y-77430459D01*
X143819403Y-77435418D01*
X143832710Y-77441712D01*
X143845336Y-77449280D01*
X143857159Y-77458048D01*
X143868066Y-77467934D01*
X143877952Y-77478841D01*
X143886720Y-77490664D01*
X143894288Y-77503290D01*
X143900582Y-77516597D01*
X143905541Y-77530457D01*
X143909118Y-77544736D01*
X143911278Y-77559297D01*
X143912000Y-77574000D01*
X143912000Y-77874000D01*
X143911278Y-77888703D01*
X143909118Y-77903264D01*
X143905541Y-77917543D01*
X143900582Y-77931403D01*
X143894288Y-77944710D01*
X143886720Y-77957336D01*
X143877952Y-77969159D01*
X143868066Y-77980066D01*
X143857159Y-77989952D01*
X143845336Y-77998720D01*
X143832710Y-78006288D01*
X143819403Y-78012582D01*
X143805543Y-78017541D01*
X143791264Y-78021118D01*
X143776703Y-78023278D01*
X143762000Y-78024000D01*
X142112000Y-78024000D01*
X142097297Y-78023278D01*
X142082736Y-78021118D01*
X142068457Y-78017541D01*
X142054597Y-78012582D01*
X142041290Y-78006288D01*
X142028664Y-77998720D01*
X142016841Y-77989952D01*
X142005934Y-77980066D01*
X141996048Y-77969159D01*
X141987280Y-77957336D01*
X141979712Y-77944710D01*
X141973418Y-77931403D01*
X141968459Y-77917543D01*
X141964882Y-77903264D01*
X141962722Y-77888703D01*
X141962000Y-77874000D01*
X141962000Y-77574000D01*
X141962722Y-77559297D01*
X141964882Y-77544736D01*
X141968459Y-77530457D01*
X141973418Y-77516597D01*
X141979712Y-77503290D01*
X141987280Y-77490664D01*
X141996048Y-77478841D01*
X142005934Y-77467934D01*
X142016841Y-77458048D01*
X142028664Y-77449280D01*
X142041290Y-77441712D01*
X142054597Y-77435418D01*
X142068457Y-77430459D01*
X142082736Y-77426882D01*
X142097297Y-77424722D01*
X142112000Y-77424000D01*
X143762000Y-77424000D01*
X143776703Y-77424722D01*
G37*
G04 #@! TD.AperFunction*
G04 #@! TA.AperFunction,SMDPad,CuDef*
G36*
X143776703Y-76154722D02*
G01*
X143791264Y-76156882D01*
X143805543Y-76160459D01*
X143819403Y-76165418D01*
X143832710Y-76171712D01*
X143845336Y-76179280D01*
X143857159Y-76188048D01*
X143868066Y-76197934D01*
X143877952Y-76208841D01*
X143886720Y-76220664D01*
X143894288Y-76233290D01*
X143900582Y-76246597D01*
X143905541Y-76260457D01*
X143909118Y-76274736D01*
X143911278Y-76289297D01*
X143912000Y-76304000D01*
X143912000Y-76604000D01*
X143911278Y-76618703D01*
X143909118Y-76633264D01*
X143905541Y-76647543D01*
X143900582Y-76661403D01*
X143894288Y-76674710D01*
X143886720Y-76687336D01*
X143877952Y-76699159D01*
X143868066Y-76710066D01*
X143857159Y-76719952D01*
X143845336Y-76728720D01*
X143832710Y-76736288D01*
X143819403Y-76742582D01*
X143805543Y-76747541D01*
X143791264Y-76751118D01*
X143776703Y-76753278D01*
X143762000Y-76754000D01*
X142112000Y-76754000D01*
X142097297Y-76753278D01*
X142082736Y-76751118D01*
X142068457Y-76747541D01*
X142054597Y-76742582D01*
X142041290Y-76736288D01*
X142028664Y-76728720D01*
X142016841Y-76719952D01*
X142005934Y-76710066D01*
X141996048Y-76699159D01*
X141987280Y-76687336D01*
X141979712Y-76674710D01*
X141973418Y-76661403D01*
X141968459Y-76647543D01*
X141964882Y-76633264D01*
X141962722Y-76618703D01*
X141962000Y-76604000D01*
X141962000Y-76304000D01*
X141962722Y-76289297D01*
X141964882Y-76274736D01*
X141968459Y-76260457D01*
X141973418Y-76246597D01*
X141979712Y-76233290D01*
X141987280Y-76220664D01*
X141996048Y-76208841D01*
X142005934Y-76197934D01*
X142016841Y-76188048D01*
X142028664Y-76179280D01*
X142041290Y-76171712D01*
X142054597Y-76165418D01*
X142068457Y-76160459D01*
X142082736Y-76156882D01*
X142097297Y-76154722D01*
X142112000Y-76154000D01*
X143762000Y-76154000D01*
X143776703Y-76154722D01*
G37*
G04 #@! TD.AperFunction*
G04 #@! TA.AperFunction,SMDPad,CuDef*
G36*
X143776703Y-74884722D02*
G01*
X143791264Y-74886882D01*
X143805543Y-74890459D01*
X143819403Y-74895418D01*
X143832710Y-74901712D01*
X143845336Y-74909280D01*
X143857159Y-74918048D01*
X143868066Y-74927934D01*
X143877952Y-74938841D01*
X143886720Y-74950664D01*
X143894288Y-74963290D01*
X143900582Y-74976597D01*
X143905541Y-74990457D01*
X143909118Y-75004736D01*
X143911278Y-75019297D01*
X143912000Y-75034000D01*
X143912000Y-75334000D01*
X143911278Y-75348703D01*
X143909118Y-75363264D01*
X143905541Y-75377543D01*
X143900582Y-75391403D01*
X143894288Y-75404710D01*
X143886720Y-75417336D01*
X143877952Y-75429159D01*
X143868066Y-75440066D01*
X143857159Y-75449952D01*
X143845336Y-75458720D01*
X143832710Y-75466288D01*
X143819403Y-75472582D01*
X143805543Y-75477541D01*
X143791264Y-75481118D01*
X143776703Y-75483278D01*
X143762000Y-75484000D01*
X142112000Y-75484000D01*
X142097297Y-75483278D01*
X142082736Y-75481118D01*
X142068457Y-75477541D01*
X142054597Y-75472582D01*
X142041290Y-75466288D01*
X142028664Y-75458720D01*
X142016841Y-75449952D01*
X142005934Y-75440066D01*
X141996048Y-75429159D01*
X141987280Y-75417336D01*
X141979712Y-75404710D01*
X141973418Y-75391403D01*
X141968459Y-75377543D01*
X141964882Y-75363264D01*
X141962722Y-75348703D01*
X141962000Y-75334000D01*
X141962000Y-75034000D01*
X141962722Y-75019297D01*
X141964882Y-75004736D01*
X141968459Y-74990457D01*
X141973418Y-74976597D01*
X141979712Y-74963290D01*
X141987280Y-74950664D01*
X141996048Y-74938841D01*
X142005934Y-74927934D01*
X142016841Y-74918048D01*
X142028664Y-74909280D01*
X142041290Y-74901712D01*
X142054597Y-74895418D01*
X142068457Y-74890459D01*
X142082736Y-74886882D01*
X142097297Y-74884722D01*
X142112000Y-74884000D01*
X143762000Y-74884000D01*
X143776703Y-74884722D01*
G37*
G04 #@! TD.AperFunction*
G04 #@! TA.AperFunction,SMDPad,CuDef*
G36*
X143776703Y-73614722D02*
G01*
X143791264Y-73616882D01*
X143805543Y-73620459D01*
X143819403Y-73625418D01*
X143832710Y-73631712D01*
X143845336Y-73639280D01*
X143857159Y-73648048D01*
X143868066Y-73657934D01*
X143877952Y-73668841D01*
X143886720Y-73680664D01*
X143894288Y-73693290D01*
X143900582Y-73706597D01*
X143905541Y-73720457D01*
X143909118Y-73734736D01*
X143911278Y-73749297D01*
X143912000Y-73764000D01*
X143912000Y-74064000D01*
X143911278Y-74078703D01*
X143909118Y-74093264D01*
X143905541Y-74107543D01*
X143900582Y-74121403D01*
X143894288Y-74134710D01*
X143886720Y-74147336D01*
X143877952Y-74159159D01*
X143868066Y-74170066D01*
X143857159Y-74179952D01*
X143845336Y-74188720D01*
X143832710Y-74196288D01*
X143819403Y-74202582D01*
X143805543Y-74207541D01*
X143791264Y-74211118D01*
X143776703Y-74213278D01*
X143762000Y-74214000D01*
X142112000Y-74214000D01*
X142097297Y-74213278D01*
X142082736Y-74211118D01*
X142068457Y-74207541D01*
X142054597Y-74202582D01*
X142041290Y-74196288D01*
X142028664Y-74188720D01*
X142016841Y-74179952D01*
X142005934Y-74170066D01*
X141996048Y-74159159D01*
X141987280Y-74147336D01*
X141979712Y-74134710D01*
X141973418Y-74121403D01*
X141968459Y-74107543D01*
X141964882Y-74093264D01*
X141962722Y-74078703D01*
X141962000Y-74064000D01*
X141962000Y-73764000D01*
X141962722Y-73749297D01*
X141964882Y-73734736D01*
X141968459Y-73720457D01*
X141973418Y-73706597D01*
X141979712Y-73693290D01*
X141987280Y-73680664D01*
X141996048Y-73668841D01*
X142005934Y-73657934D01*
X142016841Y-73648048D01*
X142028664Y-73639280D01*
X142041290Y-73631712D01*
X142054597Y-73625418D01*
X142068457Y-73620459D01*
X142082736Y-73616882D01*
X142097297Y-73614722D01*
X142112000Y-73614000D01*
X143762000Y-73614000D01*
X143776703Y-73614722D01*
G37*
G04 #@! TD.AperFunction*
G04 #@! TA.AperFunction,SMDPad,CuDef*
G36*
X138826703Y-73614722D02*
G01*
X138841264Y-73616882D01*
X138855543Y-73620459D01*
X138869403Y-73625418D01*
X138882710Y-73631712D01*
X138895336Y-73639280D01*
X138907159Y-73648048D01*
X138918066Y-73657934D01*
X138927952Y-73668841D01*
X138936720Y-73680664D01*
X138944288Y-73693290D01*
X138950582Y-73706597D01*
X138955541Y-73720457D01*
X138959118Y-73734736D01*
X138961278Y-73749297D01*
X138962000Y-73764000D01*
X138962000Y-74064000D01*
X138961278Y-74078703D01*
X138959118Y-74093264D01*
X138955541Y-74107543D01*
X138950582Y-74121403D01*
X138944288Y-74134710D01*
X138936720Y-74147336D01*
X138927952Y-74159159D01*
X138918066Y-74170066D01*
X138907159Y-74179952D01*
X138895336Y-74188720D01*
X138882710Y-74196288D01*
X138869403Y-74202582D01*
X138855543Y-74207541D01*
X138841264Y-74211118D01*
X138826703Y-74213278D01*
X138812000Y-74214000D01*
X137162000Y-74214000D01*
X137147297Y-74213278D01*
X137132736Y-74211118D01*
X137118457Y-74207541D01*
X137104597Y-74202582D01*
X137091290Y-74196288D01*
X137078664Y-74188720D01*
X137066841Y-74179952D01*
X137055934Y-74170066D01*
X137046048Y-74159159D01*
X137037280Y-74147336D01*
X137029712Y-74134710D01*
X137023418Y-74121403D01*
X137018459Y-74107543D01*
X137014882Y-74093264D01*
X137012722Y-74078703D01*
X137012000Y-74064000D01*
X137012000Y-73764000D01*
X137012722Y-73749297D01*
X137014882Y-73734736D01*
X137018459Y-73720457D01*
X137023418Y-73706597D01*
X137029712Y-73693290D01*
X137037280Y-73680664D01*
X137046048Y-73668841D01*
X137055934Y-73657934D01*
X137066841Y-73648048D01*
X137078664Y-73639280D01*
X137091290Y-73631712D01*
X137104597Y-73625418D01*
X137118457Y-73620459D01*
X137132736Y-73616882D01*
X137147297Y-73614722D01*
X137162000Y-73614000D01*
X138812000Y-73614000D01*
X138826703Y-73614722D01*
G37*
G04 #@! TD.AperFunction*
G04 #@! TA.AperFunction,SMDPad,CuDef*
G36*
X138826703Y-74884722D02*
G01*
X138841264Y-74886882D01*
X138855543Y-74890459D01*
X138869403Y-74895418D01*
X138882710Y-74901712D01*
X138895336Y-74909280D01*
X138907159Y-74918048D01*
X138918066Y-74927934D01*
X138927952Y-74938841D01*
X138936720Y-74950664D01*
X138944288Y-74963290D01*
X138950582Y-74976597D01*
X138955541Y-74990457D01*
X138959118Y-75004736D01*
X138961278Y-75019297D01*
X138962000Y-75034000D01*
X138962000Y-75334000D01*
X138961278Y-75348703D01*
X138959118Y-75363264D01*
X138955541Y-75377543D01*
X138950582Y-75391403D01*
X138944288Y-75404710D01*
X138936720Y-75417336D01*
X138927952Y-75429159D01*
X138918066Y-75440066D01*
X138907159Y-75449952D01*
X138895336Y-75458720D01*
X138882710Y-75466288D01*
X138869403Y-75472582D01*
X138855543Y-75477541D01*
X138841264Y-75481118D01*
X138826703Y-75483278D01*
X138812000Y-75484000D01*
X137162000Y-75484000D01*
X137147297Y-75483278D01*
X137132736Y-75481118D01*
X137118457Y-75477541D01*
X137104597Y-75472582D01*
X137091290Y-75466288D01*
X137078664Y-75458720D01*
X137066841Y-75449952D01*
X137055934Y-75440066D01*
X137046048Y-75429159D01*
X137037280Y-75417336D01*
X137029712Y-75404710D01*
X137023418Y-75391403D01*
X137018459Y-75377543D01*
X137014882Y-75363264D01*
X137012722Y-75348703D01*
X137012000Y-75334000D01*
X137012000Y-75034000D01*
X137012722Y-75019297D01*
X137014882Y-75004736D01*
X137018459Y-74990457D01*
X137023418Y-74976597D01*
X137029712Y-74963290D01*
X137037280Y-74950664D01*
X137046048Y-74938841D01*
X137055934Y-74927934D01*
X137066841Y-74918048D01*
X137078664Y-74909280D01*
X137091290Y-74901712D01*
X137104597Y-74895418D01*
X137118457Y-74890459D01*
X137132736Y-74886882D01*
X137147297Y-74884722D01*
X137162000Y-74884000D01*
X138812000Y-74884000D01*
X138826703Y-74884722D01*
G37*
G04 #@! TD.AperFunction*
G04 #@! TA.AperFunction,SMDPad,CuDef*
G36*
X138826703Y-76154722D02*
G01*
X138841264Y-76156882D01*
X138855543Y-76160459D01*
X138869403Y-76165418D01*
X138882710Y-76171712D01*
X138895336Y-76179280D01*
X138907159Y-76188048D01*
X138918066Y-76197934D01*
X138927952Y-76208841D01*
X138936720Y-76220664D01*
X138944288Y-76233290D01*
X138950582Y-76246597D01*
X138955541Y-76260457D01*
X138959118Y-76274736D01*
X138961278Y-76289297D01*
X138962000Y-76304000D01*
X138962000Y-76604000D01*
X138961278Y-76618703D01*
X138959118Y-76633264D01*
X138955541Y-76647543D01*
X138950582Y-76661403D01*
X138944288Y-76674710D01*
X138936720Y-76687336D01*
X138927952Y-76699159D01*
X138918066Y-76710066D01*
X138907159Y-76719952D01*
X138895336Y-76728720D01*
X138882710Y-76736288D01*
X138869403Y-76742582D01*
X138855543Y-76747541D01*
X138841264Y-76751118D01*
X138826703Y-76753278D01*
X138812000Y-76754000D01*
X137162000Y-76754000D01*
X137147297Y-76753278D01*
X137132736Y-76751118D01*
X137118457Y-76747541D01*
X137104597Y-76742582D01*
X137091290Y-76736288D01*
X137078664Y-76728720D01*
X137066841Y-76719952D01*
X137055934Y-76710066D01*
X137046048Y-76699159D01*
X137037280Y-76687336D01*
X137029712Y-76674710D01*
X137023418Y-76661403D01*
X137018459Y-76647543D01*
X137014882Y-76633264D01*
X137012722Y-76618703D01*
X137012000Y-76604000D01*
X137012000Y-76304000D01*
X137012722Y-76289297D01*
X137014882Y-76274736D01*
X137018459Y-76260457D01*
X137023418Y-76246597D01*
X137029712Y-76233290D01*
X137037280Y-76220664D01*
X137046048Y-76208841D01*
X137055934Y-76197934D01*
X137066841Y-76188048D01*
X137078664Y-76179280D01*
X137091290Y-76171712D01*
X137104597Y-76165418D01*
X137118457Y-76160459D01*
X137132736Y-76156882D01*
X137147297Y-76154722D01*
X137162000Y-76154000D01*
X138812000Y-76154000D01*
X138826703Y-76154722D01*
G37*
G04 #@! TD.AperFunction*
G04 #@! TA.AperFunction,SMDPad,CuDef*
G36*
X138826703Y-77424722D02*
G01*
X138841264Y-77426882D01*
X138855543Y-77430459D01*
X138869403Y-77435418D01*
X138882710Y-77441712D01*
X138895336Y-77449280D01*
X138907159Y-77458048D01*
X138918066Y-77467934D01*
X138927952Y-77478841D01*
X138936720Y-77490664D01*
X138944288Y-77503290D01*
X138950582Y-77516597D01*
X138955541Y-77530457D01*
X138959118Y-77544736D01*
X138961278Y-77559297D01*
X138962000Y-77574000D01*
X138962000Y-77874000D01*
X138961278Y-77888703D01*
X138959118Y-77903264D01*
X138955541Y-77917543D01*
X138950582Y-77931403D01*
X138944288Y-77944710D01*
X138936720Y-77957336D01*
X138927952Y-77969159D01*
X138918066Y-77980066D01*
X138907159Y-77989952D01*
X138895336Y-77998720D01*
X138882710Y-78006288D01*
X138869403Y-78012582D01*
X138855543Y-78017541D01*
X138841264Y-78021118D01*
X138826703Y-78023278D01*
X138812000Y-78024000D01*
X137162000Y-78024000D01*
X137147297Y-78023278D01*
X137132736Y-78021118D01*
X137118457Y-78017541D01*
X137104597Y-78012582D01*
X137091290Y-78006288D01*
X137078664Y-77998720D01*
X137066841Y-77989952D01*
X137055934Y-77980066D01*
X137046048Y-77969159D01*
X137037280Y-77957336D01*
X137029712Y-77944710D01*
X137023418Y-77931403D01*
X137018459Y-77917543D01*
X137014882Y-77903264D01*
X137012722Y-77888703D01*
X137012000Y-77874000D01*
X137012000Y-77574000D01*
X137012722Y-77559297D01*
X137014882Y-77544736D01*
X137018459Y-77530457D01*
X137023418Y-77516597D01*
X137029712Y-77503290D01*
X137037280Y-77490664D01*
X137046048Y-77478841D01*
X137055934Y-77467934D01*
X137066841Y-77458048D01*
X137078664Y-77449280D01*
X137091290Y-77441712D01*
X137104597Y-77435418D01*
X137118457Y-77430459D01*
X137132736Y-77426882D01*
X137147297Y-77424722D01*
X137162000Y-77424000D01*
X138812000Y-77424000D01*
X138826703Y-77424722D01*
G37*
G04 #@! TD.AperFunction*
G04 #@! TA.AperFunction,SMDPad,CuDef*
G36*
X138826703Y-78694722D02*
G01*
X138841264Y-78696882D01*
X138855543Y-78700459D01*
X138869403Y-78705418D01*
X138882710Y-78711712D01*
X138895336Y-78719280D01*
X138907159Y-78728048D01*
X138918066Y-78737934D01*
X138927952Y-78748841D01*
X138936720Y-78760664D01*
X138944288Y-78773290D01*
X138950582Y-78786597D01*
X138955541Y-78800457D01*
X138959118Y-78814736D01*
X138961278Y-78829297D01*
X138962000Y-78844000D01*
X138962000Y-79144000D01*
X138961278Y-79158703D01*
X138959118Y-79173264D01*
X138955541Y-79187543D01*
X138950582Y-79201403D01*
X138944288Y-79214710D01*
X138936720Y-79227336D01*
X138927952Y-79239159D01*
X138918066Y-79250066D01*
X138907159Y-79259952D01*
X138895336Y-79268720D01*
X138882710Y-79276288D01*
X138869403Y-79282582D01*
X138855543Y-79287541D01*
X138841264Y-79291118D01*
X138826703Y-79293278D01*
X138812000Y-79294000D01*
X137162000Y-79294000D01*
X137147297Y-79293278D01*
X137132736Y-79291118D01*
X137118457Y-79287541D01*
X137104597Y-79282582D01*
X137091290Y-79276288D01*
X137078664Y-79268720D01*
X137066841Y-79259952D01*
X137055934Y-79250066D01*
X137046048Y-79239159D01*
X137037280Y-79227336D01*
X137029712Y-79214710D01*
X137023418Y-79201403D01*
X137018459Y-79187543D01*
X137014882Y-79173264D01*
X137012722Y-79158703D01*
X137012000Y-79144000D01*
X137012000Y-78844000D01*
X137012722Y-78829297D01*
X137014882Y-78814736D01*
X137018459Y-78800457D01*
X137023418Y-78786597D01*
X137029712Y-78773290D01*
X137037280Y-78760664D01*
X137046048Y-78748841D01*
X137055934Y-78737934D01*
X137066841Y-78728048D01*
X137078664Y-78719280D01*
X137091290Y-78711712D01*
X137104597Y-78705418D01*
X137118457Y-78700459D01*
X137132736Y-78696882D01*
X137147297Y-78694722D01*
X137162000Y-78694000D01*
X138812000Y-78694000D01*
X138826703Y-78694722D01*
G37*
G04 #@! TD.AperFunction*
G04 #@! TA.AperFunction,SMDPad,CuDef*
G36*
X138826703Y-79964722D02*
G01*
X138841264Y-79966882D01*
X138855543Y-79970459D01*
X138869403Y-79975418D01*
X138882710Y-79981712D01*
X138895336Y-79989280D01*
X138907159Y-79998048D01*
X138918066Y-80007934D01*
X138927952Y-80018841D01*
X138936720Y-80030664D01*
X138944288Y-80043290D01*
X138950582Y-80056597D01*
X138955541Y-80070457D01*
X138959118Y-80084736D01*
X138961278Y-80099297D01*
X138962000Y-80114000D01*
X138962000Y-80414000D01*
X138961278Y-80428703D01*
X138959118Y-80443264D01*
X138955541Y-80457543D01*
X138950582Y-80471403D01*
X138944288Y-80484710D01*
X138936720Y-80497336D01*
X138927952Y-80509159D01*
X138918066Y-80520066D01*
X138907159Y-80529952D01*
X138895336Y-80538720D01*
X138882710Y-80546288D01*
X138869403Y-80552582D01*
X138855543Y-80557541D01*
X138841264Y-80561118D01*
X138826703Y-80563278D01*
X138812000Y-80564000D01*
X137162000Y-80564000D01*
X137147297Y-80563278D01*
X137132736Y-80561118D01*
X137118457Y-80557541D01*
X137104597Y-80552582D01*
X137091290Y-80546288D01*
X137078664Y-80538720D01*
X137066841Y-80529952D01*
X137055934Y-80520066D01*
X137046048Y-80509159D01*
X137037280Y-80497336D01*
X137029712Y-80484710D01*
X137023418Y-80471403D01*
X137018459Y-80457543D01*
X137014882Y-80443264D01*
X137012722Y-80428703D01*
X137012000Y-80414000D01*
X137012000Y-80114000D01*
X137012722Y-80099297D01*
X137014882Y-80084736D01*
X137018459Y-80070457D01*
X137023418Y-80056597D01*
X137029712Y-80043290D01*
X137037280Y-80030664D01*
X137046048Y-80018841D01*
X137055934Y-80007934D01*
X137066841Y-79998048D01*
X137078664Y-79989280D01*
X137091290Y-79981712D01*
X137104597Y-79975418D01*
X137118457Y-79970459D01*
X137132736Y-79966882D01*
X137147297Y-79964722D01*
X137162000Y-79964000D01*
X138812000Y-79964000D01*
X138826703Y-79964722D01*
G37*
G04 #@! TD.AperFunction*
G04 #@! TA.AperFunction,SMDPad,CuDef*
G36*
X138826703Y-81234722D02*
G01*
X138841264Y-81236882D01*
X138855543Y-81240459D01*
X138869403Y-81245418D01*
X138882710Y-81251712D01*
X138895336Y-81259280D01*
X138907159Y-81268048D01*
X138918066Y-81277934D01*
X138927952Y-81288841D01*
X138936720Y-81300664D01*
X138944288Y-81313290D01*
X138950582Y-81326597D01*
X138955541Y-81340457D01*
X138959118Y-81354736D01*
X138961278Y-81369297D01*
X138962000Y-81384000D01*
X138962000Y-81684000D01*
X138961278Y-81698703D01*
X138959118Y-81713264D01*
X138955541Y-81727543D01*
X138950582Y-81741403D01*
X138944288Y-81754710D01*
X138936720Y-81767336D01*
X138927952Y-81779159D01*
X138918066Y-81790066D01*
X138907159Y-81799952D01*
X138895336Y-81808720D01*
X138882710Y-81816288D01*
X138869403Y-81822582D01*
X138855543Y-81827541D01*
X138841264Y-81831118D01*
X138826703Y-81833278D01*
X138812000Y-81834000D01*
X137162000Y-81834000D01*
X137147297Y-81833278D01*
X137132736Y-81831118D01*
X137118457Y-81827541D01*
X137104597Y-81822582D01*
X137091290Y-81816288D01*
X137078664Y-81808720D01*
X137066841Y-81799952D01*
X137055934Y-81790066D01*
X137046048Y-81779159D01*
X137037280Y-81767336D01*
X137029712Y-81754710D01*
X137023418Y-81741403D01*
X137018459Y-81727543D01*
X137014882Y-81713264D01*
X137012722Y-81698703D01*
X137012000Y-81684000D01*
X137012000Y-81384000D01*
X137012722Y-81369297D01*
X137014882Y-81354736D01*
X137018459Y-81340457D01*
X137023418Y-81326597D01*
X137029712Y-81313290D01*
X137037280Y-81300664D01*
X137046048Y-81288841D01*
X137055934Y-81277934D01*
X137066841Y-81268048D01*
X137078664Y-81259280D01*
X137091290Y-81251712D01*
X137104597Y-81245418D01*
X137118457Y-81240459D01*
X137132736Y-81236882D01*
X137147297Y-81234722D01*
X137162000Y-81234000D01*
X138812000Y-81234000D01*
X138826703Y-81234722D01*
G37*
G04 #@! TD.AperFunction*
G04 #@! TA.AperFunction,SMDPad,CuDef*
G36*
X139158505Y-68632204D02*
G01*
X139182773Y-68635804D01*
X139206572Y-68641765D01*
X139229671Y-68650030D01*
X139251850Y-68660520D01*
X139272893Y-68673132D01*
X139292599Y-68687747D01*
X139310777Y-68704223D01*
X139327253Y-68722401D01*
X139341868Y-68742107D01*
X139354480Y-68763150D01*
X139364970Y-68785329D01*
X139373235Y-68808428D01*
X139379196Y-68832227D01*
X139382796Y-68856495D01*
X139384000Y-68880999D01*
X139384000Y-69531001D01*
X139382796Y-69555505D01*
X139379196Y-69579773D01*
X139373235Y-69603572D01*
X139364970Y-69626671D01*
X139354480Y-69648850D01*
X139341868Y-69669893D01*
X139327253Y-69689599D01*
X139310777Y-69707777D01*
X139292599Y-69724253D01*
X139272893Y-69738868D01*
X139251850Y-69751480D01*
X139229671Y-69761970D01*
X139206572Y-69770235D01*
X139182773Y-69776196D01*
X139158505Y-69779796D01*
X139134001Y-69781000D01*
X138233999Y-69781000D01*
X138209495Y-69779796D01*
X138185227Y-69776196D01*
X138161428Y-69770235D01*
X138138329Y-69761970D01*
X138116150Y-69751480D01*
X138095107Y-69738868D01*
X138075401Y-69724253D01*
X138057223Y-69707777D01*
X138040747Y-69689599D01*
X138026132Y-69669893D01*
X138013520Y-69648850D01*
X138003030Y-69626671D01*
X137994765Y-69603572D01*
X137988804Y-69579773D01*
X137985204Y-69555505D01*
X137984000Y-69531001D01*
X137984000Y-68880999D01*
X137985204Y-68856495D01*
X137988804Y-68832227D01*
X137994765Y-68808428D01*
X138003030Y-68785329D01*
X138013520Y-68763150D01*
X138026132Y-68742107D01*
X138040747Y-68722401D01*
X138057223Y-68704223D01*
X138075401Y-68687747D01*
X138095107Y-68673132D01*
X138116150Y-68660520D01*
X138138329Y-68650030D01*
X138161428Y-68641765D01*
X138185227Y-68635804D01*
X138209495Y-68632204D01*
X138233999Y-68631000D01*
X139134001Y-68631000D01*
X139158505Y-68632204D01*
G37*
G04 #@! TD.AperFunction*
G04 #@! TA.AperFunction,SMDPad,CuDef*
G36*
X139158505Y-70682204D02*
G01*
X139182773Y-70685804D01*
X139206572Y-70691765D01*
X139229671Y-70700030D01*
X139251850Y-70710520D01*
X139272893Y-70723132D01*
X139292599Y-70737747D01*
X139310777Y-70754223D01*
X139327253Y-70772401D01*
X139341868Y-70792107D01*
X139354480Y-70813150D01*
X139364970Y-70835329D01*
X139373235Y-70858428D01*
X139379196Y-70882227D01*
X139382796Y-70906495D01*
X139384000Y-70930999D01*
X139384000Y-71581001D01*
X139382796Y-71605505D01*
X139379196Y-71629773D01*
X139373235Y-71653572D01*
X139364970Y-71676671D01*
X139354480Y-71698850D01*
X139341868Y-71719893D01*
X139327253Y-71739599D01*
X139310777Y-71757777D01*
X139292599Y-71774253D01*
X139272893Y-71788868D01*
X139251850Y-71801480D01*
X139229671Y-71811970D01*
X139206572Y-71820235D01*
X139182773Y-71826196D01*
X139158505Y-71829796D01*
X139134001Y-71831000D01*
X138233999Y-71831000D01*
X138209495Y-71829796D01*
X138185227Y-71826196D01*
X138161428Y-71820235D01*
X138138329Y-71811970D01*
X138116150Y-71801480D01*
X138095107Y-71788868D01*
X138075401Y-71774253D01*
X138057223Y-71757777D01*
X138040747Y-71739599D01*
X138026132Y-71719893D01*
X138013520Y-71698850D01*
X138003030Y-71676671D01*
X137994765Y-71653572D01*
X137988804Y-71629773D01*
X137985204Y-71605505D01*
X137984000Y-71581001D01*
X137984000Y-70930999D01*
X137985204Y-70906495D01*
X137988804Y-70882227D01*
X137994765Y-70858428D01*
X138003030Y-70835329D01*
X138013520Y-70813150D01*
X138026132Y-70792107D01*
X138040747Y-70772401D01*
X138057223Y-70754223D01*
X138075401Y-70737747D01*
X138095107Y-70723132D01*
X138116150Y-70710520D01*
X138138329Y-70700030D01*
X138161428Y-70691765D01*
X138185227Y-70685804D01*
X138209495Y-70682204D01*
X138233999Y-70681000D01*
X139134001Y-70681000D01*
X139158505Y-70682204D01*
G37*
G04 #@! TD.AperFunction*
D13*
X140970000Y-53975000D03*
X115570000Y-53975000D03*
D14*
X118745000Y-61465000D03*
X118745000Y-64265000D03*
D15*
X115570000Y-71120000D03*
D16*
X115570000Y-76200000D03*
D17*
X125730000Y-57785000D03*
D18*
X128270000Y-57785000D03*
X130810000Y-57785000D03*
G04 #@! TA.AperFunction,SMDPad,CuDef*
D12*
G36*
X127982505Y-93914204D02*
G01*
X128006773Y-93917804D01*
X128030572Y-93923765D01*
X128053671Y-93932030D01*
X128075850Y-93942520D01*
X128096893Y-93955132D01*
X128116599Y-93969747D01*
X128134777Y-93986223D01*
X128151253Y-94004401D01*
X128165868Y-94024107D01*
X128178480Y-94045150D01*
X128188970Y-94067329D01*
X128197235Y-94090428D01*
X128203196Y-94114227D01*
X128206796Y-94138495D01*
X128208000Y-94162999D01*
X128208000Y-94813001D01*
X128206796Y-94837505D01*
X128203196Y-94861773D01*
X128197235Y-94885572D01*
X128188970Y-94908671D01*
X128178480Y-94930850D01*
X128165868Y-94951893D01*
X128151253Y-94971599D01*
X128134777Y-94989777D01*
X128116599Y-95006253D01*
X128096893Y-95020868D01*
X128075850Y-95033480D01*
X128053671Y-95043970D01*
X128030572Y-95052235D01*
X128006773Y-95058196D01*
X127982505Y-95061796D01*
X127958001Y-95063000D01*
X127057999Y-95063000D01*
X127033495Y-95061796D01*
X127009227Y-95058196D01*
X126985428Y-95052235D01*
X126962329Y-95043970D01*
X126940150Y-95033480D01*
X126919107Y-95020868D01*
X126899401Y-95006253D01*
X126881223Y-94989777D01*
X126864747Y-94971599D01*
X126850132Y-94951893D01*
X126837520Y-94930850D01*
X126827030Y-94908671D01*
X126818765Y-94885572D01*
X126812804Y-94861773D01*
X126809204Y-94837505D01*
X126808000Y-94813001D01*
X126808000Y-94162999D01*
X126809204Y-94138495D01*
X126812804Y-94114227D01*
X126818765Y-94090428D01*
X126827030Y-94067329D01*
X126837520Y-94045150D01*
X126850132Y-94024107D01*
X126864747Y-94004401D01*
X126881223Y-93986223D01*
X126899401Y-93969747D01*
X126919107Y-93955132D01*
X126940150Y-93942520D01*
X126962329Y-93932030D01*
X126985428Y-93923765D01*
X127009227Y-93917804D01*
X127033495Y-93914204D01*
X127057999Y-93913000D01*
X127958001Y-93913000D01*
X127982505Y-93914204D01*
G37*
G04 #@! TD.AperFunction*
G04 #@! TA.AperFunction,SMDPad,CuDef*
G36*
X127982505Y-95964204D02*
G01*
X128006773Y-95967804D01*
X128030572Y-95973765D01*
X128053671Y-95982030D01*
X128075850Y-95992520D01*
X128096893Y-96005132D01*
X128116599Y-96019747D01*
X128134777Y-96036223D01*
X128151253Y-96054401D01*
X128165868Y-96074107D01*
X128178480Y-96095150D01*
X128188970Y-96117329D01*
X128197235Y-96140428D01*
X128203196Y-96164227D01*
X128206796Y-96188495D01*
X128208000Y-96212999D01*
X128208000Y-96863001D01*
X128206796Y-96887505D01*
X128203196Y-96911773D01*
X128197235Y-96935572D01*
X128188970Y-96958671D01*
X128178480Y-96980850D01*
X128165868Y-97001893D01*
X128151253Y-97021599D01*
X128134777Y-97039777D01*
X128116599Y-97056253D01*
X128096893Y-97070868D01*
X128075850Y-97083480D01*
X128053671Y-97093970D01*
X128030572Y-97102235D01*
X128006773Y-97108196D01*
X127982505Y-97111796D01*
X127958001Y-97113000D01*
X127057999Y-97113000D01*
X127033495Y-97111796D01*
X127009227Y-97108196D01*
X126985428Y-97102235D01*
X126962329Y-97093970D01*
X126940150Y-97083480D01*
X126919107Y-97070868D01*
X126899401Y-97056253D01*
X126881223Y-97039777D01*
X126864747Y-97021599D01*
X126850132Y-97001893D01*
X126837520Y-96980850D01*
X126827030Y-96958671D01*
X126818765Y-96935572D01*
X126812804Y-96911773D01*
X126809204Y-96887505D01*
X126808000Y-96863001D01*
X126808000Y-96212999D01*
X126809204Y-96188495D01*
X126812804Y-96164227D01*
X126818765Y-96140428D01*
X126827030Y-96117329D01*
X126837520Y-96095150D01*
X126850132Y-96074107D01*
X126864747Y-96054401D01*
X126881223Y-96036223D01*
X126899401Y-96019747D01*
X126919107Y-96005132D01*
X126940150Y-95992520D01*
X126962329Y-95982030D01*
X126985428Y-95973765D01*
X127009227Y-95967804D01*
X127033495Y-95964204D01*
X127057999Y-95963000D01*
X127958001Y-95963000D01*
X127982505Y-95964204D01*
G37*
G04 #@! TD.AperFunction*
G04 #@! TA.AperFunction,SMDPad,CuDef*
G36*
X121759505Y-62681204D02*
G01*
X121783773Y-62684804D01*
X121807572Y-62690765D01*
X121830671Y-62699030D01*
X121852850Y-62709520D01*
X121873893Y-62722132D01*
X121893599Y-62736747D01*
X121911777Y-62753223D01*
X121928253Y-62771401D01*
X121942868Y-62791107D01*
X121955480Y-62812150D01*
X121965970Y-62834329D01*
X121974235Y-62857428D01*
X121980196Y-62881227D01*
X121983796Y-62905495D01*
X121985000Y-62929999D01*
X121985000Y-63580001D01*
X121983796Y-63604505D01*
X121980196Y-63628773D01*
X121974235Y-63652572D01*
X121965970Y-63675671D01*
X121955480Y-63697850D01*
X121942868Y-63718893D01*
X121928253Y-63738599D01*
X121911777Y-63756777D01*
X121893599Y-63773253D01*
X121873893Y-63787868D01*
X121852850Y-63800480D01*
X121830671Y-63810970D01*
X121807572Y-63819235D01*
X121783773Y-63825196D01*
X121759505Y-63828796D01*
X121735001Y-63830000D01*
X120834999Y-63830000D01*
X120810495Y-63828796D01*
X120786227Y-63825196D01*
X120762428Y-63819235D01*
X120739329Y-63810970D01*
X120717150Y-63800480D01*
X120696107Y-63787868D01*
X120676401Y-63773253D01*
X120658223Y-63756777D01*
X120641747Y-63738599D01*
X120627132Y-63718893D01*
X120614520Y-63697850D01*
X120604030Y-63675671D01*
X120595765Y-63652572D01*
X120589804Y-63628773D01*
X120586204Y-63604505D01*
X120585000Y-63580001D01*
X120585000Y-62929999D01*
X120586204Y-62905495D01*
X120589804Y-62881227D01*
X120595765Y-62857428D01*
X120604030Y-62834329D01*
X120614520Y-62812150D01*
X120627132Y-62791107D01*
X120641747Y-62771401D01*
X120658223Y-62753223D01*
X120676401Y-62736747D01*
X120696107Y-62722132D01*
X120717150Y-62709520D01*
X120739329Y-62699030D01*
X120762428Y-62690765D01*
X120786227Y-62684804D01*
X120810495Y-62681204D01*
X120834999Y-62680000D01*
X121735001Y-62680000D01*
X121759505Y-62681204D01*
G37*
G04 #@! TD.AperFunction*
G04 #@! TA.AperFunction,SMDPad,CuDef*
G36*
X121759505Y-60631204D02*
G01*
X121783773Y-60634804D01*
X121807572Y-60640765D01*
X121830671Y-60649030D01*
X121852850Y-60659520D01*
X121873893Y-60672132D01*
X121893599Y-60686747D01*
X121911777Y-60703223D01*
X121928253Y-60721401D01*
X121942868Y-60741107D01*
X121955480Y-60762150D01*
X121965970Y-60784329D01*
X121974235Y-60807428D01*
X121980196Y-60831227D01*
X121983796Y-60855495D01*
X121985000Y-60879999D01*
X121985000Y-61530001D01*
X121983796Y-61554505D01*
X121980196Y-61578773D01*
X121974235Y-61602572D01*
X121965970Y-61625671D01*
X121955480Y-61647850D01*
X121942868Y-61668893D01*
X121928253Y-61688599D01*
X121911777Y-61706777D01*
X121893599Y-61723253D01*
X121873893Y-61737868D01*
X121852850Y-61750480D01*
X121830671Y-61760970D01*
X121807572Y-61769235D01*
X121783773Y-61775196D01*
X121759505Y-61778796D01*
X121735001Y-61780000D01*
X120834999Y-61780000D01*
X120810495Y-61778796D01*
X120786227Y-61775196D01*
X120762428Y-61769235D01*
X120739329Y-61760970D01*
X120717150Y-61750480D01*
X120696107Y-61737868D01*
X120676401Y-61723253D01*
X120658223Y-61706777D01*
X120641747Y-61688599D01*
X120627132Y-61668893D01*
X120614520Y-61647850D01*
X120604030Y-61625671D01*
X120595765Y-61602572D01*
X120589804Y-61578773D01*
X120586204Y-61554505D01*
X120585000Y-61530001D01*
X120585000Y-60879999D01*
X120586204Y-60855495D01*
X120589804Y-60831227D01*
X120595765Y-60807428D01*
X120604030Y-60784329D01*
X120614520Y-60762150D01*
X120627132Y-60741107D01*
X120641747Y-60721401D01*
X120658223Y-60703223D01*
X120676401Y-60686747D01*
X120696107Y-60672132D01*
X120717150Y-60659520D01*
X120739329Y-60649030D01*
X120762428Y-60640765D01*
X120786227Y-60634804D01*
X120810495Y-60631204D01*
X120834999Y-60630000D01*
X121735001Y-60630000D01*
X121759505Y-60631204D01*
G37*
G04 #@! TD.AperFunction*
G04 #@! TA.AperFunction,SMDPad,CuDef*
G36*
X133182505Y-94424204D02*
G01*
X133206773Y-94427804D01*
X133230572Y-94433765D01*
X133253671Y-94442030D01*
X133275850Y-94452520D01*
X133296893Y-94465132D01*
X133316599Y-94479747D01*
X133334777Y-94496223D01*
X133351253Y-94514401D01*
X133365868Y-94534107D01*
X133378480Y-94555150D01*
X133388970Y-94577329D01*
X133397235Y-94600428D01*
X133403196Y-94624227D01*
X133406796Y-94648495D01*
X133408000Y-94672999D01*
X133408000Y-95573001D01*
X133406796Y-95597505D01*
X133403196Y-95621773D01*
X133397235Y-95645572D01*
X133388970Y-95668671D01*
X133378480Y-95690850D01*
X133365868Y-95711893D01*
X133351253Y-95731599D01*
X133334777Y-95749777D01*
X133316599Y-95766253D01*
X133296893Y-95780868D01*
X133275850Y-95793480D01*
X133253671Y-95803970D01*
X133230572Y-95812235D01*
X133206773Y-95818196D01*
X133182505Y-95821796D01*
X133158001Y-95823000D01*
X132507999Y-95823000D01*
X132483495Y-95821796D01*
X132459227Y-95818196D01*
X132435428Y-95812235D01*
X132412329Y-95803970D01*
X132390150Y-95793480D01*
X132369107Y-95780868D01*
X132349401Y-95766253D01*
X132331223Y-95749777D01*
X132314747Y-95731599D01*
X132300132Y-95711893D01*
X132287520Y-95690850D01*
X132277030Y-95668671D01*
X132268765Y-95645572D01*
X132262804Y-95621773D01*
X132259204Y-95597505D01*
X132258000Y-95573001D01*
X132258000Y-94672999D01*
X132259204Y-94648495D01*
X132262804Y-94624227D01*
X132268765Y-94600428D01*
X132277030Y-94577329D01*
X132287520Y-94555150D01*
X132300132Y-94534107D01*
X132314747Y-94514401D01*
X132331223Y-94496223D01*
X132349401Y-94479747D01*
X132369107Y-94465132D01*
X132390150Y-94452520D01*
X132412329Y-94442030D01*
X132435428Y-94433765D01*
X132459227Y-94427804D01*
X132483495Y-94424204D01*
X132507999Y-94423000D01*
X133158001Y-94423000D01*
X133182505Y-94424204D01*
G37*
G04 #@! TD.AperFunction*
G04 #@! TA.AperFunction,SMDPad,CuDef*
G36*
X135232505Y-94424204D02*
G01*
X135256773Y-94427804D01*
X135280572Y-94433765D01*
X135303671Y-94442030D01*
X135325850Y-94452520D01*
X135346893Y-94465132D01*
X135366599Y-94479747D01*
X135384777Y-94496223D01*
X135401253Y-94514401D01*
X135415868Y-94534107D01*
X135428480Y-94555150D01*
X135438970Y-94577329D01*
X135447235Y-94600428D01*
X135453196Y-94624227D01*
X135456796Y-94648495D01*
X135458000Y-94672999D01*
X135458000Y-95573001D01*
X135456796Y-95597505D01*
X135453196Y-95621773D01*
X135447235Y-95645572D01*
X135438970Y-95668671D01*
X135428480Y-95690850D01*
X135415868Y-95711893D01*
X135401253Y-95731599D01*
X135384777Y-95749777D01*
X135366599Y-95766253D01*
X135346893Y-95780868D01*
X135325850Y-95793480D01*
X135303671Y-95803970D01*
X135280572Y-95812235D01*
X135256773Y-95818196D01*
X135232505Y-95821796D01*
X135208001Y-95823000D01*
X134557999Y-95823000D01*
X134533495Y-95821796D01*
X134509227Y-95818196D01*
X134485428Y-95812235D01*
X134462329Y-95803970D01*
X134440150Y-95793480D01*
X134419107Y-95780868D01*
X134399401Y-95766253D01*
X134381223Y-95749777D01*
X134364747Y-95731599D01*
X134350132Y-95711893D01*
X134337520Y-95690850D01*
X134327030Y-95668671D01*
X134318765Y-95645572D01*
X134312804Y-95621773D01*
X134309204Y-95597505D01*
X134308000Y-95573001D01*
X134308000Y-94672999D01*
X134309204Y-94648495D01*
X134312804Y-94624227D01*
X134318765Y-94600428D01*
X134327030Y-94577329D01*
X134337520Y-94555150D01*
X134350132Y-94534107D01*
X134364747Y-94514401D01*
X134381223Y-94496223D01*
X134399401Y-94479747D01*
X134419107Y-94465132D01*
X134440150Y-94452520D01*
X134462329Y-94442030D01*
X134485428Y-94433765D01*
X134509227Y-94427804D01*
X134533495Y-94424204D01*
X134557999Y-94423000D01*
X135208001Y-94423000D01*
X135232505Y-94424204D01*
G37*
G04 #@! TD.AperFunction*
G04 #@! TA.AperFunction,SMDPad,CuDef*
G36*
X139922505Y-94424204D02*
G01*
X139946773Y-94427804D01*
X139970572Y-94433765D01*
X139993671Y-94442030D01*
X140015850Y-94452520D01*
X140036893Y-94465132D01*
X140056599Y-94479747D01*
X140074777Y-94496223D01*
X140091253Y-94514401D01*
X140105868Y-94534107D01*
X140118480Y-94555150D01*
X140128970Y-94577329D01*
X140137235Y-94600428D01*
X140143196Y-94624227D01*
X140146796Y-94648495D01*
X140148000Y-94672999D01*
X140148000Y-95573001D01*
X140146796Y-95597505D01*
X140143196Y-95621773D01*
X140137235Y-95645572D01*
X140128970Y-95668671D01*
X140118480Y-95690850D01*
X140105868Y-95711893D01*
X140091253Y-95731599D01*
X140074777Y-95749777D01*
X140056599Y-95766253D01*
X140036893Y-95780868D01*
X140015850Y-95793480D01*
X139993671Y-95803970D01*
X139970572Y-95812235D01*
X139946773Y-95818196D01*
X139922505Y-95821796D01*
X139898001Y-95823000D01*
X139247999Y-95823000D01*
X139223495Y-95821796D01*
X139199227Y-95818196D01*
X139175428Y-95812235D01*
X139152329Y-95803970D01*
X139130150Y-95793480D01*
X139109107Y-95780868D01*
X139089401Y-95766253D01*
X139071223Y-95749777D01*
X139054747Y-95731599D01*
X139040132Y-95711893D01*
X139027520Y-95690850D01*
X139017030Y-95668671D01*
X139008765Y-95645572D01*
X139002804Y-95621773D01*
X138999204Y-95597505D01*
X138998000Y-95573001D01*
X138998000Y-94672999D01*
X138999204Y-94648495D01*
X139002804Y-94624227D01*
X139008765Y-94600428D01*
X139017030Y-94577329D01*
X139027520Y-94555150D01*
X139040132Y-94534107D01*
X139054747Y-94514401D01*
X139071223Y-94496223D01*
X139089401Y-94479747D01*
X139109107Y-94465132D01*
X139130150Y-94452520D01*
X139152329Y-94442030D01*
X139175428Y-94433765D01*
X139199227Y-94427804D01*
X139223495Y-94424204D01*
X139247999Y-94423000D01*
X139898001Y-94423000D01*
X139922505Y-94424204D01*
G37*
G04 #@! TD.AperFunction*
G04 #@! TA.AperFunction,SMDPad,CuDef*
G36*
X137872505Y-94424204D02*
G01*
X137896773Y-94427804D01*
X137920572Y-94433765D01*
X137943671Y-94442030D01*
X137965850Y-94452520D01*
X137986893Y-94465132D01*
X138006599Y-94479747D01*
X138024777Y-94496223D01*
X138041253Y-94514401D01*
X138055868Y-94534107D01*
X138068480Y-94555150D01*
X138078970Y-94577329D01*
X138087235Y-94600428D01*
X138093196Y-94624227D01*
X138096796Y-94648495D01*
X138098000Y-94672999D01*
X138098000Y-95573001D01*
X138096796Y-95597505D01*
X138093196Y-95621773D01*
X138087235Y-95645572D01*
X138078970Y-95668671D01*
X138068480Y-95690850D01*
X138055868Y-95711893D01*
X138041253Y-95731599D01*
X138024777Y-95749777D01*
X138006599Y-95766253D01*
X137986893Y-95780868D01*
X137965850Y-95793480D01*
X137943671Y-95803970D01*
X137920572Y-95812235D01*
X137896773Y-95818196D01*
X137872505Y-95821796D01*
X137848001Y-95823000D01*
X137197999Y-95823000D01*
X137173495Y-95821796D01*
X137149227Y-95818196D01*
X137125428Y-95812235D01*
X137102329Y-95803970D01*
X137080150Y-95793480D01*
X137059107Y-95780868D01*
X137039401Y-95766253D01*
X137021223Y-95749777D01*
X137004747Y-95731599D01*
X136990132Y-95711893D01*
X136977520Y-95690850D01*
X136967030Y-95668671D01*
X136958765Y-95645572D01*
X136952804Y-95621773D01*
X136949204Y-95597505D01*
X136948000Y-95573001D01*
X136948000Y-94672999D01*
X136949204Y-94648495D01*
X136952804Y-94624227D01*
X136958765Y-94600428D01*
X136967030Y-94577329D01*
X136977520Y-94555150D01*
X136990132Y-94534107D01*
X137004747Y-94514401D01*
X137021223Y-94496223D01*
X137039401Y-94479747D01*
X137059107Y-94465132D01*
X137080150Y-94452520D01*
X137102329Y-94442030D01*
X137125428Y-94433765D01*
X137149227Y-94427804D01*
X137173495Y-94424204D01*
X137197999Y-94423000D01*
X137848001Y-94423000D01*
X137872505Y-94424204D01*
G37*
G04 #@! TD.AperFunction*
G04 #@! TA.AperFunction,SMDPad,CuDef*
G36*
X125569505Y-60631204D02*
G01*
X125593773Y-60634804D01*
X125617572Y-60640765D01*
X125640671Y-60649030D01*
X125662850Y-60659520D01*
X125683893Y-60672132D01*
X125703599Y-60686747D01*
X125721777Y-60703223D01*
X125738253Y-60721401D01*
X125752868Y-60741107D01*
X125765480Y-60762150D01*
X125775970Y-60784329D01*
X125784235Y-60807428D01*
X125790196Y-60831227D01*
X125793796Y-60855495D01*
X125795000Y-60879999D01*
X125795000Y-61530001D01*
X125793796Y-61554505D01*
X125790196Y-61578773D01*
X125784235Y-61602572D01*
X125775970Y-61625671D01*
X125765480Y-61647850D01*
X125752868Y-61668893D01*
X125738253Y-61688599D01*
X125721777Y-61706777D01*
X125703599Y-61723253D01*
X125683893Y-61737868D01*
X125662850Y-61750480D01*
X125640671Y-61760970D01*
X125617572Y-61769235D01*
X125593773Y-61775196D01*
X125569505Y-61778796D01*
X125545001Y-61780000D01*
X124644999Y-61780000D01*
X124620495Y-61778796D01*
X124596227Y-61775196D01*
X124572428Y-61769235D01*
X124549329Y-61760970D01*
X124527150Y-61750480D01*
X124506107Y-61737868D01*
X124486401Y-61723253D01*
X124468223Y-61706777D01*
X124451747Y-61688599D01*
X124437132Y-61668893D01*
X124424520Y-61647850D01*
X124414030Y-61625671D01*
X124405765Y-61602572D01*
X124399804Y-61578773D01*
X124396204Y-61554505D01*
X124395000Y-61530001D01*
X124395000Y-60879999D01*
X124396204Y-60855495D01*
X124399804Y-60831227D01*
X124405765Y-60807428D01*
X124414030Y-60784329D01*
X124424520Y-60762150D01*
X124437132Y-60741107D01*
X124451747Y-60721401D01*
X124468223Y-60703223D01*
X124486401Y-60686747D01*
X124506107Y-60672132D01*
X124527150Y-60659520D01*
X124549329Y-60649030D01*
X124572428Y-60640765D01*
X124596227Y-60634804D01*
X124620495Y-60631204D01*
X124644999Y-60630000D01*
X125545001Y-60630000D01*
X125569505Y-60631204D01*
G37*
G04 #@! TD.AperFunction*
G04 #@! TA.AperFunction,SMDPad,CuDef*
G36*
X125569505Y-62681204D02*
G01*
X125593773Y-62684804D01*
X125617572Y-62690765D01*
X125640671Y-62699030D01*
X125662850Y-62709520D01*
X125683893Y-62722132D01*
X125703599Y-62736747D01*
X125721777Y-62753223D01*
X125738253Y-62771401D01*
X125752868Y-62791107D01*
X125765480Y-62812150D01*
X125775970Y-62834329D01*
X125784235Y-62857428D01*
X125790196Y-62881227D01*
X125793796Y-62905495D01*
X125795000Y-62929999D01*
X125795000Y-63580001D01*
X125793796Y-63604505D01*
X125790196Y-63628773D01*
X125784235Y-63652572D01*
X125775970Y-63675671D01*
X125765480Y-63697850D01*
X125752868Y-63718893D01*
X125738253Y-63738599D01*
X125721777Y-63756777D01*
X125703599Y-63773253D01*
X125683893Y-63787868D01*
X125662850Y-63800480D01*
X125640671Y-63810970D01*
X125617572Y-63819235D01*
X125593773Y-63825196D01*
X125569505Y-63828796D01*
X125545001Y-63830000D01*
X124644999Y-63830000D01*
X124620495Y-63828796D01*
X124596227Y-63825196D01*
X124572428Y-63819235D01*
X124549329Y-63810970D01*
X124527150Y-63800480D01*
X124506107Y-63787868D01*
X124486401Y-63773253D01*
X124468223Y-63756777D01*
X124451747Y-63738599D01*
X124437132Y-63718893D01*
X124424520Y-63697850D01*
X124414030Y-63675671D01*
X124405765Y-63652572D01*
X124399804Y-63628773D01*
X124396204Y-63604505D01*
X124395000Y-63580001D01*
X124395000Y-62929999D01*
X124396204Y-62905495D01*
X124399804Y-62881227D01*
X124405765Y-62857428D01*
X124414030Y-62834329D01*
X124424520Y-62812150D01*
X124437132Y-62791107D01*
X124451747Y-62771401D01*
X124468223Y-62753223D01*
X124486401Y-62736747D01*
X124506107Y-62722132D01*
X124527150Y-62709520D01*
X124549329Y-62699030D01*
X124572428Y-62690765D01*
X124596227Y-62684804D01*
X124620495Y-62681204D01*
X124644999Y-62680000D01*
X125545001Y-62680000D01*
X125569505Y-62681204D01*
G37*
G04 #@! TD.AperFunction*
G04 #@! TA.AperFunction,SMDPad,CuDef*
G36*
X125569505Y-66491204D02*
G01*
X125593773Y-66494804D01*
X125617572Y-66500765D01*
X125640671Y-66509030D01*
X125662850Y-66519520D01*
X125683893Y-66532132D01*
X125703599Y-66546747D01*
X125721777Y-66563223D01*
X125738253Y-66581401D01*
X125752868Y-66601107D01*
X125765480Y-66622150D01*
X125775970Y-66644329D01*
X125784235Y-66667428D01*
X125790196Y-66691227D01*
X125793796Y-66715495D01*
X125795000Y-66739999D01*
X125795000Y-67390001D01*
X125793796Y-67414505D01*
X125790196Y-67438773D01*
X125784235Y-67462572D01*
X125775970Y-67485671D01*
X125765480Y-67507850D01*
X125752868Y-67528893D01*
X125738253Y-67548599D01*
X125721777Y-67566777D01*
X125703599Y-67583253D01*
X125683893Y-67597868D01*
X125662850Y-67610480D01*
X125640671Y-67620970D01*
X125617572Y-67629235D01*
X125593773Y-67635196D01*
X125569505Y-67638796D01*
X125545001Y-67640000D01*
X124644999Y-67640000D01*
X124620495Y-67638796D01*
X124596227Y-67635196D01*
X124572428Y-67629235D01*
X124549329Y-67620970D01*
X124527150Y-67610480D01*
X124506107Y-67597868D01*
X124486401Y-67583253D01*
X124468223Y-67566777D01*
X124451747Y-67548599D01*
X124437132Y-67528893D01*
X124424520Y-67507850D01*
X124414030Y-67485671D01*
X124405765Y-67462572D01*
X124399804Y-67438773D01*
X124396204Y-67414505D01*
X124395000Y-67390001D01*
X124395000Y-66739999D01*
X124396204Y-66715495D01*
X124399804Y-66691227D01*
X124405765Y-66667428D01*
X124414030Y-66644329D01*
X124424520Y-66622150D01*
X124437132Y-66601107D01*
X124451747Y-66581401D01*
X124468223Y-66563223D01*
X124486401Y-66546747D01*
X124506107Y-66532132D01*
X124527150Y-66519520D01*
X124549329Y-66509030D01*
X124572428Y-66500765D01*
X124596227Y-66494804D01*
X124620495Y-66491204D01*
X124644999Y-66490000D01*
X125545001Y-66490000D01*
X125569505Y-66491204D01*
G37*
G04 #@! TD.AperFunction*
G04 #@! TA.AperFunction,SMDPad,CuDef*
G36*
X125569505Y-64441204D02*
G01*
X125593773Y-64444804D01*
X125617572Y-64450765D01*
X125640671Y-64459030D01*
X125662850Y-64469520D01*
X125683893Y-64482132D01*
X125703599Y-64496747D01*
X125721777Y-64513223D01*
X125738253Y-64531401D01*
X125752868Y-64551107D01*
X125765480Y-64572150D01*
X125775970Y-64594329D01*
X125784235Y-64617428D01*
X125790196Y-64641227D01*
X125793796Y-64665495D01*
X125795000Y-64689999D01*
X125795000Y-65340001D01*
X125793796Y-65364505D01*
X125790196Y-65388773D01*
X125784235Y-65412572D01*
X125775970Y-65435671D01*
X125765480Y-65457850D01*
X125752868Y-65478893D01*
X125738253Y-65498599D01*
X125721777Y-65516777D01*
X125703599Y-65533253D01*
X125683893Y-65547868D01*
X125662850Y-65560480D01*
X125640671Y-65570970D01*
X125617572Y-65579235D01*
X125593773Y-65585196D01*
X125569505Y-65588796D01*
X125545001Y-65590000D01*
X124644999Y-65590000D01*
X124620495Y-65588796D01*
X124596227Y-65585196D01*
X124572428Y-65579235D01*
X124549329Y-65570970D01*
X124527150Y-65560480D01*
X124506107Y-65547868D01*
X124486401Y-65533253D01*
X124468223Y-65516777D01*
X124451747Y-65498599D01*
X124437132Y-65478893D01*
X124424520Y-65457850D01*
X124414030Y-65435671D01*
X124405765Y-65412572D01*
X124399804Y-65388773D01*
X124396204Y-65364505D01*
X124395000Y-65340001D01*
X124395000Y-64689999D01*
X124396204Y-64665495D01*
X124399804Y-64641227D01*
X124405765Y-64617428D01*
X124414030Y-64594329D01*
X124424520Y-64572150D01*
X124437132Y-64551107D01*
X124451747Y-64531401D01*
X124468223Y-64513223D01*
X124486401Y-64496747D01*
X124506107Y-64482132D01*
X124527150Y-64469520D01*
X124549329Y-64459030D01*
X124572428Y-64450765D01*
X124596227Y-64444804D01*
X124620495Y-64441204D01*
X124644999Y-64440000D01*
X125545001Y-64440000D01*
X125569505Y-64441204D01*
G37*
G04 #@! TD.AperFunction*
D19*
X122428000Y-91948000D03*
X123378000Y-91948000D03*
X124328000Y-91948000D03*
X124328000Y-89248000D03*
X122428000Y-89248000D03*
X123378000Y-89248000D03*
X133543000Y-89248000D03*
X132593000Y-89248000D03*
X134493000Y-89248000D03*
X134493000Y-91948000D03*
X133543000Y-91948000D03*
X132593000Y-91948000D03*
D20*
X144780000Y-84963000D03*
X142240000Y-84963000D03*
X139700000Y-84963000D03*
X137160000Y-84963000D03*
X134620000Y-84963000D03*
X132080000Y-84963000D03*
X129540000Y-84963000D03*
X127000000Y-84963000D03*
X124460000Y-84963000D03*
X121920000Y-84963000D03*
X119380000Y-84963000D03*
X116840000Y-84963000D03*
X114300000Y-84963000D03*
X111760000Y-84963000D03*
X111760000Y-87503000D03*
X111760000Y-90043000D03*
X111760000Y-92583000D03*
X111760000Y-95123000D03*
X111760000Y-97663000D03*
X111760000Y-100203000D03*
X114300000Y-100203000D03*
X116840000Y-100203000D03*
X119380000Y-100203000D03*
X121920000Y-100203000D03*
X124460000Y-100203000D03*
X127000000Y-100203000D03*
X129540000Y-100203000D03*
X132080000Y-100203000D03*
X134620000Y-100203000D03*
X137160000Y-100203000D03*
X139700000Y-100203000D03*
X142240000Y-100203000D03*
X144780000Y-100203000D03*
G04 #@! TA.AperFunction,SMDPad,CuDef*
D12*
G36*
X133454505Y-76771204D02*
G01*
X133478773Y-76774804D01*
X133502572Y-76780765D01*
X133525671Y-76789030D01*
X133547850Y-76799520D01*
X133568893Y-76812132D01*
X133588599Y-76826747D01*
X133606777Y-76843223D01*
X133623253Y-76861401D01*
X133637868Y-76881107D01*
X133650480Y-76902150D01*
X133660970Y-76924329D01*
X133669235Y-76947428D01*
X133675196Y-76971227D01*
X133678796Y-76995495D01*
X133680000Y-77019999D01*
X133680000Y-77920001D01*
X133678796Y-77944505D01*
X133675196Y-77968773D01*
X133669235Y-77992572D01*
X133660970Y-78015671D01*
X133650480Y-78037850D01*
X133637868Y-78058893D01*
X133623253Y-78078599D01*
X133606777Y-78096777D01*
X133588599Y-78113253D01*
X133568893Y-78127868D01*
X133547850Y-78140480D01*
X133525671Y-78150970D01*
X133502572Y-78159235D01*
X133478773Y-78165196D01*
X133454505Y-78168796D01*
X133430001Y-78170000D01*
X132779999Y-78170000D01*
X132755495Y-78168796D01*
X132731227Y-78165196D01*
X132707428Y-78159235D01*
X132684329Y-78150970D01*
X132662150Y-78140480D01*
X132641107Y-78127868D01*
X132621401Y-78113253D01*
X132603223Y-78096777D01*
X132586747Y-78078599D01*
X132572132Y-78058893D01*
X132559520Y-78037850D01*
X132549030Y-78015671D01*
X132540765Y-77992572D01*
X132534804Y-77968773D01*
X132531204Y-77944505D01*
X132530000Y-77920001D01*
X132530000Y-77019999D01*
X132531204Y-76995495D01*
X132534804Y-76971227D01*
X132540765Y-76947428D01*
X132549030Y-76924329D01*
X132559520Y-76902150D01*
X132572132Y-76881107D01*
X132586747Y-76861401D01*
X132603223Y-76843223D01*
X132621401Y-76826747D01*
X132641107Y-76812132D01*
X132662150Y-76799520D01*
X132684329Y-76789030D01*
X132707428Y-76780765D01*
X132731227Y-76774804D01*
X132755495Y-76771204D01*
X132779999Y-76770000D01*
X133430001Y-76770000D01*
X133454505Y-76771204D01*
G37*
G04 #@! TD.AperFunction*
G04 #@! TA.AperFunction,SMDPad,CuDef*
G36*
X131404505Y-76771204D02*
G01*
X131428773Y-76774804D01*
X131452572Y-76780765D01*
X131475671Y-76789030D01*
X131497850Y-76799520D01*
X131518893Y-76812132D01*
X131538599Y-76826747D01*
X131556777Y-76843223D01*
X131573253Y-76861401D01*
X131587868Y-76881107D01*
X131600480Y-76902150D01*
X131610970Y-76924329D01*
X131619235Y-76947428D01*
X131625196Y-76971227D01*
X131628796Y-76995495D01*
X131630000Y-77019999D01*
X131630000Y-77920001D01*
X131628796Y-77944505D01*
X131625196Y-77968773D01*
X131619235Y-77992572D01*
X131610970Y-78015671D01*
X131600480Y-78037850D01*
X131587868Y-78058893D01*
X131573253Y-78078599D01*
X131556777Y-78096777D01*
X131538599Y-78113253D01*
X131518893Y-78127868D01*
X131497850Y-78140480D01*
X131475671Y-78150970D01*
X131452572Y-78159235D01*
X131428773Y-78165196D01*
X131404505Y-78168796D01*
X131380001Y-78170000D01*
X130729999Y-78170000D01*
X130705495Y-78168796D01*
X130681227Y-78165196D01*
X130657428Y-78159235D01*
X130634329Y-78150970D01*
X130612150Y-78140480D01*
X130591107Y-78127868D01*
X130571401Y-78113253D01*
X130553223Y-78096777D01*
X130536747Y-78078599D01*
X130522132Y-78058893D01*
X130509520Y-78037850D01*
X130499030Y-78015671D01*
X130490765Y-77992572D01*
X130484804Y-77968773D01*
X130481204Y-77944505D01*
X130480000Y-77920001D01*
X130480000Y-77019999D01*
X130481204Y-76995495D01*
X130484804Y-76971227D01*
X130490765Y-76947428D01*
X130499030Y-76924329D01*
X130509520Y-76902150D01*
X130522132Y-76881107D01*
X130536747Y-76861401D01*
X130553223Y-76843223D01*
X130571401Y-76826747D01*
X130591107Y-76812132D01*
X130612150Y-76799520D01*
X130634329Y-76789030D01*
X130657428Y-76780765D01*
X130681227Y-76774804D01*
X130705495Y-76771204D01*
X130729999Y-76770000D01*
X131380001Y-76770000D01*
X131404505Y-76771204D01*
G37*
G04 #@! TD.AperFunction*
G04 #@! TA.AperFunction,SMDPad,CuDef*
G36*
X131404505Y-79311204D02*
G01*
X131428773Y-79314804D01*
X131452572Y-79320765D01*
X131475671Y-79329030D01*
X131497850Y-79339520D01*
X131518893Y-79352132D01*
X131538599Y-79366747D01*
X131556777Y-79383223D01*
X131573253Y-79401401D01*
X131587868Y-79421107D01*
X131600480Y-79442150D01*
X131610970Y-79464329D01*
X131619235Y-79487428D01*
X131625196Y-79511227D01*
X131628796Y-79535495D01*
X131630000Y-79559999D01*
X131630000Y-80460001D01*
X131628796Y-80484505D01*
X131625196Y-80508773D01*
X131619235Y-80532572D01*
X131610970Y-80555671D01*
X131600480Y-80577850D01*
X131587868Y-80598893D01*
X131573253Y-80618599D01*
X131556777Y-80636777D01*
X131538599Y-80653253D01*
X131518893Y-80667868D01*
X131497850Y-80680480D01*
X131475671Y-80690970D01*
X131452572Y-80699235D01*
X131428773Y-80705196D01*
X131404505Y-80708796D01*
X131380001Y-80710000D01*
X130729999Y-80710000D01*
X130705495Y-80708796D01*
X130681227Y-80705196D01*
X130657428Y-80699235D01*
X130634329Y-80690970D01*
X130612150Y-80680480D01*
X130591107Y-80667868D01*
X130571401Y-80653253D01*
X130553223Y-80636777D01*
X130536747Y-80618599D01*
X130522132Y-80598893D01*
X130509520Y-80577850D01*
X130499030Y-80555671D01*
X130490765Y-80532572D01*
X130484804Y-80508773D01*
X130481204Y-80484505D01*
X130480000Y-80460001D01*
X130480000Y-79559999D01*
X130481204Y-79535495D01*
X130484804Y-79511227D01*
X130490765Y-79487428D01*
X130499030Y-79464329D01*
X130509520Y-79442150D01*
X130522132Y-79421107D01*
X130536747Y-79401401D01*
X130553223Y-79383223D01*
X130571401Y-79366747D01*
X130591107Y-79352132D01*
X130612150Y-79339520D01*
X130634329Y-79329030D01*
X130657428Y-79320765D01*
X130681227Y-79314804D01*
X130705495Y-79311204D01*
X130729999Y-79310000D01*
X131380001Y-79310000D01*
X131404505Y-79311204D01*
G37*
G04 #@! TD.AperFunction*
G04 #@! TA.AperFunction,SMDPad,CuDef*
G36*
X133454505Y-79311204D02*
G01*
X133478773Y-79314804D01*
X133502572Y-79320765D01*
X133525671Y-79329030D01*
X133547850Y-79339520D01*
X133568893Y-79352132D01*
X133588599Y-79366747D01*
X133606777Y-79383223D01*
X133623253Y-79401401D01*
X133637868Y-79421107D01*
X133650480Y-79442150D01*
X133660970Y-79464329D01*
X133669235Y-79487428D01*
X133675196Y-79511227D01*
X133678796Y-79535495D01*
X133680000Y-79559999D01*
X133680000Y-80460001D01*
X133678796Y-80484505D01*
X133675196Y-80508773D01*
X133669235Y-80532572D01*
X133660970Y-80555671D01*
X133650480Y-80577850D01*
X133637868Y-80598893D01*
X133623253Y-80618599D01*
X133606777Y-80636777D01*
X133588599Y-80653253D01*
X133568893Y-80667868D01*
X133547850Y-80680480D01*
X133525671Y-80690970D01*
X133502572Y-80699235D01*
X133478773Y-80705196D01*
X133454505Y-80708796D01*
X133430001Y-80710000D01*
X132779999Y-80710000D01*
X132755495Y-80708796D01*
X132731227Y-80705196D01*
X132707428Y-80699235D01*
X132684329Y-80690970D01*
X132662150Y-80680480D01*
X132641107Y-80667868D01*
X132621401Y-80653253D01*
X132603223Y-80636777D01*
X132586747Y-80618599D01*
X132572132Y-80598893D01*
X132559520Y-80577850D01*
X132549030Y-80555671D01*
X132540765Y-80532572D01*
X132534804Y-80508773D01*
X132531204Y-80484505D01*
X132530000Y-80460001D01*
X132530000Y-79559999D01*
X132531204Y-79535495D01*
X132534804Y-79511227D01*
X132540765Y-79487428D01*
X132549030Y-79464329D01*
X132559520Y-79442150D01*
X132572132Y-79421107D01*
X132586747Y-79401401D01*
X132603223Y-79383223D01*
X132621401Y-79366747D01*
X132641107Y-79352132D01*
X132662150Y-79339520D01*
X132684329Y-79329030D01*
X132707428Y-79320765D01*
X132731227Y-79314804D01*
X132755495Y-79311204D01*
X132779999Y-79310000D01*
X133430001Y-79310000D01*
X133454505Y-79311204D01*
G37*
G04 #@! TD.AperFunction*
G04 #@! TA.AperFunction,SMDPad,CuDef*
G36*
X125442505Y-93914204D02*
G01*
X125466773Y-93917804D01*
X125490572Y-93923765D01*
X125513671Y-93932030D01*
X125535850Y-93942520D01*
X125556893Y-93955132D01*
X125576599Y-93969747D01*
X125594777Y-93986223D01*
X125611253Y-94004401D01*
X125625868Y-94024107D01*
X125638480Y-94045150D01*
X125648970Y-94067329D01*
X125657235Y-94090428D01*
X125663196Y-94114227D01*
X125666796Y-94138495D01*
X125668000Y-94162999D01*
X125668000Y-94813001D01*
X125666796Y-94837505D01*
X125663196Y-94861773D01*
X125657235Y-94885572D01*
X125648970Y-94908671D01*
X125638480Y-94930850D01*
X125625868Y-94951893D01*
X125611253Y-94971599D01*
X125594777Y-94989777D01*
X125576599Y-95006253D01*
X125556893Y-95020868D01*
X125535850Y-95033480D01*
X125513671Y-95043970D01*
X125490572Y-95052235D01*
X125466773Y-95058196D01*
X125442505Y-95061796D01*
X125418001Y-95063000D01*
X124517999Y-95063000D01*
X124493495Y-95061796D01*
X124469227Y-95058196D01*
X124445428Y-95052235D01*
X124422329Y-95043970D01*
X124400150Y-95033480D01*
X124379107Y-95020868D01*
X124359401Y-95006253D01*
X124341223Y-94989777D01*
X124324747Y-94971599D01*
X124310132Y-94951893D01*
X124297520Y-94930850D01*
X124287030Y-94908671D01*
X124278765Y-94885572D01*
X124272804Y-94861773D01*
X124269204Y-94837505D01*
X124268000Y-94813001D01*
X124268000Y-94162999D01*
X124269204Y-94138495D01*
X124272804Y-94114227D01*
X124278765Y-94090428D01*
X124287030Y-94067329D01*
X124297520Y-94045150D01*
X124310132Y-94024107D01*
X124324747Y-94004401D01*
X124341223Y-93986223D01*
X124359401Y-93969747D01*
X124379107Y-93955132D01*
X124400150Y-93942520D01*
X124422329Y-93932030D01*
X124445428Y-93923765D01*
X124469227Y-93917804D01*
X124493495Y-93914204D01*
X124517999Y-93913000D01*
X125418001Y-93913000D01*
X125442505Y-93914204D01*
G37*
G04 #@! TD.AperFunction*
G04 #@! TA.AperFunction,SMDPad,CuDef*
G36*
X125442505Y-95964204D02*
G01*
X125466773Y-95967804D01*
X125490572Y-95973765D01*
X125513671Y-95982030D01*
X125535850Y-95992520D01*
X125556893Y-96005132D01*
X125576599Y-96019747D01*
X125594777Y-96036223D01*
X125611253Y-96054401D01*
X125625868Y-96074107D01*
X125638480Y-96095150D01*
X125648970Y-96117329D01*
X125657235Y-96140428D01*
X125663196Y-96164227D01*
X125666796Y-96188495D01*
X125668000Y-96212999D01*
X125668000Y-96863001D01*
X125666796Y-96887505D01*
X125663196Y-96911773D01*
X125657235Y-96935572D01*
X125648970Y-96958671D01*
X125638480Y-96980850D01*
X125625868Y-97001893D01*
X125611253Y-97021599D01*
X125594777Y-97039777D01*
X125576599Y-97056253D01*
X125556893Y-97070868D01*
X125535850Y-97083480D01*
X125513671Y-97093970D01*
X125490572Y-97102235D01*
X125466773Y-97108196D01*
X125442505Y-97111796D01*
X125418001Y-97113000D01*
X124517999Y-97113000D01*
X124493495Y-97111796D01*
X124469227Y-97108196D01*
X124445428Y-97102235D01*
X124422329Y-97093970D01*
X124400150Y-97083480D01*
X124379107Y-97070868D01*
X124359401Y-97056253D01*
X124341223Y-97039777D01*
X124324747Y-97021599D01*
X124310132Y-97001893D01*
X124297520Y-96980850D01*
X124287030Y-96958671D01*
X124278765Y-96935572D01*
X124272804Y-96911773D01*
X124269204Y-96887505D01*
X124268000Y-96863001D01*
X124268000Y-96212999D01*
X124269204Y-96188495D01*
X124272804Y-96164227D01*
X124278765Y-96140428D01*
X124287030Y-96117329D01*
X124297520Y-96095150D01*
X124310132Y-96074107D01*
X124324747Y-96054401D01*
X124341223Y-96036223D01*
X124359401Y-96019747D01*
X124379107Y-96005132D01*
X124400150Y-95992520D01*
X124422329Y-95982030D01*
X124445428Y-95973765D01*
X124469227Y-95967804D01*
X124493495Y-95964204D01*
X124517999Y-95963000D01*
X125418001Y-95963000D01*
X125442505Y-95964204D01*
G37*
G04 #@! TD.AperFunction*
G04 #@! TA.AperFunction,SMDPad,CuDef*
G36*
X142072505Y-94424204D02*
G01*
X142096773Y-94427804D01*
X142120572Y-94433765D01*
X142143671Y-94442030D01*
X142165850Y-94452520D01*
X142186893Y-94465132D01*
X142206599Y-94479747D01*
X142224777Y-94496223D01*
X142241253Y-94514401D01*
X142255868Y-94534107D01*
X142268480Y-94555150D01*
X142278970Y-94577329D01*
X142287235Y-94600428D01*
X142293196Y-94624227D01*
X142296796Y-94648495D01*
X142298000Y-94672999D01*
X142298000Y-95573001D01*
X142296796Y-95597505D01*
X142293196Y-95621773D01*
X142287235Y-95645572D01*
X142278970Y-95668671D01*
X142268480Y-95690850D01*
X142255868Y-95711893D01*
X142241253Y-95731599D01*
X142224777Y-95749777D01*
X142206599Y-95766253D01*
X142186893Y-95780868D01*
X142165850Y-95793480D01*
X142143671Y-95803970D01*
X142120572Y-95812235D01*
X142096773Y-95818196D01*
X142072505Y-95821796D01*
X142048001Y-95823000D01*
X141397999Y-95823000D01*
X141373495Y-95821796D01*
X141349227Y-95818196D01*
X141325428Y-95812235D01*
X141302329Y-95803970D01*
X141280150Y-95793480D01*
X141259107Y-95780868D01*
X141239401Y-95766253D01*
X141221223Y-95749777D01*
X141204747Y-95731599D01*
X141190132Y-95711893D01*
X141177520Y-95690850D01*
X141167030Y-95668671D01*
X141158765Y-95645572D01*
X141152804Y-95621773D01*
X141149204Y-95597505D01*
X141148000Y-95573001D01*
X141148000Y-94672999D01*
X141149204Y-94648495D01*
X141152804Y-94624227D01*
X141158765Y-94600428D01*
X141167030Y-94577329D01*
X141177520Y-94555150D01*
X141190132Y-94534107D01*
X141204747Y-94514401D01*
X141221223Y-94496223D01*
X141239401Y-94479747D01*
X141259107Y-94465132D01*
X141280150Y-94452520D01*
X141302329Y-94442030D01*
X141325428Y-94433765D01*
X141349227Y-94427804D01*
X141373495Y-94424204D01*
X141397999Y-94423000D01*
X142048001Y-94423000D01*
X142072505Y-94424204D01*
G37*
G04 #@! TD.AperFunction*
G04 #@! TA.AperFunction,SMDPad,CuDef*
G36*
X144122505Y-94424204D02*
G01*
X144146773Y-94427804D01*
X144170572Y-94433765D01*
X144193671Y-94442030D01*
X144215850Y-94452520D01*
X144236893Y-94465132D01*
X144256599Y-94479747D01*
X144274777Y-94496223D01*
X144291253Y-94514401D01*
X144305868Y-94534107D01*
X144318480Y-94555150D01*
X144328970Y-94577329D01*
X144337235Y-94600428D01*
X144343196Y-94624227D01*
X144346796Y-94648495D01*
X144348000Y-94672999D01*
X144348000Y-95573001D01*
X144346796Y-95597505D01*
X144343196Y-95621773D01*
X144337235Y-95645572D01*
X144328970Y-95668671D01*
X144318480Y-95690850D01*
X144305868Y-95711893D01*
X144291253Y-95731599D01*
X144274777Y-95749777D01*
X144256599Y-95766253D01*
X144236893Y-95780868D01*
X144215850Y-95793480D01*
X144193671Y-95803970D01*
X144170572Y-95812235D01*
X144146773Y-95818196D01*
X144122505Y-95821796D01*
X144098001Y-95823000D01*
X143447999Y-95823000D01*
X143423495Y-95821796D01*
X143399227Y-95818196D01*
X143375428Y-95812235D01*
X143352329Y-95803970D01*
X143330150Y-95793480D01*
X143309107Y-95780868D01*
X143289401Y-95766253D01*
X143271223Y-95749777D01*
X143254747Y-95731599D01*
X143240132Y-95711893D01*
X143227520Y-95690850D01*
X143217030Y-95668671D01*
X143208765Y-95645572D01*
X143202804Y-95621773D01*
X143199204Y-95597505D01*
X143198000Y-95573001D01*
X143198000Y-94672999D01*
X143199204Y-94648495D01*
X143202804Y-94624227D01*
X143208765Y-94600428D01*
X143217030Y-94577329D01*
X143227520Y-94555150D01*
X143240132Y-94534107D01*
X143254747Y-94514401D01*
X143271223Y-94496223D01*
X143289401Y-94479747D01*
X143309107Y-94465132D01*
X143330150Y-94452520D01*
X143352329Y-94442030D01*
X143375428Y-94433765D01*
X143399227Y-94427804D01*
X143423495Y-94424204D01*
X143447999Y-94423000D01*
X144098001Y-94423000D01*
X144122505Y-94424204D01*
G37*
G04 #@! TD.AperFunction*
D21*
X126492000Y-92329000D03*
X136906000Y-92329000D03*
X144399000Y-77724000D03*
X125095000Y-97790000D03*
X127635000Y-97790000D03*
X144145000Y-96520000D03*
X122428006Y-87630000D03*
X133543000Y-93284000D03*
X123378000Y-93279000D03*
X127372000Y-67065000D03*
X136525000Y-77724000D03*
X129413000Y-91948000D03*
X143383000Y-89154000D03*
X141224000Y-74676000D03*
X138049000Y-93472000D03*
X125095000Y-87630000D03*
X133985000Y-87630004D03*
X136915000Y-69206000D03*
X129921000Y-77470000D03*
X135763000Y-75184000D03*
X135763000Y-78993994D03*
D22*
X132593000Y-89248000D02*
X130589000Y-89248000D01*
X142937000Y-77724000D02*
X144399000Y-77724000D01*
X124968000Y-96538000D02*
X124968000Y-97663000D01*
X124968000Y-97663000D02*
X125095000Y-97790000D01*
X127508000Y-96538000D02*
X127508000Y-97663000D01*
X127508000Y-97663000D02*
X127635000Y-97790000D01*
X143773000Y-95823000D02*
X144145000Y-96195000D01*
X143773000Y-95123000D02*
X143773000Y-95823000D01*
X144145000Y-96195000D02*
X144145000Y-96520000D01*
X122428000Y-87630006D02*
X122428006Y-87630000D01*
X122428000Y-89248000D02*
X122428000Y-87630006D01*
X133543000Y-91948000D02*
X133543000Y-93284000D01*
X123378000Y-91948000D02*
X123378000Y-93279000D01*
X125095000Y-67065000D02*
X127372000Y-67065000D01*
X137987000Y-77724000D02*
X136525000Y-77724000D01*
X118860000Y-61450000D02*
X118745000Y-61335000D01*
X121025000Y-61465000D02*
X121285000Y-61205000D01*
X118745000Y-61465000D02*
X121025000Y-61465000D01*
X124523500Y-57785000D02*
X121285000Y-61023500D01*
X121285000Y-61023500D02*
X121285000Y-61205000D01*
X125730000Y-57785000D02*
X124523500Y-57785000D01*
X128605000Y-73614000D02*
X137687000Y-73614000D01*
X120060000Y-65069000D02*
X128605000Y-73614000D01*
X118745000Y-64265000D02*
X118745000Y-65069000D01*
X137687000Y-73614000D02*
X137987000Y-73914000D01*
X118745000Y-65069000D02*
X120060000Y-65069000D01*
X126104000Y-61205000D02*
X128270000Y-59039000D01*
X128270000Y-59039000D02*
X128270000Y-57785000D01*
X125095000Y-61205000D02*
X126104000Y-61205000D01*
X145288000Y-69391011D02*
X145288000Y-75713000D01*
X138176011Y-67691011D02*
X143588000Y-67691011D01*
X133350000Y-62865000D02*
X138176011Y-67691011D01*
X143588000Y-67691011D02*
X145288000Y-69391011D01*
X142937000Y-76454000D02*
X144547000Y-76454000D01*
X145288000Y-78548568D02*
X145288000Y-75692000D01*
X143872568Y-79964000D02*
X145288000Y-78548568D01*
X143237000Y-79964000D02*
X143872568Y-79964000D01*
X142937000Y-80264000D02*
X143237000Y-79964000D01*
X144547000Y-76454000D02*
X145288000Y-75692000D01*
X145288000Y-75692000D02*
X145288000Y-75713000D01*
X127508000Y-94488000D02*
X124968000Y-94488000D01*
X129070101Y-92290899D02*
X129413000Y-91948000D01*
X127508000Y-93853000D02*
X129070101Y-92290899D01*
X127508000Y-94488000D02*
X127508000Y-93853000D01*
X143383000Y-84328000D02*
X143383000Y-89154000D01*
X141453990Y-82398990D02*
X143383000Y-84328000D01*
X142937000Y-78994000D02*
X142240000Y-78994000D01*
X141453990Y-79780010D02*
X141453990Y-82398990D01*
X142240000Y-78994000D02*
X141453990Y-79780010D01*
X124968000Y-94689000D02*
X124968000Y-94488000D01*
X123128000Y-96529000D02*
X124968000Y-94689000D01*
X122428000Y-96529000D02*
X123128000Y-96529000D01*
X132593000Y-94883000D02*
X132833000Y-95123000D01*
X132593000Y-91948000D02*
X132593000Y-94883000D01*
X134883000Y-95123000D02*
X137523000Y-95123000D01*
X137987000Y-76454000D02*
X139446000Y-76454000D01*
X139446000Y-76454000D02*
X141224000Y-74676000D01*
X137706101Y-93814899D02*
X138049000Y-93472000D01*
X137523000Y-93998000D02*
X137706101Y-93814899D01*
X137523000Y-95123000D02*
X137523000Y-93998000D01*
X123378000Y-88214000D02*
X123378000Y-89248000D01*
X124597000Y-86995000D02*
X123378000Y-88214000D01*
X126365000Y-86995000D02*
X124597000Y-86995000D01*
X133543000Y-88214000D02*
X132324000Y-86995000D01*
X132324000Y-86995000D02*
X126365000Y-86995000D01*
X133543000Y-89248000D02*
X133543000Y-88214000D01*
X127000000Y-86995000D02*
X126365000Y-86995000D01*
X127000000Y-84963000D02*
X127000000Y-86995000D01*
X124328000Y-88214000D02*
X124912000Y-87630000D01*
X124328000Y-89248000D02*
X124328000Y-88214000D01*
X124912000Y-87630000D02*
X125095000Y-87630000D01*
X134493000Y-88138004D02*
X134327899Y-87972903D01*
X134327899Y-87972903D02*
X133985000Y-87630004D01*
X134493000Y-89248000D02*
X134493000Y-88138004D01*
X121793000Y-80010000D02*
X131055000Y-80010000D01*
X116840000Y-84963000D02*
X121793000Y-80010000D01*
X131055000Y-80710000D02*
X131055000Y-80010000D01*
X131879000Y-81534000D02*
X131055000Y-80710000D01*
X137987000Y-81534000D02*
X131879000Y-81534000D01*
X114300000Y-84963000D02*
X120232410Y-79030590D01*
X139127000Y-71699000D02*
X138684000Y-71256000D01*
X138684000Y-71831000D02*
X138684000Y-71256000D01*
X140767000Y-73914000D02*
X138684000Y-71831000D01*
X142937000Y-73914000D02*
X140767000Y-73914000D01*
X120232410Y-79030590D02*
X127090410Y-79030590D01*
X138946979Y-75806301D02*
X140767000Y-73986280D01*
X130314699Y-75806301D02*
X138946979Y-75806301D01*
X140767000Y-73986280D02*
X140767000Y-73914000D01*
X127090410Y-79030590D02*
X130314699Y-75806301D01*
X122428000Y-91948000D02*
X122428000Y-94479000D01*
X121285000Y-62680000D02*
X121285000Y-63255000D01*
X121676990Y-62288010D02*
X121285000Y-62680000D01*
X129032000Y-60325000D02*
X127068990Y-62288010D01*
X140512842Y-67056000D02*
X133781842Y-60325000D01*
X142937000Y-81534000D02*
X144145000Y-81534000D01*
X145923011Y-79755989D02*
X145923011Y-69127981D01*
X144145000Y-81534000D02*
X145923011Y-79755989D01*
X145923011Y-69127981D02*
X143851030Y-67056000D01*
X127068990Y-62288010D02*
X121676990Y-62288010D01*
X133781842Y-60325000D02*
X129032000Y-60325000D01*
X143851030Y-67056000D02*
X140512842Y-67056000D01*
X139319000Y-69206000D02*
X139319000Y-69732300D01*
X138684000Y-69206000D02*
X136915000Y-69206000D01*
X139384000Y-69206000D02*
X138684000Y-69206000D01*
X144653000Y-74676000D02*
X144653000Y-70538000D01*
X142937000Y-75184000D02*
X144145000Y-75184000D01*
X144145000Y-75184000D02*
X144653000Y-74676000D01*
X143321000Y-69206000D02*
X138684000Y-69206000D01*
X144653000Y-70538000D02*
X143321000Y-69206000D01*
X139573000Y-95123000D02*
X141723000Y-95123000D01*
X133105000Y-78170000D02*
X133105000Y-80010000D01*
X133105000Y-77470000D02*
X133105000Y-78170000D01*
X137733000Y-80010000D02*
X137987000Y-80264000D01*
X133105000Y-80010000D02*
X137733000Y-80010000D01*
X131055000Y-77470000D02*
X129921000Y-77470000D01*
X125095000Y-63255000D02*
X125095000Y-65015000D01*
X130801000Y-65015000D02*
X139446000Y-73660000D01*
X125095000Y-65015000D02*
X130801000Y-65015000D01*
X136247933Y-75184000D02*
X135763000Y-75184000D01*
X138872640Y-75184000D02*
X136247933Y-75184000D01*
X139446000Y-73660000D02*
X139446000Y-74610640D01*
X139446000Y-74610640D02*
X138872640Y-75184000D01*
X135763006Y-78994000D02*
X135763000Y-78993994D01*
X137987000Y-78994000D02*
X135763006Y-78994000D01*
G36*
X141456742Y-75771829D02*
G01*
X141495454Y-75819000D01*
X141456742Y-75866171D01*
X141383916Y-76002418D01*
X141339071Y-76150255D01*
X141323928Y-76304000D01*
X141323928Y-76604000D01*
X141339071Y-76757745D01*
X141383916Y-76905582D01*
X141455730Y-77039936D01*
X141431463Y-77069506D01*
X141372498Y-77179820D01*
X141336188Y-77299518D01*
X141323928Y-77424000D01*
X141327000Y-77438250D01*
X141485750Y-77597000D01*
X142810000Y-77597000D01*
X142810000Y-77577000D01*
X143064000Y-77577000D01*
X143064000Y-77597000D01*
X143084000Y-77597000D01*
X143084000Y-77851000D01*
X143064000Y-77851000D01*
X143064000Y-77871000D01*
X142810000Y-77871000D01*
X142810000Y-77851000D01*
X141485750Y-77851000D01*
X141327000Y-78009750D01*
X141323928Y-78024000D01*
X141336188Y-78148482D01*
X141372498Y-78268180D01*
X141431463Y-78378494D01*
X141455730Y-78408064D01*
X141383916Y-78542418D01*
X141339071Y-78690255D01*
X141325191Y-78831179D01*
X140941643Y-79214726D01*
X140912568Y-79238588D01*
X140872825Y-79287016D01*
X140817345Y-79354618D01*
X140807330Y-79373355D01*
X140746588Y-79486996D01*
X140703016Y-79630633D01*
X140691990Y-79742584D01*
X140688304Y-79780010D01*
X140691990Y-79817433D01*
X140691991Y-82361557D01*
X140688304Y-82398990D01*
X140703017Y-82548368D01*
X140746589Y-82692005D01*
X140817345Y-82824382D01*
X140888711Y-82911341D01*
X140912569Y-82940412D01*
X140941639Y-82964269D01*
X141666019Y-83688649D01*
X141578273Y-83724995D01*
X141349465Y-83877880D01*
X141154880Y-84072465D01*
X141001995Y-84301273D01*
X140972308Y-84372943D01*
X140967636Y-84359977D01*
X140905656Y-84244020D01*
X140665565Y-84177040D01*
X139879605Y-84963000D01*
X140665565Y-85748960D01*
X140905656Y-85681980D01*
X140969485Y-85546240D01*
X141001995Y-85624727D01*
X141154880Y-85853535D01*
X141349465Y-86048120D01*
X141578273Y-86201005D01*
X141832510Y-86306314D01*
X142102408Y-86360000D01*
X142377592Y-86360000D01*
X142621000Y-86311583D01*
X142621001Y-88534238D01*
X142516396Y-88690790D01*
X142442680Y-88868757D01*
X142405100Y-89057685D01*
X142405100Y-89250315D01*
X142442680Y-89439243D01*
X142516396Y-89617210D01*
X142623415Y-89777375D01*
X142759625Y-89913585D01*
X142919790Y-90020604D01*
X143097757Y-90094320D01*
X143286685Y-90131900D01*
X143479315Y-90131900D01*
X143668243Y-90094320D01*
X143846210Y-90020604D01*
X144006375Y-89913585D01*
X144142585Y-89777375D01*
X144249604Y-89617210D01*
X144323320Y-89439243D01*
X144360900Y-89250315D01*
X144360900Y-89057685D01*
X144323320Y-88868757D01*
X144249604Y-88690790D01*
X144145000Y-88534239D01*
X144145000Y-86212076D01*
X144372510Y-86306314D01*
X144642408Y-86360000D01*
X144917592Y-86360000D01*
X145187490Y-86306314D01*
X145441727Y-86201005D01*
X145670535Y-86048120D01*
X145865120Y-85853535D01*
X146018005Y-85624727D01*
X146025001Y-85607838D01*
X146025001Y-99558162D01*
X146018005Y-99541273D01*
X145865120Y-99312465D01*
X145670535Y-99117880D01*
X145441727Y-98964995D01*
X145187490Y-98859686D01*
X144917592Y-98806000D01*
X144642408Y-98806000D01*
X144372510Y-98859686D01*
X144118273Y-98964995D01*
X143889465Y-99117880D01*
X143694880Y-99312465D01*
X143541995Y-99541273D01*
X143510000Y-99618515D01*
X143478005Y-99541273D01*
X143325120Y-99312465D01*
X143130535Y-99117880D01*
X142901727Y-98964995D01*
X142647490Y-98859686D01*
X142377592Y-98806000D01*
X142102408Y-98806000D01*
X141832510Y-98859686D01*
X141578273Y-98964995D01*
X141349465Y-99117880D01*
X141154880Y-99312465D01*
X141001995Y-99541273D01*
X140970000Y-99618515D01*
X140938005Y-99541273D01*
X140785120Y-99312465D01*
X140590535Y-99117880D01*
X140361727Y-98964995D01*
X140107490Y-98859686D01*
X139837592Y-98806000D01*
X139562408Y-98806000D01*
X139292510Y-98859686D01*
X139038273Y-98964995D01*
X138809465Y-99117880D01*
X138614880Y-99312465D01*
X138461995Y-99541273D01*
X138430000Y-99618515D01*
X138398005Y-99541273D01*
X138245120Y-99312465D01*
X138050535Y-99117880D01*
X137821727Y-98964995D01*
X137567490Y-98859686D01*
X137297592Y-98806000D01*
X137022408Y-98806000D01*
X136752510Y-98859686D01*
X136498273Y-98964995D01*
X136269465Y-99117880D01*
X136074880Y-99312465D01*
X135921995Y-99541273D01*
X135890000Y-99618515D01*
X135858005Y-99541273D01*
X135705120Y-99312465D01*
X135510535Y-99117880D01*
X135281727Y-98964995D01*
X135027490Y-98859686D01*
X134757592Y-98806000D01*
X134482408Y-98806000D01*
X134212510Y-98859686D01*
X133958273Y-98964995D01*
X133729465Y-99117880D01*
X133534880Y-99312465D01*
X133381995Y-99541273D01*
X133350000Y-99618515D01*
X133318005Y-99541273D01*
X133165120Y-99312465D01*
X132970535Y-99117880D01*
X132741727Y-98964995D01*
X132487490Y-98859686D01*
X132217592Y-98806000D01*
X131942408Y-98806000D01*
X131672510Y-98859686D01*
X131418273Y-98964995D01*
X131189465Y-99117880D01*
X130994880Y-99312465D01*
X130841995Y-99541273D01*
X130810000Y-99618515D01*
X130778005Y-99541273D01*
X130625120Y-99312465D01*
X130430535Y-99117880D01*
X130201727Y-98964995D01*
X129947490Y-98859686D01*
X129677592Y-98806000D01*
X129402408Y-98806000D01*
X129132510Y-98859686D01*
X128878273Y-98964995D01*
X128649465Y-99117880D01*
X128454880Y-99312465D01*
X128301995Y-99541273D01*
X128270000Y-99618515D01*
X128238005Y-99541273D01*
X128085120Y-99312465D01*
X127890535Y-99117880D01*
X127661727Y-98964995D01*
X127407490Y-98859686D01*
X127137592Y-98806000D01*
X126862408Y-98806000D01*
X126592510Y-98859686D01*
X126338273Y-98964995D01*
X126109465Y-99117880D01*
X125914880Y-99312465D01*
X125761995Y-99541273D01*
X125730000Y-99618515D01*
X125698005Y-99541273D01*
X125545120Y-99312465D01*
X125350535Y-99117880D01*
X125121727Y-98964995D01*
X124867490Y-98859686D01*
X124597592Y-98806000D01*
X124322408Y-98806000D01*
X124052510Y-98859686D01*
X123798273Y-98964995D01*
X123569465Y-99117880D01*
X123374880Y-99312465D01*
X123221995Y-99541273D01*
X123190000Y-99618515D01*
X123158005Y-99541273D01*
X123005120Y-99312465D01*
X122810535Y-99117880D01*
X122581727Y-98964995D01*
X122327490Y-98859686D01*
X122057592Y-98806000D01*
X121782408Y-98806000D01*
X121512510Y-98859686D01*
X121258273Y-98964995D01*
X121029465Y-99117880D01*
X120834880Y-99312465D01*
X120681995Y-99541273D01*
X120650000Y-99618515D01*
X120618005Y-99541273D01*
X120465120Y-99312465D01*
X120270535Y-99117880D01*
X120041727Y-98964995D01*
X119787490Y-98859686D01*
X119517592Y-98806000D01*
X119242408Y-98806000D01*
X118972510Y-98859686D01*
X118718273Y-98964995D01*
X118489465Y-99117880D01*
X118294880Y-99312465D01*
X118141995Y-99541273D01*
X118110000Y-99618515D01*
X118078005Y-99541273D01*
X117925120Y-99312465D01*
X117730535Y-99117880D01*
X117501727Y-98964995D01*
X117247490Y-98859686D01*
X116977592Y-98806000D01*
X116702408Y-98806000D01*
X116432510Y-98859686D01*
X116178273Y-98964995D01*
X115949465Y-99117880D01*
X115754880Y-99312465D01*
X115601995Y-99541273D01*
X115570000Y-99618515D01*
X115538005Y-99541273D01*
X115385120Y-99312465D01*
X115190535Y-99117880D01*
X114961727Y-98964995D01*
X114707490Y-98859686D01*
X114437592Y-98806000D01*
X114162408Y-98806000D01*
X113892510Y-98859686D01*
X113638273Y-98964995D01*
X113409465Y-99117880D01*
X113214880Y-99312465D01*
X113061995Y-99541273D01*
X113030000Y-99618515D01*
X112998005Y-99541273D01*
X112845120Y-99312465D01*
X112650535Y-99117880D01*
X112421727Y-98964995D01*
X112344485Y-98933000D01*
X112421727Y-98901005D01*
X112650535Y-98748120D01*
X112845120Y-98553535D01*
X112998005Y-98324727D01*
X113103314Y-98070490D01*
X113157000Y-97800592D01*
X113157000Y-97525408D01*
X113103314Y-97255510D01*
X112998005Y-97001273D01*
X112845120Y-96772465D01*
X112650535Y-96577880D01*
X112421727Y-96424995D01*
X112350057Y-96395308D01*
X112363023Y-96390636D01*
X112478980Y-96328656D01*
X112545960Y-96088565D01*
X111760000Y-95302605D01*
X110974040Y-96088565D01*
X111041020Y-96328656D01*
X111176760Y-96392485D01*
X111098273Y-96424995D01*
X110869465Y-96577880D01*
X110674880Y-96772465D01*
X110521995Y-97001273D01*
X110515000Y-97018160D01*
X110515000Y-95768372D01*
X110554344Y-95841980D01*
X110794435Y-95908960D01*
X111580395Y-95123000D01*
X111939605Y-95123000D01*
X112725565Y-95908960D01*
X112965656Y-95841980D01*
X113082756Y-95592952D01*
X113149023Y-95325865D01*
X113161910Y-95050983D01*
X113120922Y-94778867D01*
X113027636Y-94519977D01*
X112965656Y-94404020D01*
X112725565Y-94337040D01*
X111939605Y-95123000D01*
X111580395Y-95123000D01*
X110794435Y-94337040D01*
X110554344Y-94404020D01*
X110515000Y-94487690D01*
X110515000Y-93227840D01*
X110521995Y-93244727D01*
X110674880Y-93473535D01*
X110869465Y-93668120D01*
X111098273Y-93821005D01*
X111169943Y-93850692D01*
X111156977Y-93855364D01*
X111041020Y-93917344D01*
X110974040Y-94157435D01*
X111760000Y-94943395D01*
X112545960Y-94157435D01*
X112478980Y-93917344D01*
X112343240Y-93853515D01*
X112421727Y-93821005D01*
X112650535Y-93668120D01*
X112845120Y-93473535D01*
X112998005Y-93244727D01*
X113103314Y-92990490D01*
X113157000Y-92720592D01*
X113157000Y-92445408D01*
X113103314Y-92175510D01*
X112998005Y-91921273D01*
X112845120Y-91692465D01*
X112650535Y-91497880D01*
X112421727Y-91344995D01*
X112344485Y-91313000D01*
X112421727Y-91281005D01*
X112650535Y-91128120D01*
X112845120Y-90933535D01*
X112998005Y-90704727D01*
X113103314Y-90450490D01*
X113157000Y-90180592D01*
X113157000Y-89905408D01*
X113103314Y-89635510D01*
X112998005Y-89381273D01*
X112845120Y-89152465D01*
X112650535Y-88957880D01*
X112421727Y-88804995D01*
X112344485Y-88773000D01*
X112421727Y-88741005D01*
X112650535Y-88588120D01*
X112845120Y-88393535D01*
X112998005Y-88164727D01*
X113103314Y-87910490D01*
X113157000Y-87640592D01*
X113157000Y-87365408D01*
X113103314Y-87095510D01*
X112998005Y-86841273D01*
X112845120Y-86612465D01*
X112650535Y-86417880D01*
X112421727Y-86264995D01*
X112344485Y-86233000D01*
X112421727Y-86201005D01*
X112650535Y-86048120D01*
X112845120Y-85853535D01*
X112998005Y-85624727D01*
X113030000Y-85547485D01*
X113061995Y-85624727D01*
X113214880Y-85853535D01*
X113409465Y-86048120D01*
X113638273Y-86201005D01*
X113892510Y-86306314D01*
X114162408Y-86360000D01*
X114437592Y-86360000D01*
X114707490Y-86306314D01*
X114961727Y-86201005D01*
X115190535Y-86048120D01*
X115385120Y-85853535D01*
X115538005Y-85624727D01*
X115570000Y-85547485D01*
X115601995Y-85624727D01*
X115754880Y-85853535D01*
X115949465Y-86048120D01*
X116178273Y-86201005D01*
X116432510Y-86306314D01*
X116702408Y-86360000D01*
X116977592Y-86360000D01*
X117247490Y-86306314D01*
X117501727Y-86201005D01*
X117730535Y-86048120D01*
X117925120Y-85853535D01*
X118078005Y-85624727D01*
X118110000Y-85547485D01*
X118141995Y-85624727D01*
X118294880Y-85853535D01*
X118489465Y-86048120D01*
X118718273Y-86201005D01*
X118972510Y-86306314D01*
X119242408Y-86360000D01*
X119517592Y-86360000D01*
X119787490Y-86306314D01*
X120041727Y-86201005D01*
X120270535Y-86048120D01*
X120465120Y-85853535D01*
X120618005Y-85624727D01*
X120650000Y-85547485D01*
X120681995Y-85624727D01*
X120834880Y-85853535D01*
X121029465Y-86048120D01*
X121258273Y-86201005D01*
X121512510Y-86306314D01*
X121782408Y-86360000D01*
X122057592Y-86360000D01*
X122327490Y-86306314D01*
X122581727Y-86201005D01*
X122810535Y-86048120D01*
X123005120Y-85853535D01*
X123158005Y-85624727D01*
X123190000Y-85547485D01*
X123221995Y-85624727D01*
X123374880Y-85853535D01*
X123569465Y-86048120D01*
X123798273Y-86201005D01*
X124052510Y-86306314D01*
X124210264Y-86337693D01*
X124171608Y-86358355D01*
X124055578Y-86453578D01*
X124031721Y-86482648D01*
X123310124Y-87204245D01*
X123294610Y-87166790D01*
X123187591Y-87006625D01*
X123051381Y-86870415D01*
X122891216Y-86763396D01*
X122713249Y-86689680D01*
X122524321Y-86652100D01*
X122331691Y-86652100D01*
X122142763Y-86689680D01*
X121964796Y-86763396D01*
X121804631Y-86870415D01*
X121668421Y-87006625D01*
X121561402Y-87166790D01*
X121487686Y-87344757D01*
X121450106Y-87533685D01*
X121450106Y-87726315D01*
X121487686Y-87915243D01*
X121561402Y-88093210D01*
X121573841Y-88111827D01*
X121572463Y-88113506D01*
X121513498Y-88223820D01*
X121477188Y-88343518D01*
X121464928Y-88468000D01*
X121464928Y-90028000D01*
X121477188Y-90152482D01*
X121513498Y-90272180D01*
X121572463Y-90382494D01*
X121651815Y-90479185D01*
X121748506Y-90558537D01*
X121822335Y-90598000D01*
X121748506Y-90637463D01*
X121651815Y-90716815D01*
X121572463Y-90813506D01*
X121513498Y-90923820D01*
X121477188Y-91043518D01*
X121464928Y-91168000D01*
X121464928Y-92728000D01*
X121477188Y-92852482D01*
X121513498Y-92972180D01*
X121572463Y-93082494D01*
X121651815Y-93179185D01*
X121666000Y-93190827D01*
X121666001Y-93325079D01*
X121638149Y-93333528D01*
X121484613Y-93415595D01*
X121350038Y-93526038D01*
X121239595Y-93660613D01*
X121157528Y-93814149D01*
X121106992Y-93980745D01*
X121089928Y-94153999D01*
X121089928Y-94804001D01*
X121106992Y-94977255D01*
X121157528Y-95143851D01*
X121239595Y-95297387D01*
X121350038Y-95431962D01*
X121437816Y-95504000D01*
X121350038Y-95576038D01*
X121239595Y-95710613D01*
X121157528Y-95864149D01*
X121106992Y-96030745D01*
X121089928Y-96203999D01*
X121089928Y-96854001D01*
X121106992Y-97027255D01*
X121157528Y-97193851D01*
X121239595Y-97347387D01*
X121350038Y-97481962D01*
X121484613Y-97592405D01*
X121638149Y-97674472D01*
X121804745Y-97725008D01*
X121977999Y-97742072D01*
X122878001Y-97742072D01*
X123051255Y-97725008D01*
X123217851Y-97674472D01*
X123371387Y-97592405D01*
X123505962Y-97481962D01*
X123616405Y-97347387D01*
X123696128Y-97198236D01*
X123697528Y-97202851D01*
X123779595Y-97356387D01*
X123890038Y-97490962D01*
X124024613Y-97601405D01*
X124124803Y-97654958D01*
X124117100Y-97693685D01*
X124117100Y-97886315D01*
X124154680Y-98075243D01*
X124228396Y-98253210D01*
X124335415Y-98413375D01*
X124471625Y-98549585D01*
X124631790Y-98656604D01*
X124809757Y-98730320D01*
X124998685Y-98767900D01*
X125191315Y-98767900D01*
X125380243Y-98730320D01*
X125558210Y-98656604D01*
X125718375Y-98549585D01*
X125854585Y-98413375D01*
X125961604Y-98253210D01*
X126035320Y-98075243D01*
X126072900Y-97886315D01*
X126072900Y-97693685D01*
X126035320Y-97504757D01*
X126033755Y-97500980D01*
X126045962Y-97490962D01*
X126156405Y-97356387D01*
X126238000Y-97203734D01*
X126319595Y-97356387D01*
X126430038Y-97490962D01*
X126564613Y-97601405D01*
X126664803Y-97654958D01*
X126657100Y-97693685D01*
X126657100Y-97886315D01*
X126694680Y-98075243D01*
X126768396Y-98253210D01*
X126875415Y-98413375D01*
X127011625Y-98549585D01*
X127171790Y-98656604D01*
X127349757Y-98730320D01*
X127538685Y-98767900D01*
X127731315Y-98767900D01*
X127920243Y-98730320D01*
X128098210Y-98656604D01*
X128258375Y-98549585D01*
X128394585Y-98413375D01*
X128501604Y-98253210D01*
X128575320Y-98075243D01*
X128612900Y-97886315D01*
X128612900Y-97693685D01*
X128575320Y-97504757D01*
X128573755Y-97500980D01*
X128585962Y-97490962D01*
X128696405Y-97356387D01*
X128778472Y-97202851D01*
X128829008Y-97036255D01*
X128846072Y-96863001D01*
X128846072Y-96212999D01*
X128829008Y-96039745D01*
X128778472Y-95873149D01*
X128696405Y-95719613D01*
X128585962Y-95585038D01*
X128498184Y-95513000D01*
X128585962Y-95440962D01*
X128696405Y-95306387D01*
X128778472Y-95152851D01*
X128829008Y-94986255D01*
X128846072Y-94813001D01*
X128846072Y-94162999D01*
X128829008Y-93989745D01*
X128778472Y-93823149D01*
X128721698Y-93716933D01*
X129513579Y-92925052D01*
X129698243Y-92888320D01*
X129876210Y-92814604D01*
X130036375Y-92707585D01*
X130172585Y-92571375D01*
X130279604Y-92411210D01*
X130353320Y-92233243D01*
X130390900Y-92044315D01*
X130390900Y-91851685D01*
X130353320Y-91662757D01*
X130279604Y-91484790D01*
X130172585Y-91324625D01*
X130036375Y-91188415D01*
X129876210Y-91081396D01*
X129698243Y-91007680D01*
X129509315Y-90970100D01*
X129316685Y-90970100D01*
X129127757Y-91007680D01*
X128949790Y-91081396D01*
X128789625Y-91188415D01*
X128653415Y-91324625D01*
X128546396Y-91484790D01*
X128472680Y-91662757D01*
X128435948Y-91847421D01*
X127003028Y-93280342D01*
X126884745Y-93291992D01*
X126718149Y-93342528D01*
X126564613Y-93424595D01*
X126430038Y-93535038D01*
X126319595Y-93669613D01*
X126289455Y-93726000D01*
X126186545Y-93726000D01*
X126156405Y-93669613D01*
X126045962Y-93535038D01*
X125911387Y-93424595D01*
X125757851Y-93342528D01*
X125591255Y-93291992D01*
X125418001Y-93274928D01*
X124976829Y-93274928D01*
X125007494Y-93258537D01*
X125104185Y-93179185D01*
X125183537Y-93082494D01*
X125242502Y-92972180D01*
X125278812Y-92852482D01*
X125291072Y-92728000D01*
X125288000Y-92233750D01*
X125129250Y-92075000D01*
X124455000Y-92075000D01*
X124455000Y-92095000D01*
X124341072Y-92095000D01*
X124341072Y-91801000D01*
X124455000Y-91801000D01*
X124455000Y-91821000D01*
X125129250Y-91821000D01*
X125288000Y-91662250D01*
X125291072Y-91168000D01*
X125278812Y-91043518D01*
X125242502Y-90923820D01*
X125183537Y-90813506D01*
X125104185Y-90716815D01*
X125007494Y-90637463D01*
X124933665Y-90598000D01*
X125007494Y-90558537D01*
X125104185Y-90479185D01*
X125183537Y-90382494D01*
X125242502Y-90272180D01*
X125278812Y-90152482D01*
X125291072Y-90028000D01*
X125291072Y-88588057D01*
X125380243Y-88570320D01*
X125558210Y-88496604D01*
X125718375Y-88389585D01*
X125854585Y-88253375D01*
X125961604Y-88093210D01*
X126035320Y-87915243D01*
X126066796Y-87757000D01*
X126962575Y-87757000D01*
X127000000Y-87760686D01*
X127037426Y-87757000D01*
X132008370Y-87757000D01*
X132105186Y-87853816D01*
X132023820Y-87878498D01*
X131913506Y-87937463D01*
X131816815Y-88016815D01*
X131737463Y-88113506D01*
X131678498Y-88223820D01*
X131642188Y-88343518D01*
X131629928Y-88468000D01*
X131633000Y-88962250D01*
X131791750Y-89121000D01*
X132466000Y-89121000D01*
X132466000Y-89101000D01*
X132579928Y-89101000D01*
X132579928Y-89395000D01*
X132466000Y-89395000D01*
X132466000Y-89375000D01*
X131791750Y-89375000D01*
X131633000Y-89533750D01*
X131629928Y-90028000D01*
X131642188Y-90152482D01*
X131678498Y-90272180D01*
X131737463Y-90382494D01*
X131816815Y-90479185D01*
X131913506Y-90558537D01*
X131987335Y-90598000D01*
X131913506Y-90637463D01*
X131816815Y-90716815D01*
X131737463Y-90813506D01*
X131678498Y-90923820D01*
X131642188Y-91043518D01*
X131629928Y-91168000D01*
X131629928Y-92728000D01*
X131642188Y-92852482D01*
X131678498Y-92972180D01*
X131737463Y-93082494D01*
X131816815Y-93179185D01*
X131831000Y-93190827D01*
X131831001Y-94104790D01*
X131769595Y-94179613D01*
X131687528Y-94333149D01*
X131636992Y-94499745D01*
X131619928Y-94672999D01*
X131619928Y-95573001D01*
X131636992Y-95746255D01*
X131687528Y-95912851D01*
X131769595Y-96066387D01*
X131880038Y-96200962D01*
X132014613Y-96311405D01*
X132168149Y-96393472D01*
X132334745Y-96444008D01*
X132507999Y-96461072D01*
X133158001Y-96461072D01*
X133331255Y-96444008D01*
X133497851Y-96393472D01*
X133651387Y-96311405D01*
X133785962Y-96200962D01*
X133858000Y-96113184D01*
X133930038Y-96200962D01*
X134064613Y-96311405D01*
X134218149Y-96393472D01*
X134384745Y-96444008D01*
X134557999Y-96461072D01*
X135208001Y-96461072D01*
X135381255Y-96444008D01*
X135547851Y-96393472D01*
X135701387Y-96311405D01*
X135835962Y-96200962D01*
X135946405Y-96066387D01*
X136028472Y-95912851D01*
X136036920Y-95885000D01*
X136369080Y-95885000D01*
X136377528Y-95912851D01*
X136459595Y-96066387D01*
X136570038Y-96200962D01*
X136704613Y-96311405D01*
X136858149Y-96393472D01*
X137024745Y-96444008D01*
X137197999Y-96461072D01*
X137848001Y-96461072D01*
X138021255Y-96444008D01*
X138187851Y-96393472D01*
X138341387Y-96311405D01*
X138475962Y-96200962D01*
X138548000Y-96113184D01*
X138620038Y-96200962D01*
X138754613Y-96311405D01*
X138908149Y-96393472D01*
X139074745Y-96444008D01*
X139247999Y-96461072D01*
X139898001Y-96461072D01*
X140071255Y-96444008D01*
X140237851Y-96393472D01*
X140391387Y-96311405D01*
X140525962Y-96200962D01*
X140636405Y-96066387D01*
X140648000Y-96044694D01*
X140659595Y-96066387D01*
X140770038Y-96200962D01*
X140904613Y-96311405D01*
X141058149Y-96393472D01*
X141224745Y-96444008D01*
X141397999Y-96461072D01*
X142048001Y-96461072D01*
X142221255Y-96444008D01*
X142387851Y-96393472D01*
X142541387Y-96311405D01*
X142675962Y-96200962D01*
X142748000Y-96113184D01*
X142820038Y-96200962D01*
X142954613Y-96311405D01*
X143108149Y-96393472D01*
X143169413Y-96412056D01*
X143167100Y-96423685D01*
X143167100Y-96616315D01*
X143204680Y-96805243D01*
X143278396Y-96983210D01*
X143385415Y-97143375D01*
X143521625Y-97279585D01*
X143681790Y-97386604D01*
X143859757Y-97460320D01*
X144048685Y-97497900D01*
X144241315Y-97497900D01*
X144430243Y-97460320D01*
X144608210Y-97386604D01*
X144768375Y-97279585D01*
X144904585Y-97143375D01*
X145011604Y-96983210D01*
X145085320Y-96805243D01*
X145122900Y-96616315D01*
X145122900Y-96423685D01*
X145085320Y-96234757D01*
X145011604Y-96056790D01*
X144917119Y-95915383D01*
X144918472Y-95912851D01*
X144969008Y-95746255D01*
X144986072Y-95573001D01*
X144986072Y-94672999D01*
X144969008Y-94499745D01*
X144918472Y-94333149D01*
X144836405Y-94179613D01*
X144725962Y-94045038D01*
X144591387Y-93934595D01*
X144437851Y-93852528D01*
X144271255Y-93801992D01*
X144098001Y-93784928D01*
X143447999Y-93784928D01*
X143274745Y-93801992D01*
X143108149Y-93852528D01*
X142954613Y-93934595D01*
X142820038Y-94045038D01*
X142748000Y-94132816D01*
X142675962Y-94045038D01*
X142541387Y-93934595D01*
X142387851Y-93852528D01*
X142221255Y-93801992D01*
X142048001Y-93784928D01*
X141397999Y-93784928D01*
X141224745Y-93801992D01*
X141058149Y-93852528D01*
X140904613Y-93934595D01*
X140770038Y-94045038D01*
X140659595Y-94179613D01*
X140648000Y-94201306D01*
X140636405Y-94179613D01*
X140525962Y-94045038D01*
X140391387Y-93934595D01*
X140237851Y-93852528D01*
X140071255Y-93801992D01*
X139898001Y-93784928D01*
X139247999Y-93784928D01*
X139074745Y-93801992D01*
X138955845Y-93838060D01*
X138989320Y-93757243D01*
X139026900Y-93568315D01*
X139026900Y-93375685D01*
X138989320Y-93186757D01*
X138915604Y-93008790D01*
X138808585Y-92848625D01*
X138672375Y-92712415D01*
X138512210Y-92605396D01*
X138334243Y-92531680D01*
X138145315Y-92494100D01*
X137952685Y-92494100D01*
X137763757Y-92531680D01*
X137585790Y-92605396D01*
X137425625Y-92712415D01*
X137289415Y-92848625D01*
X137182396Y-93008790D01*
X137108680Y-93186757D01*
X137071948Y-93371422D01*
X137010649Y-93432721D01*
X136981579Y-93456578D01*
X136957722Y-93485648D01*
X136957721Y-93485649D01*
X136886355Y-93572608D01*
X136815599Y-93704985D01*
X136772027Y-93848622D01*
X136766835Y-93901337D01*
X136704613Y-93934595D01*
X136570038Y-94045038D01*
X136459595Y-94179613D01*
X136377528Y-94333149D01*
X136369080Y-94361000D01*
X136036920Y-94361000D01*
X136028472Y-94333149D01*
X135946405Y-94179613D01*
X135835962Y-94045038D01*
X135701387Y-93934595D01*
X135547851Y-93852528D01*
X135381255Y-93801992D01*
X135208001Y-93784928D01*
X134557999Y-93784928D01*
X134384745Y-93801992D01*
X134370014Y-93806461D01*
X134409604Y-93747210D01*
X134483320Y-93569243D01*
X134520900Y-93380315D01*
X134520900Y-93363000D01*
X134620002Y-93363000D01*
X134620002Y-93204252D01*
X134778750Y-93363000D01*
X134818000Y-93366072D01*
X134942482Y-93353812D01*
X135062180Y-93317502D01*
X135172494Y-93258537D01*
X135269185Y-93179185D01*
X135348537Y-93082494D01*
X135407502Y-92972180D01*
X135443812Y-92852482D01*
X135456072Y-92728000D01*
X135453000Y-92233750D01*
X135294250Y-92075000D01*
X134620000Y-92075000D01*
X134620000Y-92095000D01*
X134506072Y-92095000D01*
X134506072Y-91801000D01*
X134620000Y-91801000D01*
X134620000Y-91821000D01*
X135294250Y-91821000D01*
X135453000Y-91662250D01*
X135456072Y-91168000D01*
X135443812Y-91043518D01*
X135407502Y-90923820D01*
X135348537Y-90813506D01*
X135269185Y-90716815D01*
X135172494Y-90637463D01*
X135098665Y-90598000D01*
X135172494Y-90558537D01*
X135269185Y-90479185D01*
X135348537Y-90382494D01*
X135407502Y-90272180D01*
X135443812Y-90152482D01*
X135456072Y-90028000D01*
X135456072Y-88468000D01*
X135443812Y-88343518D01*
X135407502Y-88223820D01*
X135348537Y-88113506D01*
X135269185Y-88016815D01*
X135244778Y-87996784D01*
X135243974Y-87988626D01*
X135200402Y-87844989D01*
X135129645Y-87712612D01*
X135034422Y-87596582D01*
X135005346Y-87572720D01*
X134962052Y-87529426D01*
X134925320Y-87344761D01*
X134851604Y-87166794D01*
X134744585Y-87006629D01*
X134608375Y-86870419D01*
X134448210Y-86763400D01*
X134270243Y-86689684D01*
X134081315Y-86652104D01*
X133888685Y-86652104D01*
X133699757Y-86689684D01*
X133521790Y-86763400D01*
X133361625Y-86870419D01*
X133319337Y-86912707D01*
X132889284Y-86482654D01*
X132865422Y-86453578D01*
X132749392Y-86358355D01*
X132617015Y-86287598D01*
X132568329Y-86272829D01*
X132741727Y-86201005D01*
X132970535Y-86048120D01*
X133165120Y-85853535D01*
X133318005Y-85624727D01*
X133350000Y-85547485D01*
X133381995Y-85624727D01*
X133534880Y-85853535D01*
X133729465Y-86048120D01*
X133958273Y-86201005D01*
X134212510Y-86306314D01*
X134482408Y-86360000D01*
X134757592Y-86360000D01*
X135027490Y-86306314D01*
X135281727Y-86201005D01*
X135510535Y-86048120D01*
X135705120Y-85853535D01*
X135858005Y-85624727D01*
X135890000Y-85547485D01*
X135921995Y-85624727D01*
X136074880Y-85853535D01*
X136269465Y-86048120D01*
X136498273Y-86201005D01*
X136752510Y-86306314D01*
X137022408Y-86360000D01*
X137297592Y-86360000D01*
X137567490Y-86306314D01*
X137821727Y-86201005D01*
X138050535Y-86048120D01*
X138170090Y-85928565D01*
X138914040Y-85928565D01*
X138981020Y-86168656D01*
X139230048Y-86285756D01*
X139497135Y-86352023D01*
X139772017Y-86364910D01*
X140044133Y-86323922D01*
X140303023Y-86230636D01*
X140418980Y-86168656D01*
X140485960Y-85928565D01*
X139700000Y-85142605D01*
X138914040Y-85928565D01*
X138170090Y-85928565D01*
X138245120Y-85853535D01*
X138398005Y-85624727D01*
X138427692Y-85553057D01*
X138432364Y-85566023D01*
X138494344Y-85681980D01*
X138734435Y-85748960D01*
X139520395Y-84963000D01*
X138734435Y-84177040D01*
X138494344Y-84244020D01*
X138430515Y-84379760D01*
X138398005Y-84301273D01*
X138245120Y-84072465D01*
X138170090Y-83997435D01*
X138914040Y-83997435D01*
X139700000Y-84783395D01*
X140485960Y-83997435D01*
X140418980Y-83757344D01*
X140169952Y-83640244D01*
X139902865Y-83573977D01*
X139627983Y-83561090D01*
X139355867Y-83602078D01*
X139096977Y-83695364D01*
X138981020Y-83757344D01*
X138914040Y-83997435D01*
X138170090Y-83997435D01*
X138050535Y-83877880D01*
X137821727Y-83724995D01*
X137567490Y-83619686D01*
X137297592Y-83566000D01*
X137022408Y-83566000D01*
X136752510Y-83619686D01*
X136498273Y-83724995D01*
X136269465Y-83877880D01*
X136074880Y-84072465D01*
X135921995Y-84301273D01*
X135890000Y-84378515D01*
X135858005Y-84301273D01*
X135705120Y-84072465D01*
X135510535Y-83877880D01*
X135281727Y-83724995D01*
X135027490Y-83619686D01*
X134757592Y-83566000D01*
X134482408Y-83566000D01*
X134212510Y-83619686D01*
X133958273Y-83724995D01*
X133729465Y-83877880D01*
X133534880Y-84072465D01*
X133381995Y-84301273D01*
X133350000Y-84378515D01*
X133318005Y-84301273D01*
X133165120Y-84072465D01*
X132970535Y-83877880D01*
X132741727Y-83724995D01*
X132487490Y-83619686D01*
X132217592Y-83566000D01*
X131942408Y-83566000D01*
X131672510Y-83619686D01*
X131418273Y-83724995D01*
X131189465Y-83877880D01*
X130994880Y-84072465D01*
X130841995Y-84301273D01*
X130810000Y-84378515D01*
X130778005Y-84301273D01*
X130625120Y-84072465D01*
X130430535Y-83877880D01*
X130201727Y-83724995D01*
X129947490Y-83619686D01*
X129677592Y-83566000D01*
X129402408Y-83566000D01*
X129132510Y-83619686D01*
X128878273Y-83724995D01*
X128649465Y-83877880D01*
X128454880Y-84072465D01*
X128301995Y-84301273D01*
X128270000Y-84378515D01*
X128238005Y-84301273D01*
X128085120Y-84072465D01*
X127890535Y-83877880D01*
X127661727Y-83724995D01*
X127407490Y-83619686D01*
X127137592Y-83566000D01*
X126862408Y-83566000D01*
X126592510Y-83619686D01*
X126338273Y-83724995D01*
X126109465Y-83877880D01*
X125914880Y-84072465D01*
X125761995Y-84301273D01*
X125730000Y-84378515D01*
X125698005Y-84301273D01*
X125545120Y-84072465D01*
X125350535Y-83877880D01*
X125121727Y-83724995D01*
X124867490Y-83619686D01*
X124597592Y-83566000D01*
X124322408Y-83566000D01*
X124052510Y-83619686D01*
X123798273Y-83724995D01*
X123569465Y-83877880D01*
X123374880Y-84072465D01*
X123221995Y-84301273D01*
X123190000Y-84378515D01*
X123158005Y-84301273D01*
X123005120Y-84072465D01*
X122810535Y-83877880D01*
X122581727Y-83724995D01*
X122327490Y-83619686D01*
X122057592Y-83566000D01*
X121782408Y-83566000D01*
X121512510Y-83619686D01*
X121258273Y-83724995D01*
X121029465Y-83877880D01*
X120834880Y-84072465D01*
X120681995Y-84301273D01*
X120650000Y-84378515D01*
X120618005Y-84301273D01*
X120465120Y-84072465D01*
X120270535Y-83877880D01*
X120041727Y-83724995D01*
X119787490Y-83619686D01*
X119517592Y-83566000D01*
X119314630Y-83566000D01*
X122108631Y-80772000D01*
X129901080Y-80772000D01*
X129909528Y-80799851D01*
X129991595Y-80953387D01*
X130102038Y-81087962D01*
X130236613Y-81198405D01*
X130390149Y-81280472D01*
X130556745Y-81331008D01*
X130602926Y-81335556D01*
X131313720Y-82046351D01*
X131337578Y-82075422D01*
X131366648Y-82099279D01*
X131453607Y-82170645D01*
X131524364Y-82208465D01*
X131585985Y-82241402D01*
X131729622Y-82284974D01*
X131841574Y-82296000D01*
X131841577Y-82296000D01*
X131879000Y-82299686D01*
X131916423Y-82296000D01*
X136671461Y-82296000D01*
X136724171Y-82339258D01*
X136860418Y-82412084D01*
X137008255Y-82456929D01*
X137162000Y-82472072D01*
X138812000Y-82472072D01*
X138965745Y-82456929D01*
X139113582Y-82412084D01*
X139249829Y-82339258D01*
X139369251Y-82241251D01*
X139467258Y-82121829D01*
X139540084Y-81985582D01*
X139584929Y-81837745D01*
X139600072Y-81684000D01*
X139600072Y-81384000D01*
X139584929Y-81230255D01*
X139540084Y-81082418D01*
X139467258Y-80946171D01*
X139428546Y-80899000D01*
X139467258Y-80851829D01*
X139540084Y-80715582D01*
X139584929Y-80567745D01*
X139600072Y-80414000D01*
X139600072Y-80114000D01*
X139584929Y-79960255D01*
X139540084Y-79812418D01*
X139467258Y-79676171D01*
X139428546Y-79629000D01*
X139467258Y-79581829D01*
X139540084Y-79445582D01*
X139584929Y-79297745D01*
X139600072Y-79144000D01*
X139600072Y-78844000D01*
X139584929Y-78690255D01*
X139540084Y-78542418D01*
X139467258Y-78406171D01*
X139428546Y-78359000D01*
X139467258Y-78311829D01*
X139540084Y-78175582D01*
X139584929Y-78027745D01*
X139600072Y-77874000D01*
X139600072Y-77574000D01*
X139584929Y-77420255D01*
X139540084Y-77272418D01*
X139508602Y-77213520D01*
X139595378Y-77204974D01*
X139739015Y-77161402D01*
X139871392Y-77090645D01*
X139987422Y-76995422D01*
X140011284Y-76966346D01*
X141324578Y-75653052D01*
X141386654Y-75640704D01*
X141456742Y-75771829D01*
G37*
X141456742Y-75771829D02*
X141495454Y-75819000D01*
X141456742Y-75866171D01*
X141383916Y-76002418D01*
X141339071Y-76150255D01*
X141323928Y-76304000D01*
X141323928Y-76604000D01*
X141339071Y-76757745D01*
X141383916Y-76905582D01*
X141455730Y-77039936D01*
X141431463Y-77069506D01*
X141372498Y-77179820D01*
X141336188Y-77299518D01*
X141323928Y-77424000D01*
X141327000Y-77438250D01*
X141485750Y-77597000D01*
X142810000Y-77597000D01*
X142810000Y-77577000D01*
X143064000Y-77577000D01*
X143064000Y-77597000D01*
X143084000Y-77597000D01*
X143084000Y-77851000D01*
X143064000Y-77851000D01*
X143064000Y-77871000D01*
X142810000Y-77871000D01*
X142810000Y-77851000D01*
X141485750Y-77851000D01*
X141327000Y-78009750D01*
X141323928Y-78024000D01*
X141336188Y-78148482D01*
X141372498Y-78268180D01*
X141431463Y-78378494D01*
X141455730Y-78408064D01*
X141383916Y-78542418D01*
X141339071Y-78690255D01*
X141325191Y-78831179D01*
X140941643Y-79214726D01*
X140912568Y-79238588D01*
X140872825Y-79287016D01*
X140817345Y-79354618D01*
X140807330Y-79373355D01*
X140746588Y-79486996D01*
X140703016Y-79630633D01*
X140691990Y-79742584D01*
X140688304Y-79780010D01*
X140691990Y-79817433D01*
X140691991Y-82361557D01*
X140688304Y-82398990D01*
X140703017Y-82548368D01*
X140746589Y-82692005D01*
X140817345Y-82824382D01*
X140888711Y-82911341D01*
X140912569Y-82940412D01*
X140941639Y-82964269D01*
X141666019Y-83688649D01*
X141578273Y-83724995D01*
X141349465Y-83877880D01*
X141154880Y-84072465D01*
X141001995Y-84301273D01*
X140972308Y-84372943D01*
X140967636Y-84359977D01*
X140905656Y-84244020D01*
X140665565Y-84177040D01*
X139879605Y-84963000D01*
X140665565Y-85748960D01*
X140905656Y-85681980D01*
X140969485Y-85546240D01*
X141001995Y-85624727D01*
X141154880Y-85853535D01*
X141349465Y-86048120D01*
X141578273Y-86201005D01*
X141832510Y-86306314D01*
X142102408Y-86360000D01*
X142377592Y-86360000D01*
X142621000Y-86311583D01*
X142621001Y-88534238D01*
X142516396Y-88690790D01*
X142442680Y-88868757D01*
X142405100Y-89057685D01*
X142405100Y-89250315D01*
X142442680Y-89439243D01*
X142516396Y-89617210D01*
X142623415Y-89777375D01*
X142759625Y-89913585D01*
X142919790Y-90020604D01*
X143097757Y-90094320D01*
X143286685Y-90131900D01*
X143479315Y-90131900D01*
X143668243Y-90094320D01*
X143846210Y-90020604D01*
X144006375Y-89913585D01*
X144142585Y-89777375D01*
X144249604Y-89617210D01*
X144323320Y-89439243D01*
X144360900Y-89250315D01*
X144360900Y-89057685D01*
X144323320Y-88868757D01*
X144249604Y-88690790D01*
X144145000Y-88534239D01*
X144145000Y-86212076D01*
X144372510Y-86306314D01*
X144642408Y-86360000D01*
X144917592Y-86360000D01*
X145187490Y-86306314D01*
X145441727Y-86201005D01*
X145670535Y-86048120D01*
X145865120Y-85853535D01*
X146018005Y-85624727D01*
X146025001Y-85607838D01*
X146025001Y-99558162D01*
X146018005Y-99541273D01*
X145865120Y-99312465D01*
X145670535Y-99117880D01*
X145441727Y-98964995D01*
X145187490Y-98859686D01*
X144917592Y-98806000D01*
X144642408Y-98806000D01*
X144372510Y-98859686D01*
X144118273Y-98964995D01*
X143889465Y-99117880D01*
X143694880Y-99312465D01*
X143541995Y-99541273D01*
X143510000Y-99618515D01*
X143478005Y-99541273D01*
X143325120Y-99312465D01*
X143130535Y-99117880D01*
X142901727Y-98964995D01*
X142647490Y-98859686D01*
X142377592Y-98806000D01*
X142102408Y-98806000D01*
X141832510Y-98859686D01*
X141578273Y-98964995D01*
X141349465Y-99117880D01*
X141154880Y-99312465D01*
X141001995Y-99541273D01*
X140970000Y-99618515D01*
X140938005Y-99541273D01*
X140785120Y-99312465D01*
X140590535Y-99117880D01*
X140361727Y-98964995D01*
X140107490Y-98859686D01*
X139837592Y-98806000D01*
X139562408Y-98806000D01*
X139292510Y-98859686D01*
X139038273Y-98964995D01*
X138809465Y-99117880D01*
X138614880Y-99312465D01*
X138461995Y-99541273D01*
X138430000Y-99618515D01*
X138398005Y-99541273D01*
X138245120Y-99312465D01*
X138050535Y-99117880D01*
X137821727Y-98964995D01*
X137567490Y-98859686D01*
X137297592Y-98806000D01*
X137022408Y-98806000D01*
X136752510Y-98859686D01*
X136498273Y-98964995D01*
X136269465Y-99117880D01*
X136074880Y-99312465D01*
X135921995Y-99541273D01*
X135890000Y-99618515D01*
X135858005Y-99541273D01*
X135705120Y-99312465D01*
X135510535Y-99117880D01*
X135281727Y-98964995D01*
X135027490Y-98859686D01*
X134757592Y-98806000D01*
X134482408Y-98806000D01*
X134212510Y-98859686D01*
X133958273Y-98964995D01*
X133729465Y-99117880D01*
X133534880Y-99312465D01*
X133381995Y-99541273D01*
X133350000Y-99618515D01*
X133318005Y-99541273D01*
X133165120Y-99312465D01*
X132970535Y-99117880D01*
X132741727Y-98964995D01*
X132487490Y-98859686D01*
X132217592Y-98806000D01*
X131942408Y-98806000D01*
X131672510Y-98859686D01*
X131418273Y-98964995D01*
X131189465Y-99117880D01*
X130994880Y-99312465D01*
X130841995Y-99541273D01*
X130810000Y-99618515D01*
X130778005Y-99541273D01*
X130625120Y-99312465D01*
X130430535Y-99117880D01*
X130201727Y-98964995D01*
X129947490Y-98859686D01*
X129677592Y-98806000D01*
X129402408Y-98806000D01*
X129132510Y-98859686D01*
X128878273Y-98964995D01*
X128649465Y-99117880D01*
X128454880Y-99312465D01*
X128301995Y-99541273D01*
X128270000Y-99618515D01*
X128238005Y-99541273D01*
X128085120Y-99312465D01*
X127890535Y-99117880D01*
X127661727Y-98964995D01*
X127407490Y-98859686D01*
X127137592Y-98806000D01*
X126862408Y-98806000D01*
X126592510Y-98859686D01*
X126338273Y-98964995D01*
X126109465Y-99117880D01*
X125914880Y-99312465D01*
X125761995Y-99541273D01*
X125730000Y-99618515D01*
X125698005Y-99541273D01*
X125545120Y-99312465D01*
X125350535Y-99117880D01*
X125121727Y-98964995D01*
X124867490Y-98859686D01*
X124597592Y-98806000D01*
X124322408Y-98806000D01*
X124052510Y-98859686D01*
X123798273Y-98964995D01*
X123569465Y-99117880D01*
X123374880Y-99312465D01*
X123221995Y-99541273D01*
X123190000Y-99618515D01*
X123158005Y-99541273D01*
X123005120Y-99312465D01*
X122810535Y-99117880D01*
X122581727Y-98964995D01*
X122327490Y-98859686D01*
X122057592Y-98806000D01*
X121782408Y-98806000D01*
X121512510Y-98859686D01*
X121258273Y-98964995D01*
X121029465Y-99117880D01*
X120834880Y-99312465D01*
X120681995Y-99541273D01*
X120650000Y-99618515D01*
X120618005Y-99541273D01*
X120465120Y-99312465D01*
X120270535Y-99117880D01*
X120041727Y-98964995D01*
X119787490Y-98859686D01*
X119517592Y-98806000D01*
X119242408Y-98806000D01*
X118972510Y-98859686D01*
X118718273Y-98964995D01*
X118489465Y-99117880D01*
X118294880Y-99312465D01*
X118141995Y-99541273D01*
X118110000Y-99618515D01*
X118078005Y-99541273D01*
X117925120Y-99312465D01*
X117730535Y-99117880D01*
X117501727Y-98964995D01*
X117247490Y-98859686D01*
X116977592Y-98806000D01*
X116702408Y-98806000D01*
X116432510Y-98859686D01*
X116178273Y-98964995D01*
X115949465Y-99117880D01*
X115754880Y-99312465D01*
X115601995Y-99541273D01*
X115570000Y-99618515D01*
X115538005Y-99541273D01*
X115385120Y-99312465D01*
X115190535Y-99117880D01*
X114961727Y-98964995D01*
X114707490Y-98859686D01*
X114437592Y-98806000D01*
X114162408Y-98806000D01*
X113892510Y-98859686D01*
X113638273Y-98964995D01*
X113409465Y-99117880D01*
X113214880Y-99312465D01*
X113061995Y-99541273D01*
X113030000Y-99618515D01*
X112998005Y-99541273D01*
X112845120Y-99312465D01*
X112650535Y-99117880D01*
X112421727Y-98964995D01*
X112344485Y-98933000D01*
X112421727Y-98901005D01*
X112650535Y-98748120D01*
X112845120Y-98553535D01*
X112998005Y-98324727D01*
X113103314Y-98070490D01*
X113157000Y-97800592D01*
X113157000Y-97525408D01*
X113103314Y-97255510D01*
X112998005Y-97001273D01*
X112845120Y-96772465D01*
X112650535Y-96577880D01*
X112421727Y-96424995D01*
X112350057Y-96395308D01*
X112363023Y-96390636D01*
X112478980Y-96328656D01*
X112545960Y-96088565D01*
X111760000Y-95302605D01*
X110974040Y-96088565D01*
X111041020Y-96328656D01*
X111176760Y-96392485D01*
X111098273Y-96424995D01*
X110869465Y-96577880D01*
X110674880Y-96772465D01*
X110521995Y-97001273D01*
X110515000Y-97018160D01*
X110515000Y-95768372D01*
X110554344Y-95841980D01*
X110794435Y-95908960D01*
X111580395Y-95123000D01*
X111939605Y-95123000D01*
X112725565Y-95908960D01*
X112965656Y-95841980D01*
X113082756Y-95592952D01*
X113149023Y-95325865D01*
X113161910Y-95050983D01*
X113120922Y-94778867D01*
X113027636Y-94519977D01*
X112965656Y-94404020D01*
X112725565Y-94337040D01*
X111939605Y-95123000D01*
X111580395Y-95123000D01*
X110794435Y-94337040D01*
X110554344Y-94404020D01*
X110515000Y-94487690D01*
X110515000Y-93227840D01*
X110521995Y-93244727D01*
X110674880Y-93473535D01*
X110869465Y-93668120D01*
X111098273Y-93821005D01*
X111169943Y-93850692D01*
X111156977Y-93855364D01*
X111041020Y-93917344D01*
X110974040Y-94157435D01*
X111760000Y-94943395D01*
X112545960Y-94157435D01*
X112478980Y-93917344D01*
X112343240Y-93853515D01*
X112421727Y-93821005D01*
X112650535Y-93668120D01*
X112845120Y-93473535D01*
X112998005Y-93244727D01*
X113103314Y-92990490D01*
X113157000Y-92720592D01*
X113157000Y-92445408D01*
X113103314Y-92175510D01*
X112998005Y-91921273D01*
X112845120Y-91692465D01*
X112650535Y-91497880D01*
X112421727Y-91344995D01*
X112344485Y-91313000D01*
X112421727Y-91281005D01*
X112650535Y-91128120D01*
X112845120Y-90933535D01*
X112998005Y-90704727D01*
X113103314Y-90450490D01*
X113157000Y-90180592D01*
X113157000Y-89905408D01*
X113103314Y-89635510D01*
X112998005Y-89381273D01*
X112845120Y-89152465D01*
X112650535Y-88957880D01*
X112421727Y-88804995D01*
X112344485Y-88773000D01*
X112421727Y-88741005D01*
X112650535Y-88588120D01*
X112845120Y-88393535D01*
X112998005Y-88164727D01*
X113103314Y-87910490D01*
X113157000Y-87640592D01*
X113157000Y-87365408D01*
X113103314Y-87095510D01*
X112998005Y-86841273D01*
X112845120Y-86612465D01*
X112650535Y-86417880D01*
X112421727Y-86264995D01*
X112344485Y-86233000D01*
X112421727Y-86201005D01*
X112650535Y-86048120D01*
X112845120Y-85853535D01*
X112998005Y-85624727D01*
X113030000Y-85547485D01*
X113061995Y-85624727D01*
X113214880Y-85853535D01*
X113409465Y-86048120D01*
X113638273Y-86201005D01*
X113892510Y-86306314D01*
X114162408Y-86360000D01*
X114437592Y-86360000D01*
X114707490Y-86306314D01*
X114961727Y-86201005D01*
X115190535Y-86048120D01*
X115385120Y-85853535D01*
X115538005Y-85624727D01*
X115570000Y-85547485D01*
X115601995Y-85624727D01*
X115754880Y-85853535D01*
X115949465Y-86048120D01*
X116178273Y-86201005D01*
X116432510Y-86306314D01*
X116702408Y-86360000D01*
X116977592Y-86360000D01*
X117247490Y-86306314D01*
X117501727Y-86201005D01*
X117730535Y-86048120D01*
X117925120Y-85853535D01*
X118078005Y-85624727D01*
X118110000Y-85547485D01*
X118141995Y-85624727D01*
X118294880Y-85853535D01*
X118489465Y-86048120D01*
X118718273Y-86201005D01*
X118972510Y-86306314D01*
X119242408Y-86360000D01*
X119517592Y-86360000D01*
X119787490Y-86306314D01*
X120041727Y-86201005D01*
X120270535Y-86048120D01*
X120465120Y-85853535D01*
X120618005Y-85624727D01*
X120650000Y-85547485D01*
X120681995Y-85624727D01*
X120834880Y-85853535D01*
X121029465Y-86048120D01*
X121258273Y-86201005D01*
X121512510Y-86306314D01*
X121782408Y-86360000D01*
X122057592Y-86360000D01*
X122327490Y-86306314D01*
X122581727Y-86201005D01*
X122810535Y-86048120D01*
X123005120Y-85853535D01*
X123158005Y-85624727D01*
X123190000Y-85547485D01*
X123221995Y-85624727D01*
X123374880Y-85853535D01*
X123569465Y-86048120D01*
X123798273Y-86201005D01*
X124052510Y-86306314D01*
X124210264Y-86337693D01*
X124171608Y-86358355D01*
X124055578Y-86453578D01*
X124031721Y-86482648D01*
X123310124Y-87204245D01*
X123294610Y-87166790D01*
X123187591Y-87006625D01*
X123051381Y-86870415D01*
X122891216Y-86763396D01*
X122713249Y-86689680D01*
X122524321Y-86652100D01*
X122331691Y-86652100D01*
X122142763Y-86689680D01*
X121964796Y-86763396D01*
X121804631Y-86870415D01*
X121668421Y-87006625D01*
X121561402Y-87166790D01*
X121487686Y-87344757D01*
X121450106Y-87533685D01*
X121450106Y-87726315D01*
X121487686Y-87915243D01*
X121561402Y-88093210D01*
X121573841Y-88111827D01*
X121572463Y-88113506D01*
X121513498Y-88223820D01*
X121477188Y-88343518D01*
X121464928Y-88468000D01*
X121464928Y-90028000D01*
X121477188Y-90152482D01*
X121513498Y-90272180D01*
X121572463Y-90382494D01*
X121651815Y-90479185D01*
X121748506Y-90558537D01*
X121822335Y-90598000D01*
X121748506Y-90637463D01*
X121651815Y-90716815D01*
X121572463Y-90813506D01*
X121513498Y-90923820D01*
X121477188Y-91043518D01*
X121464928Y-91168000D01*
X121464928Y-92728000D01*
X121477188Y-92852482D01*
X121513498Y-92972180D01*
X121572463Y-93082494D01*
X121651815Y-93179185D01*
X121666000Y-93190827D01*
X121666001Y-93325079D01*
X121638149Y-93333528D01*
X121484613Y-93415595D01*
X121350038Y-93526038D01*
X121239595Y-93660613D01*
X121157528Y-93814149D01*
X121106992Y-93980745D01*
X121089928Y-94153999D01*
X121089928Y-94804001D01*
X121106992Y-94977255D01*
X121157528Y-95143851D01*
X121239595Y-95297387D01*
X121350038Y-95431962D01*
X121437816Y-95504000D01*
X121350038Y-95576038D01*
X121239595Y-95710613D01*
X121157528Y-95864149D01*
X121106992Y-96030745D01*
X121089928Y-96203999D01*
X121089928Y-96854001D01*
X121106992Y-97027255D01*
X121157528Y-97193851D01*
X121239595Y-97347387D01*
X121350038Y-97481962D01*
X121484613Y-97592405D01*
X121638149Y-97674472D01*
X121804745Y-97725008D01*
X121977999Y-97742072D01*
X122878001Y-97742072D01*
X123051255Y-97725008D01*
X123217851Y-97674472D01*
X123371387Y-97592405D01*
X123505962Y-97481962D01*
X123616405Y-97347387D01*
X123696128Y-97198236D01*
X123697528Y-97202851D01*
X123779595Y-97356387D01*
X123890038Y-97490962D01*
X124024613Y-97601405D01*
X124124803Y-97654958D01*
X124117100Y-97693685D01*
X124117100Y-97886315D01*
X124154680Y-98075243D01*
X124228396Y-98253210D01*
X124335415Y-98413375D01*
X124471625Y-98549585D01*
X124631790Y-98656604D01*
X124809757Y-98730320D01*
X124998685Y-98767900D01*
X125191315Y-98767900D01*
X125380243Y-98730320D01*
X125558210Y-98656604D01*
X125718375Y-98549585D01*
X125854585Y-98413375D01*
X125961604Y-98253210D01*
X126035320Y-98075243D01*
X126072900Y-97886315D01*
X126072900Y-97693685D01*
X126035320Y-97504757D01*
X126033755Y-97500980D01*
X126045962Y-97490962D01*
X126156405Y-97356387D01*
X126238000Y-97203734D01*
X126319595Y-97356387D01*
X126430038Y-97490962D01*
X126564613Y-97601405D01*
X126664803Y-97654958D01*
X126657100Y-97693685D01*
X126657100Y-97886315D01*
X126694680Y-98075243D01*
X126768396Y-98253210D01*
X126875415Y-98413375D01*
X127011625Y-98549585D01*
X127171790Y-98656604D01*
X127349757Y-98730320D01*
X127538685Y-98767900D01*
X127731315Y-98767900D01*
X127920243Y-98730320D01*
X128098210Y-98656604D01*
X128258375Y-98549585D01*
X128394585Y-98413375D01*
X128501604Y-98253210D01*
X128575320Y-98075243D01*
X128612900Y-97886315D01*
X128612900Y-97693685D01*
X128575320Y-97504757D01*
X128573755Y-97500980D01*
X128585962Y-97490962D01*
X128696405Y-97356387D01*
X128778472Y-97202851D01*
X128829008Y-97036255D01*
X128846072Y-96863001D01*
X128846072Y-96212999D01*
X128829008Y-96039745D01*
X128778472Y-95873149D01*
X128696405Y-95719613D01*
X128585962Y-95585038D01*
X128498184Y-95513000D01*
X128585962Y-95440962D01*
X128696405Y-95306387D01*
X128778472Y-95152851D01*
X128829008Y-94986255D01*
X128846072Y-94813001D01*
X128846072Y-94162999D01*
X128829008Y-93989745D01*
X128778472Y-93823149D01*
X128721698Y-93716933D01*
X129513579Y-92925052D01*
X129698243Y-92888320D01*
X129876210Y-92814604D01*
X130036375Y-92707585D01*
X130172585Y-92571375D01*
X130279604Y-92411210D01*
X130353320Y-92233243D01*
X130390900Y-92044315D01*
X130390900Y-91851685D01*
X130353320Y-91662757D01*
X130279604Y-91484790D01*
X130172585Y-91324625D01*
X130036375Y-91188415D01*
X129876210Y-91081396D01*
X129698243Y-91007680D01*
X129509315Y-90970100D01*
X129316685Y-90970100D01*
X129127757Y-91007680D01*
X128949790Y-91081396D01*
X128789625Y-91188415D01*
X128653415Y-91324625D01*
X128546396Y-91484790D01*
X128472680Y-91662757D01*
X128435948Y-91847421D01*
X127003028Y-93280342D01*
X126884745Y-93291992D01*
X126718149Y-93342528D01*
X126564613Y-93424595D01*
X126430038Y-93535038D01*
X126319595Y-93669613D01*
X126289455Y-93726000D01*
X126186545Y-93726000D01*
X126156405Y-93669613D01*
X126045962Y-93535038D01*
X125911387Y-93424595D01*
X125757851Y-93342528D01*
X125591255Y-93291992D01*
X125418001Y-93274928D01*
X124976829Y-93274928D01*
X125007494Y-93258537D01*
X125104185Y-93179185D01*
X125183537Y-93082494D01*
X125242502Y-92972180D01*
X125278812Y-92852482D01*
X125291072Y-92728000D01*
X125288000Y-92233750D01*
X125129250Y-92075000D01*
X124455000Y-92075000D01*
X124455000Y-92095000D01*
X124341072Y-92095000D01*
X124341072Y-91801000D01*
X124455000Y-91801000D01*
X124455000Y-91821000D01*
X125129250Y-91821000D01*
X125288000Y-91662250D01*
X125291072Y-91168000D01*
X125278812Y-91043518D01*
X125242502Y-90923820D01*
X125183537Y-90813506D01*
X125104185Y-90716815D01*
X125007494Y-90637463D01*
X124933665Y-90598000D01*
X125007494Y-90558537D01*
X125104185Y-90479185D01*
X125183537Y-90382494D01*
X125242502Y-90272180D01*
X125278812Y-90152482D01*
X125291072Y-90028000D01*
X125291072Y-88588057D01*
X125380243Y-88570320D01*
X125558210Y-88496604D01*
X125718375Y-88389585D01*
X125854585Y-88253375D01*
X125961604Y-88093210D01*
X126035320Y-87915243D01*
X126066796Y-87757000D01*
X126962575Y-87757000D01*
X127000000Y-87760686D01*
X127037426Y-87757000D01*
X132008370Y-87757000D01*
X132105186Y-87853816D01*
X132023820Y-87878498D01*
X131913506Y-87937463D01*
X131816815Y-88016815D01*
X131737463Y-88113506D01*
X131678498Y-88223820D01*
X131642188Y-88343518D01*
X131629928Y-88468000D01*
X131633000Y-88962250D01*
X131791750Y-89121000D01*
X132466000Y-89121000D01*
X132466000Y-89101000D01*
X132579928Y-89101000D01*
X132579928Y-89395000D01*
X132466000Y-89395000D01*
X132466000Y-89375000D01*
X131791750Y-89375000D01*
X131633000Y-89533750D01*
X131629928Y-90028000D01*
X131642188Y-90152482D01*
X131678498Y-90272180D01*
X131737463Y-90382494D01*
X131816815Y-90479185D01*
X131913506Y-90558537D01*
X131987335Y-90598000D01*
X131913506Y-90637463D01*
X131816815Y-90716815D01*
X131737463Y-90813506D01*
X131678498Y-90923820D01*
X131642188Y-91043518D01*
X131629928Y-91168000D01*
X131629928Y-92728000D01*
X131642188Y-92852482D01*
X131678498Y-92972180D01*
X131737463Y-93082494D01*
X131816815Y-93179185D01*
X131831000Y-93190827D01*
X131831001Y-94104790D01*
X131769595Y-94179613D01*
X131687528Y-94333149D01*
X131636992Y-94499745D01*
X131619928Y-94672999D01*
X131619928Y-95573001D01*
X131636992Y-95746255D01*
X131687528Y-95912851D01*
X131769595Y-96066387D01*
X131880038Y-96200962D01*
X132014613Y-96311405D01*
X132168149Y-96393472D01*
X132334745Y-96444008D01*
X132507999Y-96461072D01*
X133158001Y-96461072D01*
X133331255Y-96444008D01*
X133497851Y-96393472D01*
X133651387Y-96311405D01*
X133785962Y-96200962D01*
X133858000Y-96113184D01*
X133930038Y-96200962D01*
X134064613Y-96311405D01*
X134218149Y-96393472D01*
X134384745Y-96444008D01*
X134557999Y-96461072D01*
X135208001Y-96461072D01*
X135381255Y-96444008D01*
X135547851Y-96393472D01*
X135701387Y-96311405D01*
X135835962Y-96200962D01*
X135946405Y-96066387D01*
X136028472Y-95912851D01*
X136036920Y-95885000D01*
X136369080Y-95885000D01*
X136377528Y-95912851D01*
X136459595Y-96066387D01*
X136570038Y-96200962D01*
X136704613Y-96311405D01*
X136858149Y-96393472D01*
X137024745Y-96444008D01*
X137197999Y-96461072D01*
X137848001Y-96461072D01*
X138021255Y-96444008D01*
X138187851Y-96393472D01*
X138341387Y-96311405D01*
X138475962Y-96200962D01*
X138548000Y-96113184D01*
X138620038Y-96200962D01*
X138754613Y-96311405D01*
X138908149Y-96393472D01*
X139074745Y-96444008D01*
X139247999Y-96461072D01*
X139898001Y-96461072D01*
X140071255Y-96444008D01*
X140237851Y-96393472D01*
X140391387Y-96311405D01*
X140525962Y-96200962D01*
X140636405Y-96066387D01*
X140648000Y-96044694D01*
X140659595Y-96066387D01*
X140770038Y-96200962D01*
X140904613Y-96311405D01*
X141058149Y-96393472D01*
X141224745Y-96444008D01*
X141397999Y-96461072D01*
X142048001Y-96461072D01*
X142221255Y-96444008D01*
X142387851Y-96393472D01*
X142541387Y-96311405D01*
X142675962Y-96200962D01*
X142748000Y-96113184D01*
X142820038Y-96200962D01*
X142954613Y-96311405D01*
X143108149Y-96393472D01*
X143169413Y-96412056D01*
X143167100Y-96423685D01*
X143167100Y-96616315D01*
X143204680Y-96805243D01*
X143278396Y-96983210D01*
X143385415Y-97143375D01*
X143521625Y-97279585D01*
X143681790Y-97386604D01*
X143859757Y-97460320D01*
X144048685Y-97497900D01*
X144241315Y-97497900D01*
X144430243Y-97460320D01*
X144608210Y-97386604D01*
X144768375Y-97279585D01*
X144904585Y-97143375D01*
X145011604Y-96983210D01*
X145085320Y-96805243D01*
X145122900Y-96616315D01*
X145122900Y-96423685D01*
X145085320Y-96234757D01*
X145011604Y-96056790D01*
X144917119Y-95915383D01*
X144918472Y-95912851D01*
X144969008Y-95746255D01*
X144986072Y-95573001D01*
X144986072Y-94672999D01*
X144969008Y-94499745D01*
X144918472Y-94333149D01*
X144836405Y-94179613D01*
X144725962Y-94045038D01*
X144591387Y-93934595D01*
X144437851Y-93852528D01*
X144271255Y-93801992D01*
X144098001Y-93784928D01*
X143447999Y-93784928D01*
X143274745Y-93801992D01*
X143108149Y-93852528D01*
X142954613Y-93934595D01*
X142820038Y-94045038D01*
X142748000Y-94132816D01*
X142675962Y-94045038D01*
X142541387Y-93934595D01*
X142387851Y-93852528D01*
X142221255Y-93801992D01*
X142048001Y-93784928D01*
X141397999Y-93784928D01*
X141224745Y-93801992D01*
X141058149Y-93852528D01*
X140904613Y-93934595D01*
X140770038Y-94045038D01*
X140659595Y-94179613D01*
X140648000Y-94201306D01*
X140636405Y-94179613D01*
X140525962Y-94045038D01*
X140391387Y-93934595D01*
X140237851Y-93852528D01*
X140071255Y-93801992D01*
X139898001Y-93784928D01*
X139247999Y-93784928D01*
X139074745Y-93801992D01*
X138955845Y-93838060D01*
X138989320Y-93757243D01*
X139026900Y-93568315D01*
X139026900Y-93375685D01*
X138989320Y-93186757D01*
X138915604Y-93008790D01*
X138808585Y-92848625D01*
X138672375Y-92712415D01*
X138512210Y-92605396D01*
X138334243Y-92531680D01*
X138145315Y-92494100D01*
X137952685Y-92494100D01*
X137763757Y-92531680D01*
X137585790Y-92605396D01*
X137425625Y-92712415D01*
X137289415Y-92848625D01*
X137182396Y-93008790D01*
X137108680Y-93186757D01*
X137071948Y-93371422D01*
X137010649Y-93432721D01*
X136981579Y-93456578D01*
X136957722Y-93485648D01*
X136957721Y-93485649D01*
X136886355Y-93572608D01*
X136815599Y-93704985D01*
X136772027Y-93848622D01*
X136766835Y-93901337D01*
X136704613Y-93934595D01*
X136570038Y-94045038D01*
X136459595Y-94179613D01*
X136377528Y-94333149D01*
X136369080Y-94361000D01*
X136036920Y-94361000D01*
X136028472Y-94333149D01*
X135946405Y-94179613D01*
X135835962Y-94045038D01*
X135701387Y-93934595D01*
X135547851Y-93852528D01*
X135381255Y-93801992D01*
X135208001Y-93784928D01*
X134557999Y-93784928D01*
X134384745Y-93801992D01*
X134370014Y-93806461D01*
X134409604Y-93747210D01*
X134483320Y-93569243D01*
X134520900Y-93380315D01*
X134520900Y-93363000D01*
X134620002Y-93363000D01*
X134620002Y-93204252D01*
X134778750Y-93363000D01*
X134818000Y-93366072D01*
X134942482Y-93353812D01*
X135062180Y-93317502D01*
X135172494Y-93258537D01*
X135269185Y-93179185D01*
X135348537Y-93082494D01*
X135407502Y-92972180D01*
X135443812Y-92852482D01*
X135456072Y-92728000D01*
X135453000Y-92233750D01*
X135294250Y-92075000D01*
X134620000Y-92075000D01*
X134620000Y-92095000D01*
X134506072Y-92095000D01*
X134506072Y-91801000D01*
X134620000Y-91801000D01*
X134620000Y-91821000D01*
X135294250Y-91821000D01*
X135453000Y-91662250D01*
X135456072Y-91168000D01*
X135443812Y-91043518D01*
X135407502Y-90923820D01*
X135348537Y-90813506D01*
X135269185Y-90716815D01*
X135172494Y-90637463D01*
X135098665Y-90598000D01*
X135172494Y-90558537D01*
X135269185Y-90479185D01*
X135348537Y-90382494D01*
X135407502Y-90272180D01*
X135443812Y-90152482D01*
X135456072Y-90028000D01*
X135456072Y-88468000D01*
X135443812Y-88343518D01*
X135407502Y-88223820D01*
X135348537Y-88113506D01*
X135269185Y-88016815D01*
X135244778Y-87996784D01*
X135243974Y-87988626D01*
X135200402Y-87844989D01*
X135129645Y-87712612D01*
X135034422Y-87596582D01*
X135005346Y-87572720D01*
X134962052Y-87529426D01*
X134925320Y-87344761D01*
X134851604Y-87166794D01*
X134744585Y-87006629D01*
X134608375Y-86870419D01*
X134448210Y-86763400D01*
X134270243Y-86689684D01*
X134081315Y-86652104D01*
X133888685Y-86652104D01*
X133699757Y-86689684D01*
X133521790Y-86763400D01*
X133361625Y-86870419D01*
X133319337Y-86912707D01*
X132889284Y-86482654D01*
X132865422Y-86453578D01*
X132749392Y-86358355D01*
X132617015Y-86287598D01*
X132568329Y-86272829D01*
X132741727Y-86201005D01*
X132970535Y-86048120D01*
X133165120Y-85853535D01*
X133318005Y-85624727D01*
X133350000Y-85547485D01*
X133381995Y-85624727D01*
X133534880Y-85853535D01*
X133729465Y-86048120D01*
X133958273Y-86201005D01*
X134212510Y-86306314D01*
X134482408Y-86360000D01*
X134757592Y-86360000D01*
X135027490Y-86306314D01*
X135281727Y-86201005D01*
X135510535Y-86048120D01*
X135705120Y-85853535D01*
X135858005Y-85624727D01*
X135890000Y-85547485D01*
X135921995Y-85624727D01*
X136074880Y-85853535D01*
X136269465Y-86048120D01*
X136498273Y-86201005D01*
X136752510Y-86306314D01*
X137022408Y-86360000D01*
X137297592Y-86360000D01*
X137567490Y-86306314D01*
X137821727Y-86201005D01*
X138050535Y-86048120D01*
X138170090Y-85928565D01*
X138914040Y-85928565D01*
X138981020Y-86168656D01*
X139230048Y-86285756D01*
X139497135Y-86352023D01*
X139772017Y-86364910D01*
X140044133Y-86323922D01*
X140303023Y-86230636D01*
X140418980Y-86168656D01*
X140485960Y-85928565D01*
X139700000Y-85142605D01*
X138914040Y-85928565D01*
X138170090Y-85928565D01*
X138245120Y-85853535D01*
X138398005Y-85624727D01*
X138427692Y-85553057D01*
X138432364Y-85566023D01*
X138494344Y-85681980D01*
X138734435Y-85748960D01*
X139520395Y-84963000D01*
X138734435Y-84177040D01*
X138494344Y-84244020D01*
X138430515Y-84379760D01*
X138398005Y-84301273D01*
X138245120Y-84072465D01*
X138170090Y-83997435D01*
X138914040Y-83997435D01*
X139700000Y-84783395D01*
X140485960Y-83997435D01*
X140418980Y-83757344D01*
X140169952Y-83640244D01*
X139902865Y-83573977D01*
X139627983Y-83561090D01*
X139355867Y-83602078D01*
X139096977Y-83695364D01*
X138981020Y-83757344D01*
X138914040Y-83997435D01*
X138170090Y-83997435D01*
X138050535Y-83877880D01*
X137821727Y-83724995D01*
X137567490Y-83619686D01*
X137297592Y-83566000D01*
X137022408Y-83566000D01*
X136752510Y-83619686D01*
X136498273Y-83724995D01*
X136269465Y-83877880D01*
X136074880Y-84072465D01*
X135921995Y-84301273D01*
X135890000Y-84378515D01*
X135858005Y-84301273D01*
X135705120Y-84072465D01*
X135510535Y-83877880D01*
X135281727Y-83724995D01*
X135027490Y-83619686D01*
X134757592Y-83566000D01*
X134482408Y-83566000D01*
X134212510Y-83619686D01*
X133958273Y-83724995D01*
X133729465Y-83877880D01*
X133534880Y-84072465D01*
X133381995Y-84301273D01*
X133350000Y-84378515D01*
X133318005Y-84301273D01*
X133165120Y-84072465D01*
X132970535Y-83877880D01*
X132741727Y-83724995D01*
X132487490Y-83619686D01*
X132217592Y-83566000D01*
X131942408Y-83566000D01*
X131672510Y-83619686D01*
X131418273Y-83724995D01*
X131189465Y-83877880D01*
X130994880Y-84072465D01*
X130841995Y-84301273D01*
X130810000Y-84378515D01*
X130778005Y-84301273D01*
X130625120Y-84072465D01*
X130430535Y-83877880D01*
X130201727Y-83724995D01*
X129947490Y-83619686D01*
X129677592Y-83566000D01*
X129402408Y-83566000D01*
X129132510Y-83619686D01*
X128878273Y-83724995D01*
X128649465Y-83877880D01*
X128454880Y-84072465D01*
X128301995Y-84301273D01*
X128270000Y-84378515D01*
X128238005Y-84301273D01*
X128085120Y-84072465D01*
X127890535Y-83877880D01*
X127661727Y-83724995D01*
X127407490Y-83619686D01*
X127137592Y-83566000D01*
X126862408Y-83566000D01*
X126592510Y-83619686D01*
X126338273Y-83724995D01*
X126109465Y-83877880D01*
X125914880Y-84072465D01*
X125761995Y-84301273D01*
X125730000Y-84378515D01*
X125698005Y-84301273D01*
X125545120Y-84072465D01*
X125350535Y-83877880D01*
X125121727Y-83724995D01*
X124867490Y-83619686D01*
X124597592Y-83566000D01*
X124322408Y-83566000D01*
X124052510Y-83619686D01*
X123798273Y-83724995D01*
X123569465Y-83877880D01*
X123374880Y-84072465D01*
X123221995Y-84301273D01*
X123190000Y-84378515D01*
X123158005Y-84301273D01*
X123005120Y-84072465D01*
X122810535Y-83877880D01*
X122581727Y-83724995D01*
X122327490Y-83619686D01*
X122057592Y-83566000D01*
X121782408Y-83566000D01*
X121512510Y-83619686D01*
X121258273Y-83724995D01*
X121029465Y-83877880D01*
X120834880Y-84072465D01*
X120681995Y-84301273D01*
X120650000Y-84378515D01*
X120618005Y-84301273D01*
X120465120Y-84072465D01*
X120270535Y-83877880D01*
X120041727Y-83724995D01*
X119787490Y-83619686D01*
X119517592Y-83566000D01*
X119314630Y-83566000D01*
X122108631Y-80772000D01*
X129901080Y-80772000D01*
X129909528Y-80799851D01*
X129991595Y-80953387D01*
X130102038Y-81087962D01*
X130236613Y-81198405D01*
X130390149Y-81280472D01*
X130556745Y-81331008D01*
X130602926Y-81335556D01*
X131313720Y-82046351D01*
X131337578Y-82075422D01*
X131366648Y-82099279D01*
X131453607Y-82170645D01*
X131524364Y-82208465D01*
X131585985Y-82241402D01*
X131729622Y-82284974D01*
X131841574Y-82296000D01*
X131841577Y-82296000D01*
X131879000Y-82299686D01*
X131916423Y-82296000D01*
X136671461Y-82296000D01*
X136724171Y-82339258D01*
X136860418Y-82412084D01*
X137008255Y-82456929D01*
X137162000Y-82472072D01*
X138812000Y-82472072D01*
X138965745Y-82456929D01*
X139113582Y-82412084D01*
X139249829Y-82339258D01*
X139369251Y-82241251D01*
X139467258Y-82121829D01*
X139540084Y-81985582D01*
X139584929Y-81837745D01*
X139600072Y-81684000D01*
X139600072Y-81384000D01*
X139584929Y-81230255D01*
X139540084Y-81082418D01*
X139467258Y-80946171D01*
X139428546Y-80899000D01*
X139467258Y-80851829D01*
X139540084Y-80715582D01*
X139584929Y-80567745D01*
X139600072Y-80414000D01*
X139600072Y-80114000D01*
X139584929Y-79960255D01*
X139540084Y-79812418D01*
X139467258Y-79676171D01*
X139428546Y-79629000D01*
X139467258Y-79581829D01*
X139540084Y-79445582D01*
X139584929Y-79297745D01*
X139600072Y-79144000D01*
X139600072Y-78844000D01*
X139584929Y-78690255D01*
X139540084Y-78542418D01*
X139467258Y-78406171D01*
X139428546Y-78359000D01*
X139467258Y-78311829D01*
X139540084Y-78175582D01*
X139584929Y-78027745D01*
X139600072Y-77874000D01*
X139600072Y-77574000D01*
X139584929Y-77420255D01*
X139540084Y-77272418D01*
X139508602Y-77213520D01*
X139595378Y-77204974D01*
X139739015Y-77161402D01*
X139871392Y-77090645D01*
X139987422Y-76995422D01*
X140011284Y-76966346D01*
X141324578Y-75653052D01*
X141386654Y-75640704D01*
X141456742Y-75771829D01*
M02*
