G04 #@! TF.GenerationSoftware,KiCad,Pcbnew,5.1.5*
G04 #@! TF.CreationDate,2020-04-23T21:43:41+02:00*
G04 #@! TF.ProjectId,teensy-load,7465656e-7379-42d6-9c6f-61642e6b6963,rev?*
G04 #@! TF.SameCoordinates,Original*
G04 #@! TF.FileFunction,Soldermask,Bot*
G04 #@! TF.FilePolarity,Negative*
%FSLAX46Y46*%
G04 Gerber Fmt 4.6, Leading zero omitted, Abs format (unit mm)*
G04 Created by KiCad (PCBNEW 5.1.5) date 2020-04-23 21:43:41*
%MOMM*%
%LPD*%
G04 APERTURE LIST*
%ADD10C,0.100000*%
G04 APERTURE END LIST*
D10*
G36*
X143327352Y-103918796D02*
G01*
X143609579Y-104035699D01*
X143863578Y-104205415D01*
X144079585Y-104421422D01*
X144249301Y-104675421D01*
X144366204Y-104957648D01*
X144425800Y-105257259D01*
X144425800Y-105562741D01*
X144366204Y-105862352D01*
X144249301Y-106144579D01*
X144079585Y-106398578D01*
X143863578Y-106614585D01*
X143609579Y-106784301D01*
X143327352Y-106901204D01*
X143027741Y-106960800D01*
X142722259Y-106960800D01*
X142422648Y-106901204D01*
X142140421Y-106784301D01*
X141886422Y-106614585D01*
X141670415Y-106398578D01*
X141500699Y-106144579D01*
X141383796Y-105862352D01*
X141324200Y-105562741D01*
X141324200Y-105257259D01*
X141383796Y-104957648D01*
X141500699Y-104675421D01*
X141670415Y-104421422D01*
X141886422Y-104205415D01*
X142140421Y-104035699D01*
X142422648Y-103918796D01*
X142722259Y-103859200D01*
X143027741Y-103859200D01*
X143327352Y-103918796D01*
G37*
G36*
X114117352Y-103918796D02*
G01*
X114399579Y-104035699D01*
X114653578Y-104205415D01*
X114869585Y-104421422D01*
X115039301Y-104675421D01*
X115156204Y-104957648D01*
X115215800Y-105257259D01*
X115215800Y-105562741D01*
X115156204Y-105862352D01*
X115039301Y-106144579D01*
X114869585Y-106398578D01*
X114653578Y-106614585D01*
X114399579Y-106784301D01*
X114117352Y-106901204D01*
X113817741Y-106960800D01*
X113512259Y-106960800D01*
X113212648Y-106901204D01*
X112930421Y-106784301D01*
X112676422Y-106614585D01*
X112460415Y-106398578D01*
X112290699Y-106144579D01*
X112173796Y-105862352D01*
X112114200Y-105562741D01*
X112114200Y-105257259D01*
X112173796Y-104957648D01*
X112290699Y-104675421D01*
X112460415Y-104421422D01*
X112676422Y-104205415D01*
X112930421Y-104035699D01*
X113212648Y-103918796D01*
X113512259Y-103859200D01*
X113817741Y-103859200D01*
X114117352Y-103918796D01*
G37*
G36*
X137397086Y-99421435D02*
G01*
X137545003Y-99482704D01*
X137678134Y-99571660D01*
X137791340Y-99684866D01*
X137880296Y-99817997D01*
X137941565Y-99965914D01*
X137972800Y-100122946D01*
X137972800Y-100283054D01*
X137941565Y-100440086D01*
X137880296Y-100588003D01*
X137791340Y-100721134D01*
X137678134Y-100834340D01*
X137545003Y-100923296D01*
X137397086Y-100984565D01*
X137240054Y-101015800D01*
X137079946Y-101015800D01*
X136922914Y-100984565D01*
X136774997Y-100923296D01*
X136641866Y-100834340D01*
X136528660Y-100721134D01*
X136439704Y-100588003D01*
X136378435Y-100440086D01*
X136347200Y-100283054D01*
X136347200Y-100122946D01*
X136378435Y-99965914D01*
X136439704Y-99817997D01*
X136528660Y-99684866D01*
X136641866Y-99571660D01*
X136774997Y-99482704D01*
X136922914Y-99421435D01*
X137079946Y-99390200D01*
X137240054Y-99390200D01*
X137397086Y-99421435D01*
G37*
G36*
X142477086Y-99421435D02*
G01*
X142625003Y-99482704D01*
X142758134Y-99571660D01*
X142871340Y-99684866D01*
X142960296Y-99817997D01*
X143021565Y-99965914D01*
X143052800Y-100122946D01*
X143052800Y-100283054D01*
X143021565Y-100440086D01*
X142960296Y-100588003D01*
X142871340Y-100721134D01*
X142758134Y-100834340D01*
X142625003Y-100923296D01*
X142477086Y-100984565D01*
X142320054Y-101015800D01*
X142159946Y-101015800D01*
X142002914Y-100984565D01*
X141854997Y-100923296D01*
X141721866Y-100834340D01*
X141608660Y-100721134D01*
X141519704Y-100588003D01*
X141458435Y-100440086D01*
X141427200Y-100283054D01*
X141427200Y-100122946D01*
X141458435Y-99965914D01*
X141519704Y-99817997D01*
X141608660Y-99684866D01*
X141721866Y-99571660D01*
X141854997Y-99482704D01*
X142002914Y-99421435D01*
X142159946Y-99390200D01*
X142320054Y-99390200D01*
X142477086Y-99421435D01*
G37*
G36*
X111997086Y-99421435D02*
G01*
X112145003Y-99482704D01*
X112278134Y-99571660D01*
X112391340Y-99684866D01*
X112480296Y-99817997D01*
X112541565Y-99965914D01*
X112572800Y-100122946D01*
X112572800Y-100283054D01*
X112541565Y-100440086D01*
X112480296Y-100588003D01*
X112391340Y-100721134D01*
X112278134Y-100834340D01*
X112145003Y-100923296D01*
X111997086Y-100984565D01*
X111840054Y-101015800D01*
X111679946Y-101015800D01*
X111522914Y-100984565D01*
X111374997Y-100923296D01*
X111241866Y-100834340D01*
X111128660Y-100721134D01*
X111039704Y-100588003D01*
X110978435Y-100440086D01*
X110947200Y-100283054D01*
X110947200Y-100122946D01*
X110978435Y-99965914D01*
X111039704Y-99817997D01*
X111128660Y-99684866D01*
X111241866Y-99571660D01*
X111374997Y-99482704D01*
X111522914Y-99421435D01*
X111679946Y-99390200D01*
X111840054Y-99390200D01*
X111997086Y-99421435D01*
G37*
G36*
X114537086Y-99421435D02*
G01*
X114685003Y-99482704D01*
X114818134Y-99571660D01*
X114931340Y-99684866D01*
X115020296Y-99817997D01*
X115081565Y-99965914D01*
X115112800Y-100122946D01*
X115112800Y-100283054D01*
X115081565Y-100440086D01*
X115020296Y-100588003D01*
X114931340Y-100721134D01*
X114818134Y-100834340D01*
X114685003Y-100923296D01*
X114537086Y-100984565D01*
X114380054Y-101015800D01*
X114219946Y-101015800D01*
X114062914Y-100984565D01*
X113914997Y-100923296D01*
X113781866Y-100834340D01*
X113668660Y-100721134D01*
X113579704Y-100588003D01*
X113518435Y-100440086D01*
X113487200Y-100283054D01*
X113487200Y-100122946D01*
X113518435Y-99965914D01*
X113579704Y-99817997D01*
X113668660Y-99684866D01*
X113781866Y-99571660D01*
X113914997Y-99482704D01*
X114062914Y-99421435D01*
X114219946Y-99390200D01*
X114380054Y-99390200D01*
X114537086Y-99421435D01*
G37*
G36*
X117077086Y-99421435D02*
G01*
X117225003Y-99482704D01*
X117358134Y-99571660D01*
X117471340Y-99684866D01*
X117560296Y-99817997D01*
X117621565Y-99965914D01*
X117652800Y-100122946D01*
X117652800Y-100283054D01*
X117621565Y-100440086D01*
X117560296Y-100588003D01*
X117471340Y-100721134D01*
X117358134Y-100834340D01*
X117225003Y-100923296D01*
X117077086Y-100984565D01*
X116920054Y-101015800D01*
X116759946Y-101015800D01*
X116602914Y-100984565D01*
X116454997Y-100923296D01*
X116321866Y-100834340D01*
X116208660Y-100721134D01*
X116119704Y-100588003D01*
X116058435Y-100440086D01*
X116027200Y-100283054D01*
X116027200Y-100122946D01*
X116058435Y-99965914D01*
X116119704Y-99817997D01*
X116208660Y-99684866D01*
X116321866Y-99571660D01*
X116454997Y-99482704D01*
X116602914Y-99421435D01*
X116759946Y-99390200D01*
X116920054Y-99390200D01*
X117077086Y-99421435D01*
G37*
G36*
X145017086Y-99421435D02*
G01*
X145165003Y-99482704D01*
X145298134Y-99571660D01*
X145411340Y-99684866D01*
X145500296Y-99817997D01*
X145561565Y-99965914D01*
X145592800Y-100122946D01*
X145592800Y-100283054D01*
X145561565Y-100440086D01*
X145500296Y-100588003D01*
X145411340Y-100721134D01*
X145298134Y-100834340D01*
X145165003Y-100923296D01*
X145017086Y-100984565D01*
X144860054Y-101015800D01*
X144699946Y-101015800D01*
X144542914Y-100984565D01*
X144394997Y-100923296D01*
X144261866Y-100834340D01*
X144148660Y-100721134D01*
X144059704Y-100588003D01*
X143998435Y-100440086D01*
X143967200Y-100283054D01*
X143967200Y-100122946D01*
X143998435Y-99965914D01*
X144059704Y-99817997D01*
X144148660Y-99684866D01*
X144261866Y-99571660D01*
X144394997Y-99482704D01*
X144542914Y-99421435D01*
X144699946Y-99390200D01*
X144860054Y-99390200D01*
X145017086Y-99421435D01*
G37*
G36*
X139937086Y-99421435D02*
G01*
X140085003Y-99482704D01*
X140218134Y-99571660D01*
X140331340Y-99684866D01*
X140420296Y-99817997D01*
X140481565Y-99965914D01*
X140512800Y-100122946D01*
X140512800Y-100283054D01*
X140481565Y-100440086D01*
X140420296Y-100588003D01*
X140331340Y-100721134D01*
X140218134Y-100834340D01*
X140085003Y-100923296D01*
X139937086Y-100984565D01*
X139780054Y-101015800D01*
X139619946Y-101015800D01*
X139462914Y-100984565D01*
X139314997Y-100923296D01*
X139181866Y-100834340D01*
X139068660Y-100721134D01*
X138979704Y-100588003D01*
X138918435Y-100440086D01*
X138887200Y-100283054D01*
X138887200Y-100122946D01*
X138918435Y-99965914D01*
X138979704Y-99817997D01*
X139068660Y-99684866D01*
X139181866Y-99571660D01*
X139314997Y-99482704D01*
X139462914Y-99421435D01*
X139619946Y-99390200D01*
X139780054Y-99390200D01*
X139937086Y-99421435D01*
G37*
G36*
X134857086Y-99421435D02*
G01*
X135005003Y-99482704D01*
X135138134Y-99571660D01*
X135251340Y-99684866D01*
X135340296Y-99817997D01*
X135401565Y-99965914D01*
X135432800Y-100122946D01*
X135432800Y-100283054D01*
X135401565Y-100440086D01*
X135340296Y-100588003D01*
X135251340Y-100721134D01*
X135138134Y-100834340D01*
X135005003Y-100923296D01*
X134857086Y-100984565D01*
X134700054Y-101015800D01*
X134539946Y-101015800D01*
X134382914Y-100984565D01*
X134234997Y-100923296D01*
X134101866Y-100834340D01*
X133988660Y-100721134D01*
X133899704Y-100588003D01*
X133838435Y-100440086D01*
X133807200Y-100283054D01*
X133807200Y-100122946D01*
X133838435Y-99965914D01*
X133899704Y-99817997D01*
X133988660Y-99684866D01*
X134101866Y-99571660D01*
X134234997Y-99482704D01*
X134382914Y-99421435D01*
X134539946Y-99390200D01*
X134700054Y-99390200D01*
X134857086Y-99421435D01*
G37*
G36*
X132317086Y-99421435D02*
G01*
X132465003Y-99482704D01*
X132598134Y-99571660D01*
X132711340Y-99684866D01*
X132800296Y-99817997D01*
X132861565Y-99965914D01*
X132892800Y-100122946D01*
X132892800Y-100283054D01*
X132861565Y-100440086D01*
X132800296Y-100588003D01*
X132711340Y-100721134D01*
X132598134Y-100834340D01*
X132465003Y-100923296D01*
X132317086Y-100984565D01*
X132160054Y-101015800D01*
X131999946Y-101015800D01*
X131842914Y-100984565D01*
X131694997Y-100923296D01*
X131561866Y-100834340D01*
X131448660Y-100721134D01*
X131359704Y-100588003D01*
X131298435Y-100440086D01*
X131267200Y-100283054D01*
X131267200Y-100122946D01*
X131298435Y-99965914D01*
X131359704Y-99817997D01*
X131448660Y-99684866D01*
X131561866Y-99571660D01*
X131694997Y-99482704D01*
X131842914Y-99421435D01*
X131999946Y-99390200D01*
X132160054Y-99390200D01*
X132317086Y-99421435D01*
G37*
G36*
X129777086Y-99421435D02*
G01*
X129925003Y-99482704D01*
X130058134Y-99571660D01*
X130171340Y-99684866D01*
X130260296Y-99817997D01*
X130321565Y-99965914D01*
X130352800Y-100122946D01*
X130352800Y-100283054D01*
X130321565Y-100440086D01*
X130260296Y-100588003D01*
X130171340Y-100721134D01*
X130058134Y-100834340D01*
X129925003Y-100923296D01*
X129777086Y-100984565D01*
X129620054Y-101015800D01*
X129459946Y-101015800D01*
X129302914Y-100984565D01*
X129154997Y-100923296D01*
X129021866Y-100834340D01*
X128908660Y-100721134D01*
X128819704Y-100588003D01*
X128758435Y-100440086D01*
X128727200Y-100283054D01*
X128727200Y-100122946D01*
X128758435Y-99965914D01*
X128819704Y-99817997D01*
X128908660Y-99684866D01*
X129021866Y-99571660D01*
X129154997Y-99482704D01*
X129302914Y-99421435D01*
X129459946Y-99390200D01*
X129620054Y-99390200D01*
X129777086Y-99421435D01*
G37*
G36*
X127237086Y-99421435D02*
G01*
X127385003Y-99482704D01*
X127518134Y-99571660D01*
X127631340Y-99684866D01*
X127720296Y-99817997D01*
X127781565Y-99965914D01*
X127812800Y-100122946D01*
X127812800Y-100283054D01*
X127781565Y-100440086D01*
X127720296Y-100588003D01*
X127631340Y-100721134D01*
X127518134Y-100834340D01*
X127385003Y-100923296D01*
X127237086Y-100984565D01*
X127080054Y-101015800D01*
X126919946Y-101015800D01*
X126762914Y-100984565D01*
X126614997Y-100923296D01*
X126481866Y-100834340D01*
X126368660Y-100721134D01*
X126279704Y-100588003D01*
X126218435Y-100440086D01*
X126187200Y-100283054D01*
X126187200Y-100122946D01*
X126218435Y-99965914D01*
X126279704Y-99817997D01*
X126368660Y-99684866D01*
X126481866Y-99571660D01*
X126614997Y-99482704D01*
X126762914Y-99421435D01*
X126919946Y-99390200D01*
X127080054Y-99390200D01*
X127237086Y-99421435D01*
G37*
G36*
X124697086Y-99421435D02*
G01*
X124845003Y-99482704D01*
X124978134Y-99571660D01*
X125091340Y-99684866D01*
X125180296Y-99817997D01*
X125241565Y-99965914D01*
X125272800Y-100122946D01*
X125272800Y-100283054D01*
X125241565Y-100440086D01*
X125180296Y-100588003D01*
X125091340Y-100721134D01*
X124978134Y-100834340D01*
X124845003Y-100923296D01*
X124697086Y-100984565D01*
X124540054Y-101015800D01*
X124379946Y-101015800D01*
X124222914Y-100984565D01*
X124074997Y-100923296D01*
X123941866Y-100834340D01*
X123828660Y-100721134D01*
X123739704Y-100588003D01*
X123678435Y-100440086D01*
X123647200Y-100283054D01*
X123647200Y-100122946D01*
X123678435Y-99965914D01*
X123739704Y-99817997D01*
X123828660Y-99684866D01*
X123941866Y-99571660D01*
X124074997Y-99482704D01*
X124222914Y-99421435D01*
X124379946Y-99390200D01*
X124540054Y-99390200D01*
X124697086Y-99421435D01*
G37*
G36*
X122157086Y-99421435D02*
G01*
X122305003Y-99482704D01*
X122438134Y-99571660D01*
X122551340Y-99684866D01*
X122640296Y-99817997D01*
X122701565Y-99965914D01*
X122732800Y-100122946D01*
X122732800Y-100283054D01*
X122701565Y-100440086D01*
X122640296Y-100588003D01*
X122551340Y-100721134D01*
X122438134Y-100834340D01*
X122305003Y-100923296D01*
X122157086Y-100984565D01*
X122000054Y-101015800D01*
X121839946Y-101015800D01*
X121682914Y-100984565D01*
X121534997Y-100923296D01*
X121401866Y-100834340D01*
X121288660Y-100721134D01*
X121199704Y-100588003D01*
X121138435Y-100440086D01*
X121107200Y-100283054D01*
X121107200Y-100122946D01*
X121138435Y-99965914D01*
X121199704Y-99817997D01*
X121288660Y-99684866D01*
X121401866Y-99571660D01*
X121534997Y-99482704D01*
X121682914Y-99421435D01*
X121839946Y-99390200D01*
X122000054Y-99390200D01*
X122157086Y-99421435D01*
G37*
G36*
X119617086Y-99421435D02*
G01*
X119765003Y-99482704D01*
X119898134Y-99571660D01*
X120011340Y-99684866D01*
X120100296Y-99817997D01*
X120161565Y-99965914D01*
X120192800Y-100122946D01*
X120192800Y-100283054D01*
X120161565Y-100440086D01*
X120100296Y-100588003D01*
X120011340Y-100721134D01*
X119898134Y-100834340D01*
X119765003Y-100923296D01*
X119617086Y-100984565D01*
X119460054Y-101015800D01*
X119299946Y-101015800D01*
X119142914Y-100984565D01*
X118994997Y-100923296D01*
X118861866Y-100834340D01*
X118748660Y-100721134D01*
X118659704Y-100588003D01*
X118598435Y-100440086D01*
X118567200Y-100283054D01*
X118567200Y-100122946D01*
X118598435Y-99965914D01*
X118659704Y-99817997D01*
X118748660Y-99684866D01*
X118861866Y-99571660D01*
X118994997Y-99482704D01*
X119142914Y-99421435D01*
X119299946Y-99390200D01*
X119460054Y-99390200D01*
X119617086Y-99421435D01*
G37*
G36*
X111997086Y-96881435D02*
G01*
X112145003Y-96942704D01*
X112278134Y-97031660D01*
X112391340Y-97144866D01*
X112480296Y-97277997D01*
X112541565Y-97425914D01*
X112572800Y-97582946D01*
X112572800Y-97743054D01*
X112541565Y-97900086D01*
X112480296Y-98048003D01*
X112391340Y-98181134D01*
X112278134Y-98294340D01*
X112145003Y-98383296D01*
X111997086Y-98444565D01*
X111840054Y-98475800D01*
X111679946Y-98475800D01*
X111522914Y-98444565D01*
X111374997Y-98383296D01*
X111241866Y-98294340D01*
X111128660Y-98181134D01*
X111039704Y-98048003D01*
X110978435Y-97900086D01*
X110947200Y-97743054D01*
X110947200Y-97582946D01*
X110978435Y-97425914D01*
X111039704Y-97277997D01*
X111128660Y-97144866D01*
X111241866Y-97031660D01*
X111374997Y-96942704D01*
X111522914Y-96881435D01*
X111679946Y-96850200D01*
X111840054Y-96850200D01*
X111997086Y-96881435D01*
G37*
G36*
X111997086Y-94341435D02*
G01*
X112145003Y-94402704D01*
X112278134Y-94491660D01*
X112391340Y-94604866D01*
X112480296Y-94737997D01*
X112541565Y-94885914D01*
X112572800Y-95042946D01*
X112572800Y-95203054D01*
X112541565Y-95360086D01*
X112480296Y-95508003D01*
X112391340Y-95641134D01*
X112278134Y-95754340D01*
X112145003Y-95843296D01*
X111997086Y-95904565D01*
X111840054Y-95935800D01*
X111679946Y-95935800D01*
X111522914Y-95904565D01*
X111374997Y-95843296D01*
X111241866Y-95754340D01*
X111128660Y-95641134D01*
X111039704Y-95508003D01*
X110978435Y-95360086D01*
X110947200Y-95203054D01*
X110947200Y-95042946D01*
X110978435Y-94885914D01*
X111039704Y-94737997D01*
X111128660Y-94604866D01*
X111241866Y-94491660D01*
X111374997Y-94402704D01*
X111522914Y-94341435D01*
X111679946Y-94310200D01*
X111840054Y-94310200D01*
X111997086Y-94341435D01*
G37*
G36*
X111997086Y-91801435D02*
G01*
X112145003Y-91862704D01*
X112278134Y-91951660D01*
X112391340Y-92064866D01*
X112480296Y-92197997D01*
X112541565Y-92345914D01*
X112572800Y-92502946D01*
X112572800Y-92663054D01*
X112541565Y-92820086D01*
X112480296Y-92968003D01*
X112391340Y-93101134D01*
X112278134Y-93214340D01*
X112145003Y-93303296D01*
X111997086Y-93364565D01*
X111840054Y-93395800D01*
X111679946Y-93395800D01*
X111522914Y-93364565D01*
X111374997Y-93303296D01*
X111241866Y-93214340D01*
X111128660Y-93101134D01*
X111039704Y-92968003D01*
X110978435Y-92820086D01*
X110947200Y-92663054D01*
X110947200Y-92502946D01*
X110978435Y-92345914D01*
X111039704Y-92197997D01*
X111128660Y-92064866D01*
X111241866Y-91951660D01*
X111374997Y-91862704D01*
X111522914Y-91801435D01*
X111679946Y-91770200D01*
X111840054Y-91770200D01*
X111997086Y-91801435D01*
G37*
G36*
X125522857Y-91717117D02*
G01*
X125568465Y-91730952D01*
X125610504Y-91753422D01*
X125647344Y-91783656D01*
X125677578Y-91820496D01*
X125700048Y-91862535D01*
X125713883Y-91908143D01*
X125718800Y-91958065D01*
X125718800Y-92717935D01*
X125713883Y-92767857D01*
X125700048Y-92813465D01*
X125677578Y-92855504D01*
X125647344Y-92892344D01*
X125610504Y-92922578D01*
X125568465Y-92945048D01*
X125522857Y-92958883D01*
X125472935Y-92963800D01*
X124463065Y-92963800D01*
X124413143Y-92958883D01*
X124367535Y-92945048D01*
X124325496Y-92922578D01*
X124288656Y-92892344D01*
X124258422Y-92855504D01*
X124235952Y-92813465D01*
X124222117Y-92767857D01*
X124217200Y-92717935D01*
X124217200Y-91958065D01*
X124222117Y-91908143D01*
X124235952Y-91862535D01*
X124258422Y-91820496D01*
X124288656Y-91783656D01*
X124325496Y-91753422D01*
X124367535Y-91730952D01*
X124413143Y-91717117D01*
X124463065Y-91712200D01*
X125472935Y-91712200D01*
X125522857Y-91717117D01*
G37*
G36*
X135682857Y-91717117D02*
G01*
X135728465Y-91730952D01*
X135770504Y-91753422D01*
X135807344Y-91783656D01*
X135837578Y-91820496D01*
X135860048Y-91862535D01*
X135873883Y-91908143D01*
X135878800Y-91958065D01*
X135878800Y-92717935D01*
X135873883Y-92767857D01*
X135860048Y-92813465D01*
X135837578Y-92855504D01*
X135807344Y-92892344D01*
X135770504Y-92922578D01*
X135728465Y-92945048D01*
X135682857Y-92958883D01*
X135632935Y-92963800D01*
X134623065Y-92963800D01*
X134573143Y-92958883D01*
X134527535Y-92945048D01*
X134485496Y-92922578D01*
X134448656Y-92892344D01*
X134418422Y-92855504D01*
X134395952Y-92813465D01*
X134382117Y-92767857D01*
X134377200Y-92717935D01*
X134377200Y-91958065D01*
X134382117Y-91908143D01*
X134395952Y-91862535D01*
X134418422Y-91820496D01*
X134448656Y-91783656D01*
X134485496Y-91753422D01*
X134527535Y-91730952D01*
X134573143Y-91717117D01*
X134623065Y-91712200D01*
X135632935Y-91712200D01*
X135682857Y-91717117D01*
G37*
G36*
X125522857Y-89667117D02*
G01*
X125568465Y-89680952D01*
X125610504Y-89703422D01*
X125647344Y-89733656D01*
X125677578Y-89770496D01*
X125700048Y-89812535D01*
X125713883Y-89858143D01*
X125718800Y-89908065D01*
X125718800Y-90667935D01*
X125713883Y-90717857D01*
X125700048Y-90763465D01*
X125677578Y-90805504D01*
X125647344Y-90842344D01*
X125610504Y-90872578D01*
X125568465Y-90895048D01*
X125522857Y-90908883D01*
X125472935Y-90913800D01*
X124463065Y-90913800D01*
X124413143Y-90908883D01*
X124367535Y-90895048D01*
X124325496Y-90872578D01*
X124288656Y-90842344D01*
X124258422Y-90805504D01*
X124235952Y-90763465D01*
X124222117Y-90717857D01*
X124217200Y-90667935D01*
X124217200Y-89908065D01*
X124222117Y-89858143D01*
X124235952Y-89812535D01*
X124258422Y-89770496D01*
X124288656Y-89733656D01*
X124325496Y-89703422D01*
X124367535Y-89680952D01*
X124413143Y-89667117D01*
X124463065Y-89662200D01*
X125472935Y-89662200D01*
X125522857Y-89667117D01*
G37*
G36*
X135682857Y-89667117D02*
G01*
X135728465Y-89680952D01*
X135770504Y-89703422D01*
X135807344Y-89733656D01*
X135837578Y-89770496D01*
X135860048Y-89812535D01*
X135873883Y-89858143D01*
X135878800Y-89908065D01*
X135878800Y-90667935D01*
X135873883Y-90717857D01*
X135860048Y-90763465D01*
X135837578Y-90805504D01*
X135807344Y-90842344D01*
X135770504Y-90872578D01*
X135728465Y-90895048D01*
X135682857Y-90908883D01*
X135632935Y-90913800D01*
X134623065Y-90913800D01*
X134573143Y-90908883D01*
X134527535Y-90895048D01*
X134485496Y-90872578D01*
X134448656Y-90842344D01*
X134418422Y-90805504D01*
X134395952Y-90763465D01*
X134382117Y-90717857D01*
X134377200Y-90667935D01*
X134377200Y-89908065D01*
X134382117Y-89858143D01*
X134395952Y-89812535D01*
X134418422Y-89770496D01*
X134448656Y-89733656D01*
X134485496Y-89703422D01*
X134527535Y-89680952D01*
X134573143Y-89667117D01*
X134623065Y-89662200D01*
X135632935Y-89662200D01*
X135682857Y-89667117D01*
G37*
G36*
X111997086Y-89261435D02*
G01*
X112145003Y-89322704D01*
X112278134Y-89411660D01*
X112391340Y-89524866D01*
X112480296Y-89657997D01*
X112541565Y-89805914D01*
X112572800Y-89962946D01*
X112572800Y-90123054D01*
X112541565Y-90280086D01*
X112480296Y-90428003D01*
X112391340Y-90561134D01*
X112278134Y-90674340D01*
X112145003Y-90763296D01*
X111997086Y-90824565D01*
X111840054Y-90855800D01*
X111679946Y-90855800D01*
X111522914Y-90824565D01*
X111374997Y-90763296D01*
X111241866Y-90674340D01*
X111128660Y-90561134D01*
X111039704Y-90428003D01*
X110978435Y-90280086D01*
X110947200Y-90123054D01*
X110947200Y-89962946D01*
X110978435Y-89805914D01*
X111039704Y-89657997D01*
X111128660Y-89524866D01*
X111241866Y-89411660D01*
X111374997Y-89322704D01*
X111522914Y-89261435D01*
X111679946Y-89230200D01*
X111840054Y-89230200D01*
X111997086Y-89261435D01*
G37*
G36*
X111997086Y-86721435D02*
G01*
X112145003Y-86782704D01*
X112278134Y-86871660D01*
X112391340Y-86984866D01*
X112480296Y-87117997D01*
X112541565Y-87265914D01*
X112572800Y-87422946D01*
X112572800Y-87583054D01*
X112541565Y-87740086D01*
X112480296Y-87888003D01*
X112391340Y-88021134D01*
X112278134Y-88134340D01*
X112145003Y-88223296D01*
X111997086Y-88284565D01*
X111840054Y-88315800D01*
X111679946Y-88315800D01*
X111522914Y-88284565D01*
X111374997Y-88223296D01*
X111241866Y-88134340D01*
X111128660Y-88021134D01*
X111039704Y-87888003D01*
X110978435Y-87740086D01*
X110947200Y-87583054D01*
X110947200Y-87422946D01*
X110978435Y-87265914D01*
X111039704Y-87117997D01*
X111128660Y-86984866D01*
X111241866Y-86871660D01*
X111374997Y-86782704D01*
X111522914Y-86721435D01*
X111679946Y-86690200D01*
X111840054Y-86690200D01*
X111997086Y-86721435D01*
G37*
G36*
X114537086Y-84181435D02*
G01*
X114685003Y-84242704D01*
X114818134Y-84331660D01*
X114931340Y-84444866D01*
X115020296Y-84577997D01*
X115081565Y-84725914D01*
X115112800Y-84882946D01*
X115112800Y-85043054D01*
X115081565Y-85200086D01*
X115020296Y-85348003D01*
X114931340Y-85481134D01*
X114818134Y-85594340D01*
X114685003Y-85683296D01*
X114537086Y-85744565D01*
X114380054Y-85775800D01*
X114219946Y-85775800D01*
X114062914Y-85744565D01*
X113914997Y-85683296D01*
X113781866Y-85594340D01*
X113668660Y-85481134D01*
X113579704Y-85348003D01*
X113518435Y-85200086D01*
X113487200Y-85043054D01*
X113487200Y-84882946D01*
X113518435Y-84725914D01*
X113579704Y-84577997D01*
X113668660Y-84444866D01*
X113781866Y-84331660D01*
X113914997Y-84242704D01*
X114062914Y-84181435D01*
X114219946Y-84150200D01*
X114380054Y-84150200D01*
X114537086Y-84181435D01*
G37*
G36*
X111997086Y-84181435D02*
G01*
X112145003Y-84242704D01*
X112278134Y-84331660D01*
X112391340Y-84444866D01*
X112480296Y-84577997D01*
X112541565Y-84725914D01*
X112572800Y-84882946D01*
X112572800Y-85043054D01*
X112541565Y-85200086D01*
X112480296Y-85348003D01*
X112391340Y-85481134D01*
X112278134Y-85594340D01*
X112145003Y-85683296D01*
X111997086Y-85744565D01*
X111840054Y-85775800D01*
X111679946Y-85775800D01*
X111522914Y-85744565D01*
X111374997Y-85683296D01*
X111241866Y-85594340D01*
X111128660Y-85481134D01*
X111039704Y-85348003D01*
X110978435Y-85200086D01*
X110947200Y-85043054D01*
X110947200Y-84882946D01*
X110978435Y-84725914D01*
X111039704Y-84577997D01*
X111128660Y-84444866D01*
X111241866Y-84331660D01*
X111374997Y-84242704D01*
X111522914Y-84181435D01*
X111679946Y-84150200D01*
X111840054Y-84150200D01*
X111997086Y-84181435D01*
G37*
G36*
X137397086Y-84181435D02*
G01*
X137545003Y-84242704D01*
X137678134Y-84331660D01*
X137791340Y-84444866D01*
X137880296Y-84577997D01*
X137941565Y-84725914D01*
X137972800Y-84882946D01*
X137972800Y-85043054D01*
X137941565Y-85200086D01*
X137880296Y-85348003D01*
X137791340Y-85481134D01*
X137678134Y-85594340D01*
X137545003Y-85683296D01*
X137397086Y-85744565D01*
X137240054Y-85775800D01*
X137079946Y-85775800D01*
X136922914Y-85744565D01*
X136774997Y-85683296D01*
X136641866Y-85594340D01*
X136528660Y-85481134D01*
X136439704Y-85348003D01*
X136378435Y-85200086D01*
X136347200Y-85043054D01*
X136347200Y-84882946D01*
X136378435Y-84725914D01*
X136439704Y-84577997D01*
X136528660Y-84444866D01*
X136641866Y-84331660D01*
X136774997Y-84242704D01*
X136922914Y-84181435D01*
X137079946Y-84150200D01*
X137240054Y-84150200D01*
X137397086Y-84181435D01*
G37*
G36*
X122157086Y-84181435D02*
G01*
X122305003Y-84242704D01*
X122438134Y-84331660D01*
X122551340Y-84444866D01*
X122640296Y-84577997D01*
X122701565Y-84725914D01*
X122732800Y-84882946D01*
X122732800Y-85043054D01*
X122701565Y-85200086D01*
X122640296Y-85348003D01*
X122551340Y-85481134D01*
X122438134Y-85594340D01*
X122305003Y-85683296D01*
X122157086Y-85744565D01*
X122000054Y-85775800D01*
X121839946Y-85775800D01*
X121682914Y-85744565D01*
X121534997Y-85683296D01*
X121401866Y-85594340D01*
X121288660Y-85481134D01*
X121199704Y-85348003D01*
X121138435Y-85200086D01*
X121107200Y-85043054D01*
X121107200Y-84882946D01*
X121138435Y-84725914D01*
X121199704Y-84577997D01*
X121288660Y-84444866D01*
X121401866Y-84331660D01*
X121534997Y-84242704D01*
X121682914Y-84181435D01*
X121839946Y-84150200D01*
X122000054Y-84150200D01*
X122157086Y-84181435D01*
G37*
G36*
X139937086Y-84181435D02*
G01*
X140085003Y-84242704D01*
X140218134Y-84331660D01*
X140331340Y-84444866D01*
X140420296Y-84577997D01*
X140481565Y-84725914D01*
X140512800Y-84882946D01*
X140512800Y-85043054D01*
X140481565Y-85200086D01*
X140420296Y-85348003D01*
X140331340Y-85481134D01*
X140218134Y-85594340D01*
X140085003Y-85683296D01*
X139937086Y-85744565D01*
X139780054Y-85775800D01*
X139619946Y-85775800D01*
X139462914Y-85744565D01*
X139314997Y-85683296D01*
X139181866Y-85594340D01*
X139068660Y-85481134D01*
X138979704Y-85348003D01*
X138918435Y-85200086D01*
X138887200Y-85043054D01*
X138887200Y-84882946D01*
X138918435Y-84725914D01*
X138979704Y-84577997D01*
X139068660Y-84444866D01*
X139181866Y-84331660D01*
X139314997Y-84242704D01*
X139462914Y-84181435D01*
X139619946Y-84150200D01*
X139780054Y-84150200D01*
X139937086Y-84181435D01*
G37*
G36*
X142477086Y-84181435D02*
G01*
X142625003Y-84242704D01*
X142758134Y-84331660D01*
X142871340Y-84444866D01*
X142960296Y-84577997D01*
X143021565Y-84725914D01*
X143052800Y-84882946D01*
X143052800Y-85043054D01*
X143021565Y-85200086D01*
X142960296Y-85348003D01*
X142871340Y-85481134D01*
X142758134Y-85594340D01*
X142625003Y-85683296D01*
X142477086Y-85744565D01*
X142320054Y-85775800D01*
X142159946Y-85775800D01*
X142002914Y-85744565D01*
X141854997Y-85683296D01*
X141721866Y-85594340D01*
X141608660Y-85481134D01*
X141519704Y-85348003D01*
X141458435Y-85200086D01*
X141427200Y-85043054D01*
X141427200Y-84882946D01*
X141458435Y-84725914D01*
X141519704Y-84577997D01*
X141608660Y-84444866D01*
X141721866Y-84331660D01*
X141854997Y-84242704D01*
X142002914Y-84181435D01*
X142159946Y-84150200D01*
X142320054Y-84150200D01*
X142477086Y-84181435D01*
G37*
G36*
X145017086Y-84181435D02*
G01*
X145165003Y-84242704D01*
X145298134Y-84331660D01*
X145411340Y-84444866D01*
X145500296Y-84577997D01*
X145561565Y-84725914D01*
X145592800Y-84882946D01*
X145592800Y-85043054D01*
X145561565Y-85200086D01*
X145500296Y-85348003D01*
X145411340Y-85481134D01*
X145298134Y-85594340D01*
X145165003Y-85683296D01*
X145017086Y-85744565D01*
X144860054Y-85775800D01*
X144699946Y-85775800D01*
X144542914Y-85744565D01*
X144394997Y-85683296D01*
X144261866Y-85594340D01*
X144148660Y-85481134D01*
X144059704Y-85348003D01*
X143998435Y-85200086D01*
X143967200Y-85043054D01*
X143967200Y-84882946D01*
X143998435Y-84725914D01*
X144059704Y-84577997D01*
X144148660Y-84444866D01*
X144261866Y-84331660D01*
X144394997Y-84242704D01*
X144542914Y-84181435D01*
X144699946Y-84150200D01*
X144860054Y-84150200D01*
X145017086Y-84181435D01*
G37*
G36*
X129777086Y-84181435D02*
G01*
X129925003Y-84242704D01*
X130058134Y-84331660D01*
X130171340Y-84444866D01*
X130260296Y-84577997D01*
X130321565Y-84725914D01*
X130352800Y-84882946D01*
X130352800Y-85043054D01*
X130321565Y-85200086D01*
X130260296Y-85348003D01*
X130171340Y-85481134D01*
X130058134Y-85594340D01*
X129925003Y-85683296D01*
X129777086Y-85744565D01*
X129620054Y-85775800D01*
X129459946Y-85775800D01*
X129302914Y-85744565D01*
X129154997Y-85683296D01*
X129021866Y-85594340D01*
X128908660Y-85481134D01*
X128819704Y-85348003D01*
X128758435Y-85200086D01*
X128727200Y-85043054D01*
X128727200Y-84882946D01*
X128758435Y-84725914D01*
X128819704Y-84577997D01*
X128908660Y-84444866D01*
X129021866Y-84331660D01*
X129154997Y-84242704D01*
X129302914Y-84181435D01*
X129459946Y-84150200D01*
X129620054Y-84150200D01*
X129777086Y-84181435D01*
G37*
G36*
X127237086Y-84181435D02*
G01*
X127385003Y-84242704D01*
X127518134Y-84331660D01*
X127631340Y-84444866D01*
X127720296Y-84577997D01*
X127781565Y-84725914D01*
X127812800Y-84882946D01*
X127812800Y-85043054D01*
X127781565Y-85200086D01*
X127720296Y-85348003D01*
X127631340Y-85481134D01*
X127518134Y-85594340D01*
X127385003Y-85683296D01*
X127237086Y-85744565D01*
X127080054Y-85775800D01*
X126919946Y-85775800D01*
X126762914Y-85744565D01*
X126614997Y-85683296D01*
X126481866Y-85594340D01*
X126368660Y-85481134D01*
X126279704Y-85348003D01*
X126218435Y-85200086D01*
X126187200Y-85043054D01*
X126187200Y-84882946D01*
X126218435Y-84725914D01*
X126279704Y-84577997D01*
X126368660Y-84444866D01*
X126481866Y-84331660D01*
X126614997Y-84242704D01*
X126762914Y-84181435D01*
X126919946Y-84150200D01*
X127080054Y-84150200D01*
X127237086Y-84181435D01*
G37*
G36*
X124697086Y-84181435D02*
G01*
X124845003Y-84242704D01*
X124978134Y-84331660D01*
X125091340Y-84444866D01*
X125180296Y-84577997D01*
X125241565Y-84725914D01*
X125272800Y-84882946D01*
X125272800Y-85043054D01*
X125241565Y-85200086D01*
X125180296Y-85348003D01*
X125091340Y-85481134D01*
X124978134Y-85594340D01*
X124845003Y-85683296D01*
X124697086Y-85744565D01*
X124540054Y-85775800D01*
X124379946Y-85775800D01*
X124222914Y-85744565D01*
X124074997Y-85683296D01*
X123941866Y-85594340D01*
X123828660Y-85481134D01*
X123739704Y-85348003D01*
X123678435Y-85200086D01*
X123647200Y-85043054D01*
X123647200Y-84882946D01*
X123678435Y-84725914D01*
X123739704Y-84577997D01*
X123828660Y-84444866D01*
X123941866Y-84331660D01*
X124074997Y-84242704D01*
X124222914Y-84181435D01*
X124379946Y-84150200D01*
X124540054Y-84150200D01*
X124697086Y-84181435D01*
G37*
G36*
X119617086Y-84181435D02*
G01*
X119765003Y-84242704D01*
X119898134Y-84331660D01*
X120011340Y-84444866D01*
X120100296Y-84577997D01*
X120161565Y-84725914D01*
X120192800Y-84882946D01*
X120192800Y-85043054D01*
X120161565Y-85200086D01*
X120100296Y-85348003D01*
X120011340Y-85481134D01*
X119898134Y-85594340D01*
X119765003Y-85683296D01*
X119617086Y-85744565D01*
X119460054Y-85775800D01*
X119299946Y-85775800D01*
X119142914Y-85744565D01*
X118994997Y-85683296D01*
X118861866Y-85594340D01*
X118748660Y-85481134D01*
X118659704Y-85348003D01*
X118598435Y-85200086D01*
X118567200Y-85043054D01*
X118567200Y-84882946D01*
X118598435Y-84725914D01*
X118659704Y-84577997D01*
X118748660Y-84444866D01*
X118861866Y-84331660D01*
X118994997Y-84242704D01*
X119142914Y-84181435D01*
X119299946Y-84150200D01*
X119460054Y-84150200D01*
X119617086Y-84181435D01*
G37*
G36*
X134857086Y-84181435D02*
G01*
X135005003Y-84242704D01*
X135138134Y-84331660D01*
X135251340Y-84444866D01*
X135340296Y-84577997D01*
X135401565Y-84725914D01*
X135432800Y-84882946D01*
X135432800Y-85043054D01*
X135401565Y-85200086D01*
X135340296Y-85348003D01*
X135251340Y-85481134D01*
X135138134Y-85594340D01*
X135005003Y-85683296D01*
X134857086Y-85744565D01*
X134700054Y-85775800D01*
X134539946Y-85775800D01*
X134382914Y-85744565D01*
X134234997Y-85683296D01*
X134101866Y-85594340D01*
X133988660Y-85481134D01*
X133899704Y-85348003D01*
X133838435Y-85200086D01*
X133807200Y-85043054D01*
X133807200Y-84882946D01*
X133838435Y-84725914D01*
X133899704Y-84577997D01*
X133988660Y-84444866D01*
X134101866Y-84331660D01*
X134234997Y-84242704D01*
X134382914Y-84181435D01*
X134539946Y-84150200D01*
X134700054Y-84150200D01*
X134857086Y-84181435D01*
G37*
G36*
X117077086Y-84181435D02*
G01*
X117225003Y-84242704D01*
X117358134Y-84331660D01*
X117471340Y-84444866D01*
X117560296Y-84577997D01*
X117621565Y-84725914D01*
X117652800Y-84882946D01*
X117652800Y-85043054D01*
X117621565Y-85200086D01*
X117560296Y-85348003D01*
X117471340Y-85481134D01*
X117358134Y-85594340D01*
X117225003Y-85683296D01*
X117077086Y-85744565D01*
X116920054Y-85775800D01*
X116759946Y-85775800D01*
X116602914Y-85744565D01*
X116454997Y-85683296D01*
X116321866Y-85594340D01*
X116208660Y-85481134D01*
X116119704Y-85348003D01*
X116058435Y-85200086D01*
X116027200Y-85043054D01*
X116027200Y-84882946D01*
X116058435Y-84725914D01*
X116119704Y-84577997D01*
X116208660Y-84444866D01*
X116321866Y-84331660D01*
X116454997Y-84242704D01*
X116602914Y-84181435D01*
X116759946Y-84150200D01*
X116920054Y-84150200D01*
X117077086Y-84181435D01*
G37*
G36*
X132317086Y-84181435D02*
G01*
X132465003Y-84242704D01*
X132598134Y-84331660D01*
X132711340Y-84444866D01*
X132800296Y-84577997D01*
X132861565Y-84725914D01*
X132892800Y-84882946D01*
X132892800Y-85043054D01*
X132861565Y-85200086D01*
X132800296Y-85348003D01*
X132711340Y-85481134D01*
X132598134Y-85594340D01*
X132465003Y-85683296D01*
X132317086Y-85744565D01*
X132160054Y-85775800D01*
X131999946Y-85775800D01*
X131842914Y-85744565D01*
X131694997Y-85683296D01*
X131561866Y-85594340D01*
X131448660Y-85481134D01*
X131359704Y-85348003D01*
X131298435Y-85200086D01*
X131267200Y-85043054D01*
X131267200Y-84882946D01*
X131298435Y-84725914D01*
X131359704Y-84577997D01*
X131448660Y-84444866D01*
X131561866Y-84331660D01*
X131694997Y-84242704D01*
X131842914Y-84181435D01*
X131999946Y-84150200D01*
X132160054Y-84150200D01*
X132317086Y-84181435D01*
G37*
G36*
X133534857Y-76724117D02*
G01*
X133580465Y-76737952D01*
X133622504Y-76760422D01*
X133659344Y-76790656D01*
X133689578Y-76827496D01*
X133712048Y-76869535D01*
X133725883Y-76915143D01*
X133730800Y-76965065D01*
X133730800Y-77974935D01*
X133725883Y-78024857D01*
X133712048Y-78070465D01*
X133689578Y-78112504D01*
X133659344Y-78149344D01*
X133622504Y-78179578D01*
X133580465Y-78202048D01*
X133534857Y-78215883D01*
X133484935Y-78220800D01*
X132725065Y-78220800D01*
X132675143Y-78215883D01*
X132629535Y-78202048D01*
X132587496Y-78179578D01*
X132550656Y-78149344D01*
X132520422Y-78112504D01*
X132497952Y-78070465D01*
X132484117Y-78024857D01*
X132479200Y-77974935D01*
X132479200Y-76965065D01*
X132484117Y-76915143D01*
X132497952Y-76869535D01*
X132520422Y-76827496D01*
X132550656Y-76790656D01*
X132587496Y-76760422D01*
X132629535Y-76737952D01*
X132675143Y-76724117D01*
X132725065Y-76719200D01*
X133484935Y-76719200D01*
X133534857Y-76724117D01*
G37*
G36*
X131484857Y-76724117D02*
G01*
X131530465Y-76737952D01*
X131572504Y-76760422D01*
X131609344Y-76790656D01*
X131639578Y-76827496D01*
X131662048Y-76869535D01*
X131675883Y-76915143D01*
X131680800Y-76965065D01*
X131680800Y-77974935D01*
X131675883Y-78024857D01*
X131662048Y-78070465D01*
X131639578Y-78112504D01*
X131609344Y-78149344D01*
X131572504Y-78179578D01*
X131530465Y-78202048D01*
X131484857Y-78215883D01*
X131434935Y-78220800D01*
X130675065Y-78220800D01*
X130625143Y-78215883D01*
X130579535Y-78202048D01*
X130537496Y-78179578D01*
X130500656Y-78149344D01*
X130470422Y-78112504D01*
X130447952Y-78070465D01*
X130434117Y-78024857D01*
X130429200Y-77974935D01*
X130429200Y-76965065D01*
X130434117Y-76915143D01*
X130447952Y-76869535D01*
X130470422Y-76827496D01*
X130500656Y-76790656D01*
X130537496Y-76760422D01*
X130579535Y-76737952D01*
X130625143Y-76724117D01*
X130675065Y-76719200D01*
X131434935Y-76719200D01*
X131484857Y-76724117D01*
G37*
G36*
X143313857Y-76724117D02*
G01*
X143359465Y-76737952D01*
X143401504Y-76760422D01*
X143438344Y-76790656D01*
X143468578Y-76827496D01*
X143491048Y-76869535D01*
X143504883Y-76915143D01*
X143509800Y-76965065D01*
X143509800Y-77974935D01*
X143504883Y-78024857D01*
X143491048Y-78070465D01*
X143468578Y-78112504D01*
X143438344Y-78149344D01*
X143401504Y-78179578D01*
X143359465Y-78202048D01*
X143313857Y-78215883D01*
X143263935Y-78220800D01*
X142504065Y-78220800D01*
X142454143Y-78215883D01*
X142408535Y-78202048D01*
X142366496Y-78179578D01*
X142329656Y-78149344D01*
X142299422Y-78112504D01*
X142276952Y-78070465D01*
X142263117Y-78024857D01*
X142258200Y-77974935D01*
X142258200Y-76965065D01*
X142263117Y-76915143D01*
X142276952Y-76869535D01*
X142299422Y-76827496D01*
X142329656Y-76790656D01*
X142366496Y-76760422D01*
X142408535Y-76737952D01*
X142454143Y-76724117D01*
X142504065Y-76719200D01*
X143263935Y-76719200D01*
X143313857Y-76724117D01*
G37*
G36*
X141263857Y-76724117D02*
G01*
X141309465Y-76737952D01*
X141351504Y-76760422D01*
X141388344Y-76790656D01*
X141418578Y-76827496D01*
X141441048Y-76869535D01*
X141454883Y-76915143D01*
X141459800Y-76965065D01*
X141459800Y-77974935D01*
X141454883Y-78024857D01*
X141441048Y-78070465D01*
X141418578Y-78112504D01*
X141388344Y-78149344D01*
X141351504Y-78179578D01*
X141309465Y-78202048D01*
X141263857Y-78215883D01*
X141213935Y-78220800D01*
X140454065Y-78220800D01*
X140404143Y-78215883D01*
X140358535Y-78202048D01*
X140316496Y-78179578D01*
X140279656Y-78149344D01*
X140249422Y-78112504D01*
X140226952Y-78070465D01*
X140213117Y-78024857D01*
X140208200Y-77974935D01*
X140208200Y-76965065D01*
X140213117Y-76915143D01*
X140226952Y-76869535D01*
X140249422Y-76827496D01*
X140279656Y-76790656D01*
X140316496Y-76760422D01*
X140358535Y-76737952D01*
X140404143Y-76724117D01*
X140454065Y-76719200D01*
X141213935Y-76719200D01*
X141263857Y-76724117D01*
G37*
G36*
X126152352Y-74623985D02*
G01*
X126434579Y-74740888D01*
X126688578Y-74910604D01*
X126904585Y-75126611D01*
X127074301Y-75380610D01*
X127191204Y-75662837D01*
X127250800Y-75962448D01*
X127250800Y-76267930D01*
X127191204Y-76567541D01*
X127074301Y-76849768D01*
X126904585Y-77103767D01*
X126688578Y-77319774D01*
X126434579Y-77489490D01*
X126152352Y-77606393D01*
X125852741Y-77665989D01*
X125547259Y-77665989D01*
X125247648Y-77606393D01*
X124965421Y-77489490D01*
X124711422Y-77319774D01*
X124495415Y-77103767D01*
X124325699Y-76849768D01*
X124208796Y-76567541D01*
X124149200Y-76267930D01*
X124149200Y-75962448D01*
X124208796Y-75662837D01*
X124325699Y-75380610D01*
X124495415Y-75126611D01*
X124711422Y-74910604D01*
X124965421Y-74740888D01*
X125247648Y-74623985D01*
X125547259Y-74564389D01*
X125852741Y-74564389D01*
X126152352Y-74623985D01*
G37*
G36*
X115964014Y-74901110D02*
G01*
X116209843Y-75002936D01*
X116209844Y-75002937D01*
X116431085Y-75150765D01*
X116619235Y-75338915D01*
X116693149Y-75449535D01*
X116767064Y-75560157D01*
X116868890Y-75805986D01*
X116920800Y-76066958D01*
X116920800Y-76333042D01*
X116868890Y-76594014D01*
X116767064Y-76839843D01*
X116619234Y-77061086D01*
X116431086Y-77249234D01*
X116209843Y-77397064D01*
X115964014Y-77498890D01*
X115703042Y-77550800D01*
X115436958Y-77550800D01*
X115175986Y-77498890D01*
X114930157Y-77397064D01*
X114708914Y-77249234D01*
X114520766Y-77061086D01*
X114372936Y-76839843D01*
X114271110Y-76594014D01*
X114219200Y-76333042D01*
X114219200Y-76066958D01*
X114271110Y-75805986D01*
X114372936Y-75560157D01*
X114446851Y-75449536D01*
X114520765Y-75338915D01*
X114708915Y-75150765D01*
X114930156Y-75002937D01*
X114930157Y-75002936D01*
X115175986Y-74901110D01*
X115436958Y-74849200D01*
X115703042Y-74849200D01*
X115964014Y-74901110D01*
G37*
G36*
X116920800Y-72470800D02*
G01*
X114219200Y-72470800D01*
X114219200Y-69769200D01*
X116920800Y-69769200D01*
X116920800Y-72470800D01*
G37*
G36*
X141778857Y-70635117D02*
G01*
X141824465Y-70648952D01*
X141866504Y-70671422D01*
X141903344Y-70701656D01*
X141933578Y-70738496D01*
X141956048Y-70780535D01*
X141969883Y-70826143D01*
X141974800Y-70876065D01*
X141974800Y-71635935D01*
X141969883Y-71685857D01*
X141956048Y-71731465D01*
X141933578Y-71773504D01*
X141903344Y-71810344D01*
X141866504Y-71840578D01*
X141824465Y-71863048D01*
X141778857Y-71876883D01*
X141728935Y-71881800D01*
X140719065Y-71881800D01*
X140669143Y-71876883D01*
X140623535Y-71863048D01*
X140581496Y-71840578D01*
X140544656Y-71810344D01*
X140514422Y-71773504D01*
X140491952Y-71731465D01*
X140478117Y-71685857D01*
X140473200Y-71635935D01*
X140473200Y-70876065D01*
X140478117Y-70826143D01*
X140491952Y-70780535D01*
X140514422Y-70738496D01*
X140544656Y-70701656D01*
X140581496Y-70671422D01*
X140623535Y-70648952D01*
X140669143Y-70635117D01*
X140719065Y-70630200D01*
X141728935Y-70630200D01*
X141778857Y-70635117D01*
G37*
G36*
X139238857Y-70635117D02*
G01*
X139284465Y-70648952D01*
X139326504Y-70671422D01*
X139363344Y-70701656D01*
X139393578Y-70738496D01*
X139416048Y-70780535D01*
X139429883Y-70826143D01*
X139434800Y-70876065D01*
X139434800Y-71635935D01*
X139429883Y-71685857D01*
X139416048Y-71731465D01*
X139393578Y-71773504D01*
X139363344Y-71810344D01*
X139326504Y-71840578D01*
X139284465Y-71863048D01*
X139238857Y-71876883D01*
X139188935Y-71881800D01*
X138179065Y-71881800D01*
X138129143Y-71876883D01*
X138083535Y-71863048D01*
X138041496Y-71840578D01*
X138004656Y-71810344D01*
X137974422Y-71773504D01*
X137951952Y-71731465D01*
X137938117Y-71685857D01*
X137933200Y-71635935D01*
X137933200Y-70876065D01*
X137938117Y-70826143D01*
X137951952Y-70780535D01*
X137974422Y-70738496D01*
X138004656Y-70701656D01*
X138041496Y-70671422D01*
X138083535Y-70648952D01*
X138129143Y-70635117D01*
X138179065Y-70630200D01*
X139188935Y-70630200D01*
X139238857Y-70635117D01*
G37*
G36*
X139238857Y-68585117D02*
G01*
X139284465Y-68598952D01*
X139326504Y-68621422D01*
X139363344Y-68651656D01*
X139393578Y-68688496D01*
X139416048Y-68730535D01*
X139429883Y-68776143D01*
X139434800Y-68826065D01*
X139434800Y-69585935D01*
X139429883Y-69635857D01*
X139416048Y-69681465D01*
X139393578Y-69723504D01*
X139363344Y-69760344D01*
X139326504Y-69790578D01*
X139284465Y-69813048D01*
X139238857Y-69826883D01*
X139188935Y-69831800D01*
X138179065Y-69831800D01*
X138129143Y-69826883D01*
X138083535Y-69813048D01*
X138041496Y-69790578D01*
X138004656Y-69760344D01*
X137974422Y-69723504D01*
X137951952Y-69681465D01*
X137938117Y-69635857D01*
X137933200Y-69585935D01*
X137933200Y-68826065D01*
X137938117Y-68776143D01*
X137951952Y-68730535D01*
X137974422Y-68688496D01*
X138004656Y-68651656D01*
X138041496Y-68621422D01*
X138083535Y-68598952D01*
X138129143Y-68585117D01*
X138179065Y-68580200D01*
X139188935Y-68580200D01*
X139238857Y-68585117D01*
G37*
G36*
X141778857Y-68585117D02*
G01*
X141824465Y-68598952D01*
X141866504Y-68621422D01*
X141903344Y-68651656D01*
X141933578Y-68688496D01*
X141956048Y-68730535D01*
X141969883Y-68776143D01*
X141974800Y-68826065D01*
X141974800Y-69585935D01*
X141969883Y-69635857D01*
X141956048Y-69681465D01*
X141933578Y-69723504D01*
X141903344Y-69760344D01*
X141866504Y-69790578D01*
X141824465Y-69813048D01*
X141778857Y-69826883D01*
X141728935Y-69831800D01*
X140719065Y-69831800D01*
X140669143Y-69826883D01*
X140623535Y-69813048D01*
X140581496Y-69790578D01*
X140544656Y-69760344D01*
X140514422Y-69723504D01*
X140491952Y-69681465D01*
X140478117Y-69635857D01*
X140473200Y-69585935D01*
X140473200Y-68826065D01*
X140478117Y-68776143D01*
X140491952Y-68730535D01*
X140514422Y-68688496D01*
X140544656Y-68651656D01*
X140581496Y-68621422D01*
X140623535Y-68598952D01*
X140669143Y-68585117D01*
X140719065Y-68580200D01*
X141728935Y-68580200D01*
X141778857Y-68585117D01*
G37*
G36*
X133802352Y-61373796D02*
G01*
X134084579Y-61490699D01*
X134338578Y-61660415D01*
X134554585Y-61876422D01*
X134724301Y-62130421D01*
X134841204Y-62412648D01*
X134900800Y-62712259D01*
X134900800Y-63017741D01*
X134841204Y-63317352D01*
X134724301Y-63599579D01*
X134554585Y-63853578D01*
X134338578Y-64069585D01*
X134084579Y-64239301D01*
X133802352Y-64356204D01*
X133502741Y-64415800D01*
X133197259Y-64415800D01*
X132897648Y-64356204D01*
X132615421Y-64239301D01*
X132361422Y-64069585D01*
X132145415Y-63853578D01*
X131975699Y-63599579D01*
X131858796Y-63317352D01*
X131799200Y-63017741D01*
X131799200Y-62712259D01*
X131858796Y-62412648D01*
X131975699Y-62130421D01*
X132145415Y-61876422D01*
X132361422Y-61660415D01*
X132615421Y-61490699D01*
X132897648Y-61373796D01*
X133197259Y-61314200D01*
X133502741Y-61314200D01*
X133802352Y-61373796D01*
G37*
G36*
X128466676Y-56748716D02*
G01*
X128466679Y-56748717D01*
X128466680Y-56748717D01*
X128655803Y-56806087D01*
X128708676Y-56834349D01*
X128830102Y-56899251D01*
X128982873Y-57024627D01*
X129108249Y-57177398D01*
X129173152Y-57298823D01*
X129201413Y-57351696D01*
X129201413Y-57351697D01*
X129258784Y-57540823D01*
X129273300Y-57688209D01*
X129273300Y-57881790D01*
X129258784Y-58029176D01*
X129258783Y-58029179D01*
X129258783Y-58029180D01*
X129201413Y-58218303D01*
X129173151Y-58271176D01*
X129108249Y-58392602D01*
X128982873Y-58545373D01*
X128830102Y-58670749D01*
X128708677Y-58735652D01*
X128655804Y-58763913D01*
X128466681Y-58821283D01*
X128466680Y-58821283D01*
X128466677Y-58821284D01*
X128270000Y-58840655D01*
X128073324Y-58821284D01*
X128073321Y-58821283D01*
X128073320Y-58821283D01*
X127884197Y-58763913D01*
X127803063Y-58720546D01*
X127709899Y-58670749D01*
X127557127Y-58545373D01*
X127431751Y-58392602D01*
X127338588Y-58218305D01*
X127338587Y-58218304D01*
X127281217Y-58029181D01*
X127281217Y-58029180D01*
X127281216Y-58029177D01*
X127266700Y-57881791D01*
X127266700Y-57688210D01*
X127281216Y-57540824D01*
X127281217Y-57540820D01*
X127338587Y-57351697D01*
X127366849Y-57298824D01*
X127431751Y-57177398D01*
X127557127Y-57024627D01*
X127709898Y-56899251D01*
X127831323Y-56834348D01*
X127884196Y-56806087D01*
X128073319Y-56748717D01*
X128073320Y-56748717D01*
X128073323Y-56748716D01*
X128270000Y-56729345D01*
X128466676Y-56748716D01*
G37*
G36*
X131006676Y-56748716D02*
G01*
X131006679Y-56748717D01*
X131006680Y-56748717D01*
X131195803Y-56806087D01*
X131248676Y-56834349D01*
X131370102Y-56899251D01*
X131522873Y-57024627D01*
X131648249Y-57177398D01*
X131713152Y-57298823D01*
X131741413Y-57351696D01*
X131741413Y-57351697D01*
X131798784Y-57540823D01*
X131813300Y-57688209D01*
X131813300Y-57881790D01*
X131798784Y-58029176D01*
X131798783Y-58029179D01*
X131798783Y-58029180D01*
X131741413Y-58218303D01*
X131713151Y-58271176D01*
X131648249Y-58392602D01*
X131522873Y-58545373D01*
X131370102Y-58670749D01*
X131248677Y-58735652D01*
X131195804Y-58763913D01*
X131006681Y-58821283D01*
X131006680Y-58821283D01*
X131006677Y-58821284D01*
X130810000Y-58840655D01*
X130613324Y-58821284D01*
X130613321Y-58821283D01*
X130613320Y-58821283D01*
X130424197Y-58763913D01*
X130343063Y-58720546D01*
X130249899Y-58670749D01*
X130097127Y-58545373D01*
X129971751Y-58392602D01*
X129878588Y-58218305D01*
X129878587Y-58218304D01*
X129821217Y-58029181D01*
X129821217Y-58029180D01*
X129821216Y-58029177D01*
X129806700Y-57881791D01*
X129806700Y-57688210D01*
X129821216Y-57540824D01*
X129821217Y-57540820D01*
X129878587Y-57351697D01*
X129906849Y-57298824D01*
X129971751Y-57177398D01*
X130097127Y-57024627D01*
X130249898Y-56899251D01*
X130371323Y-56834348D01*
X130424196Y-56806087D01*
X130613319Y-56748717D01*
X130613320Y-56748717D01*
X130613323Y-56748716D01*
X130810000Y-56729345D01*
X131006676Y-56748716D01*
G37*
G36*
X126733300Y-58835800D02*
G01*
X124726700Y-58835800D01*
X124726700Y-56734200D01*
X126733300Y-56734200D01*
X126733300Y-58835800D01*
G37*
G36*
X141568197Y-52003011D02*
G01*
X141941419Y-52157604D01*
X142277310Y-52382040D01*
X142562960Y-52667690D01*
X142787396Y-53003581D01*
X142941989Y-53376803D01*
X143020800Y-53773014D01*
X143020800Y-54176986D01*
X142941989Y-54573197D01*
X142787396Y-54946419D01*
X142562960Y-55282310D01*
X142277310Y-55567960D01*
X141941419Y-55792396D01*
X141568197Y-55946989D01*
X141171986Y-56025800D01*
X140768014Y-56025800D01*
X140371803Y-55946989D01*
X139998581Y-55792396D01*
X139662690Y-55567960D01*
X139377040Y-55282310D01*
X139152604Y-54946419D01*
X138998011Y-54573197D01*
X138919200Y-54176986D01*
X138919200Y-53773014D01*
X138998011Y-53376803D01*
X139152604Y-53003581D01*
X139377040Y-52667690D01*
X139662690Y-52382040D01*
X139998581Y-52157604D01*
X140371803Y-52003011D01*
X140768014Y-51924200D01*
X141171986Y-51924200D01*
X141568197Y-52003011D01*
G37*
G36*
X116168197Y-52003011D02*
G01*
X116541419Y-52157604D01*
X116877310Y-52382040D01*
X117162960Y-52667690D01*
X117387396Y-53003581D01*
X117541989Y-53376803D01*
X117620800Y-53773014D01*
X117620800Y-54176986D01*
X117541989Y-54573197D01*
X117387396Y-54946419D01*
X117162960Y-55282310D01*
X116877310Y-55567960D01*
X116541419Y-55792396D01*
X116168197Y-55946989D01*
X115771986Y-56025800D01*
X115368014Y-56025800D01*
X114971803Y-55946989D01*
X114598581Y-55792396D01*
X114262690Y-55567960D01*
X113977040Y-55282310D01*
X113752604Y-54946419D01*
X113598011Y-54573197D01*
X113519200Y-54176986D01*
X113519200Y-53773014D01*
X113598011Y-53376803D01*
X113752604Y-53003581D01*
X113977040Y-52667690D01*
X114262690Y-52382040D01*
X114598581Y-52157604D01*
X114971803Y-52003011D01*
X115368014Y-51924200D01*
X115771986Y-51924200D01*
X116168197Y-52003011D01*
G37*
G36*
X128722352Y-47403796D02*
G01*
X129004579Y-47520699D01*
X129258578Y-47690415D01*
X129474585Y-47906422D01*
X129644301Y-48160421D01*
X129761204Y-48442648D01*
X129820800Y-48742259D01*
X129820800Y-49047741D01*
X129761204Y-49347352D01*
X129644301Y-49629579D01*
X129474585Y-49883578D01*
X129258578Y-50099585D01*
X129004579Y-50269301D01*
X128722352Y-50386204D01*
X128422741Y-50445800D01*
X128117259Y-50445800D01*
X127817648Y-50386204D01*
X127535421Y-50269301D01*
X127281422Y-50099585D01*
X127065415Y-49883578D01*
X126895699Y-49629579D01*
X126778796Y-49347352D01*
X126719200Y-49047741D01*
X126719200Y-48742259D01*
X126778796Y-48442648D01*
X126895699Y-48160421D01*
X127065415Y-47906422D01*
X127281422Y-47690415D01*
X127535421Y-47520699D01*
X127817648Y-47403796D01*
X128117259Y-47344200D01*
X128422741Y-47344200D01*
X128722352Y-47403796D01*
G37*
M02*
