G04 #@! TF.GenerationSoftware,KiCad,Pcbnew,5.1.5*
G04 #@! TF.CreationDate,2020-04-23T21:43:41+02:00*
G04 #@! TF.ProjectId,teensy-load,7465656e-7379-42d6-9c6f-61642e6b6963,rev?*
G04 #@! TF.SameCoordinates,Original*
G04 #@! TF.FileFunction,Legend,Top*
G04 #@! TF.FilePolarity,Positive*
%FSLAX46Y46*%
G04 Gerber Fmt 4.6, Leading zero omitted, Abs format (unit mm)*
G04 Created by KiCad (PCBNEW 5.1.5) date 2020-04-23 21:43:41*
%MOMM*%
%LPD*%
G04 APERTURE LIST*
%ADD10C,0.120000*%
%ADD11C,0.203200*%
%ADD12C,0.150000*%
G04 APERTURE END LIST*
D10*
X121031000Y-98044000D02*
X120396000Y-98298000D01*
X121031000Y-98044000D02*
X120396000Y-97790000D01*
X116840000Y-98044000D02*
X121031000Y-98044000D01*
D11*
X123099285Y-102231371D02*
X123752428Y-102231371D01*
X123425857Y-103374371D02*
X123425857Y-102231371D01*
X124568857Y-103319942D02*
X124460000Y-103374371D01*
X124242285Y-103374371D01*
X124133428Y-103319942D01*
X124079000Y-103211085D01*
X124079000Y-102775657D01*
X124133428Y-102666800D01*
X124242285Y-102612371D01*
X124460000Y-102612371D01*
X124568857Y-102666800D01*
X124623285Y-102775657D01*
X124623285Y-102884514D01*
X124079000Y-102993371D01*
X125548571Y-103319942D02*
X125439714Y-103374371D01*
X125222000Y-103374371D01*
X125113142Y-103319942D01*
X125058714Y-103211085D01*
X125058714Y-102775657D01*
X125113142Y-102666800D01*
X125222000Y-102612371D01*
X125439714Y-102612371D01*
X125548571Y-102666800D01*
X125603000Y-102775657D01*
X125603000Y-102884514D01*
X125058714Y-102993371D01*
X126092857Y-102612371D02*
X126092857Y-103374371D01*
X126092857Y-102721228D02*
X126147285Y-102666800D01*
X126256142Y-102612371D01*
X126419428Y-102612371D01*
X126528285Y-102666800D01*
X126582714Y-102775657D01*
X126582714Y-103374371D01*
X127072571Y-103319942D02*
X127181428Y-103374371D01*
X127399142Y-103374371D01*
X127508000Y-103319942D01*
X127562428Y-103211085D01*
X127562428Y-103156657D01*
X127508000Y-103047800D01*
X127399142Y-102993371D01*
X127235857Y-102993371D01*
X127127000Y-102938942D01*
X127072571Y-102830085D01*
X127072571Y-102775657D01*
X127127000Y-102666800D01*
X127235857Y-102612371D01*
X127399142Y-102612371D01*
X127508000Y-102666800D01*
X127943428Y-102612371D02*
X128215571Y-103374371D01*
X128487714Y-102612371D02*
X128215571Y-103374371D01*
X128106714Y-103646514D01*
X128052285Y-103700942D01*
X127943428Y-103755371D01*
X130338285Y-103374371D02*
X129794000Y-103374371D01*
X129794000Y-102231371D01*
X130882571Y-103374371D02*
X130773714Y-103319942D01*
X130719285Y-103265514D01*
X130664857Y-103156657D01*
X130664857Y-102830085D01*
X130719285Y-102721228D01*
X130773714Y-102666800D01*
X130882571Y-102612371D01*
X131045857Y-102612371D01*
X131154714Y-102666800D01*
X131209142Y-102721228D01*
X131263571Y-102830085D01*
X131263571Y-103156657D01*
X131209142Y-103265514D01*
X131154714Y-103319942D01*
X131045857Y-103374371D01*
X130882571Y-103374371D01*
X132243285Y-103374371D02*
X132243285Y-102775657D01*
X132188857Y-102666800D01*
X132080000Y-102612371D01*
X131862285Y-102612371D01*
X131753428Y-102666800D01*
X132243285Y-103319942D02*
X132134428Y-103374371D01*
X131862285Y-103374371D01*
X131753428Y-103319942D01*
X131699000Y-103211085D01*
X131699000Y-103102228D01*
X131753428Y-102993371D01*
X131862285Y-102938942D01*
X132134428Y-102938942D01*
X132243285Y-102884514D01*
X133277428Y-103374371D02*
X133277428Y-102231371D01*
X133277428Y-103319942D02*
X133168571Y-103374371D01*
X132950857Y-103374371D01*
X132842000Y-103319942D01*
X132787571Y-103265514D01*
X132733142Y-103156657D01*
X132733142Y-102830085D01*
X132787571Y-102721228D01*
X132842000Y-102666800D01*
X132950857Y-102612371D01*
X133168571Y-102612371D01*
X133277428Y-102666800D01*
X126528285Y-104149071D02*
X126909285Y-105292071D01*
X127290285Y-104149071D01*
X127889000Y-104149071D02*
X127997857Y-104149071D01*
X128106714Y-104203500D01*
X128161142Y-104257928D01*
X128215571Y-104366785D01*
X128270000Y-104584500D01*
X128270000Y-104856642D01*
X128215571Y-105074357D01*
X128161142Y-105183214D01*
X128106714Y-105237642D01*
X127997857Y-105292071D01*
X127889000Y-105292071D01*
X127780142Y-105237642D01*
X127725714Y-105183214D01*
X127671285Y-105074357D01*
X127616857Y-104856642D01*
X127616857Y-104584500D01*
X127671285Y-104366785D01*
X127725714Y-104257928D01*
X127780142Y-104203500D01*
X127889000Y-104149071D01*
X128759857Y-105183214D02*
X128814285Y-105237642D01*
X128759857Y-105292071D01*
X128705428Y-105237642D01*
X128759857Y-105183214D01*
X128759857Y-105292071D01*
X129902857Y-105292071D02*
X129249714Y-105292071D01*
X129576285Y-105292071D02*
X129576285Y-104149071D01*
X129467428Y-104312357D01*
X129358571Y-104421214D01*
X129249714Y-104475642D01*
X122718285Y-106175628D02*
X122772714Y-106121200D01*
X122881571Y-106066771D01*
X123153714Y-106066771D01*
X123262571Y-106121200D01*
X123317000Y-106175628D01*
X123371428Y-106284485D01*
X123371428Y-106393342D01*
X123317000Y-106556628D01*
X122663857Y-107209771D01*
X123371428Y-107209771D01*
X124079000Y-106066771D02*
X124187857Y-106066771D01*
X124296714Y-106121200D01*
X124351142Y-106175628D01*
X124405571Y-106284485D01*
X124460000Y-106502200D01*
X124460000Y-106774342D01*
X124405571Y-106992057D01*
X124351142Y-107100914D01*
X124296714Y-107155342D01*
X124187857Y-107209771D01*
X124079000Y-107209771D01*
X123970142Y-107155342D01*
X123915714Y-107100914D01*
X123861285Y-106992057D01*
X123806857Y-106774342D01*
X123806857Y-106502200D01*
X123861285Y-106284485D01*
X123915714Y-106175628D01*
X123970142Y-106121200D01*
X124079000Y-106066771D01*
X124895428Y-106175628D02*
X124949857Y-106121200D01*
X125058714Y-106066771D01*
X125330857Y-106066771D01*
X125439714Y-106121200D01*
X125494142Y-106175628D01*
X125548571Y-106284485D01*
X125548571Y-106393342D01*
X125494142Y-106556628D01*
X124841000Y-107209771D01*
X125548571Y-107209771D01*
X126256142Y-106066771D02*
X126365000Y-106066771D01*
X126473857Y-106121200D01*
X126528285Y-106175628D01*
X126582714Y-106284485D01*
X126637142Y-106502200D01*
X126637142Y-106774342D01*
X126582714Y-106992057D01*
X126528285Y-107100914D01*
X126473857Y-107155342D01*
X126365000Y-107209771D01*
X126256142Y-107209771D01*
X126147285Y-107155342D01*
X126092857Y-107100914D01*
X126038428Y-106992057D01*
X125984000Y-106774342D01*
X125984000Y-106502200D01*
X126038428Y-106284485D01*
X126092857Y-106175628D01*
X126147285Y-106121200D01*
X126256142Y-106066771D01*
X127127000Y-106774342D02*
X127997857Y-106774342D01*
X128759857Y-106066771D02*
X128868714Y-106066771D01*
X128977571Y-106121200D01*
X129032000Y-106175628D01*
X129086428Y-106284485D01*
X129140857Y-106502200D01*
X129140857Y-106774342D01*
X129086428Y-106992057D01*
X129032000Y-107100914D01*
X128977571Y-107155342D01*
X128868714Y-107209771D01*
X128759857Y-107209771D01*
X128651000Y-107155342D01*
X128596571Y-107100914D01*
X128542142Y-106992057D01*
X128487714Y-106774342D01*
X128487714Y-106502200D01*
X128542142Y-106284485D01*
X128596571Y-106175628D01*
X128651000Y-106121200D01*
X128759857Y-106066771D01*
X130120571Y-106447771D02*
X130120571Y-107209771D01*
X129848428Y-106012342D02*
X129576285Y-106828771D01*
X130283857Y-106828771D01*
X130719285Y-106774342D02*
X131590142Y-106774342D01*
X132080000Y-106175628D02*
X132134428Y-106121200D01*
X132243285Y-106066771D01*
X132515428Y-106066771D01*
X132624285Y-106121200D01*
X132678714Y-106175628D01*
X132733142Y-106284485D01*
X132733142Y-106393342D01*
X132678714Y-106556628D01*
X132025571Y-107209771D01*
X132733142Y-107209771D01*
X133114142Y-106066771D02*
X133821714Y-106066771D01*
X133440714Y-106502200D01*
X133604000Y-106502200D01*
X133712857Y-106556628D01*
X133767285Y-106611057D01*
X133821714Y-106719914D01*
X133821714Y-106992057D01*
X133767285Y-107100914D01*
X133712857Y-107155342D01*
X133604000Y-107209771D01*
X133277428Y-107209771D01*
X133168571Y-107155342D01*
X133114142Y-107100914D01*
D10*
X135166884Y-63198064D02*
X135842384Y-63588064D01*
X135842384Y-63588064D02*
X127572384Y-77912124D01*
X127572384Y-77912124D02*
X126896884Y-77522124D01*
X132153116Y-61458064D02*
X131477616Y-61068064D01*
X131477616Y-61068064D02*
X123207616Y-75392124D01*
X123207616Y-75392124D02*
X123883116Y-75782124D01*
X133286025Y-64975807D02*
X127496025Y-75004381D01*
X133182102Y-64915807D02*
X127392102Y-74944381D01*
X133078179Y-64855807D02*
X127288179Y-74884381D01*
X132974256Y-64795807D02*
X127184256Y-74824381D01*
X132870333Y-64735807D02*
X127080333Y-74764381D01*
X132766410Y-64675807D02*
X126976410Y-74704381D01*
X132662487Y-64615807D02*
X126872487Y-74644381D01*
X132558564Y-64555807D02*
X126768564Y-74584381D01*
X132454641Y-64495807D02*
X126664641Y-74524381D01*
X132350718Y-64435807D02*
X126560718Y-74464381D01*
X132246795Y-64375807D02*
X126456795Y-74404381D01*
X132142872Y-64315807D02*
X126352872Y-74344381D01*
X132038949Y-64255807D02*
X126248949Y-74284381D01*
X131935026Y-64195807D02*
X126145026Y-74224381D01*
X131831103Y-64135807D02*
X126041103Y-74164381D01*
X131727180Y-64075807D02*
X125937180Y-74104381D01*
X131623257Y-64015807D02*
X125833257Y-74044381D01*
X133286025Y-64975807D02*
X131623257Y-64015807D01*
X127496025Y-75004381D02*
X125833257Y-74044381D01*
X123138000Y-95242748D02*
X123138000Y-95765252D01*
X121718000Y-95242748D02*
X121718000Y-95765252D01*
X140462000Y-73289000D02*
X138512000Y-73289000D01*
X140462000Y-73289000D02*
X142412000Y-73289000D01*
X140462000Y-82159000D02*
X138512000Y-82159000D01*
X140462000Y-82159000D02*
X143912000Y-82159000D01*
X139394000Y-70492252D02*
X139394000Y-69969748D01*
X137974000Y-70492252D02*
X137974000Y-69969748D01*
X119745000Y-60665000D02*
X117745000Y-60665000D01*
X117745000Y-60665000D02*
X117745000Y-64515000D01*
X119745000Y-60665000D02*
X119745000Y-64515000D01*
X117750000Y-71120000D02*
G75*
G03X117750000Y-71120000I-2180000J0D01*
G01*
X117750000Y-76200000D02*
G75*
G03X117750000Y-76200000I-2180000J0D01*
G01*
X110770000Y-68520000D02*
X110770000Y-78800000D01*
X113270000Y-68520000D02*
X113270000Y-78800000D01*
X119470000Y-68520000D02*
X119470000Y-78800000D01*
X121530000Y-68520000D02*
X121530000Y-78800000D01*
X110210000Y-68520000D02*
X110210000Y-78800000D01*
X121530000Y-68520000D02*
X110210000Y-68520000D01*
X121530000Y-78800000D02*
X110210000Y-78800000D01*
X116958000Y-72774000D02*
X116851000Y-72667000D01*
X114023000Y-69838000D02*
X113916000Y-69732000D01*
X117224000Y-72508000D02*
X117117000Y-72401000D01*
X114289000Y-69572000D02*
X114182000Y-69466000D01*
X116958000Y-77854000D02*
X116562000Y-77459000D01*
X114296000Y-75193000D02*
X113916000Y-74813000D01*
X117224000Y-77588000D02*
X116844000Y-77208000D01*
X114578000Y-74942000D02*
X114182000Y-74547000D01*
X110710000Y-68280000D02*
X109970000Y-68280000D01*
X109970000Y-68280000D02*
X109970000Y-68780000D01*
X123150000Y-54515000D02*
X133390000Y-54515000D01*
X123150000Y-59156000D02*
X133390000Y-59156000D01*
X123150000Y-54515000D02*
X123150000Y-59156000D01*
X133390000Y-54515000D02*
X133390000Y-59156000D01*
X123150000Y-56025000D02*
X133390000Y-56025000D01*
X126420000Y-54515000D02*
X126420000Y-56025000D01*
X130121000Y-54515000D02*
X130121000Y-56025000D01*
X128218000Y-95251748D02*
X128218000Y-95774252D01*
X126798000Y-95251748D02*
X126798000Y-95774252D01*
X120575000Y-61968748D02*
X120575000Y-62491252D01*
X121995000Y-61968748D02*
X121995000Y-62491252D01*
X133596748Y-94413000D02*
X134119252Y-94413000D01*
X133596748Y-95833000D02*
X134119252Y-95833000D01*
X138286748Y-95833000D02*
X138809252Y-95833000D01*
X138286748Y-94413000D02*
X138809252Y-94413000D01*
X125805000Y-61968748D02*
X125805000Y-62491252D01*
X124385000Y-61968748D02*
X124385000Y-62491252D01*
X124385000Y-65778748D02*
X124385000Y-66301252D01*
X125805000Y-65778748D02*
X125805000Y-66301252D01*
X124988000Y-91498000D02*
X124988000Y-89698000D01*
X121768000Y-89698000D02*
X121768000Y-92648000D01*
X131933000Y-89698000D02*
X131933000Y-92648000D01*
X135153000Y-91498000D02*
X135153000Y-89698000D01*
X132341252Y-78180000D02*
X131818748Y-78180000D01*
X132341252Y-76760000D02*
X131818748Y-76760000D01*
X132341252Y-79300000D02*
X131818748Y-79300000D01*
X132341252Y-80720000D02*
X131818748Y-80720000D01*
X125678000Y-95251748D02*
X125678000Y-95774252D01*
X124258000Y-95251748D02*
X124258000Y-95774252D01*
X142486748Y-94413000D02*
X143009252Y-94413000D01*
X142486748Y-95833000D02*
X143009252Y-95833000D01*
D12*
X134452249Y-69140314D02*
X133873189Y-69190894D01*
X134166535Y-69635185D02*
X133300509Y-69135185D01*
X133490986Y-68805271D01*
X133579844Y-68746602D01*
X133644893Y-68729172D01*
X133751181Y-68735552D01*
X133874899Y-68806980D01*
X133933568Y-68895839D01*
X133950998Y-68960887D01*
X133944618Y-69067176D01*
X133754142Y-69397090D01*
X133859178Y-68358018D02*
X133841749Y-68292969D01*
X133848128Y-68186681D01*
X133967176Y-67980485D01*
X134056034Y-67921816D01*
X134121083Y-67904386D01*
X134227371Y-67910766D01*
X134309850Y-67958385D01*
X134409758Y-68071053D01*
X134618916Y-68851639D01*
X134928440Y-68315528D01*
X134371938Y-67279417D02*
X134419557Y-67196938D01*
X134508415Y-67138269D01*
X134573464Y-67120839D01*
X134679752Y-67127219D01*
X134868519Y-67181218D01*
X135074716Y-67300265D01*
X135215863Y-67436743D01*
X135274532Y-67525601D01*
X135291962Y-67590650D01*
X135285582Y-67696938D01*
X135237963Y-67779417D01*
X135149105Y-67838086D01*
X135084056Y-67855515D01*
X134977768Y-67849136D01*
X134789001Y-67795137D01*
X134582805Y-67676089D01*
X134441657Y-67539612D01*
X134382988Y-67450754D01*
X134365558Y-67385705D01*
X134371938Y-67279417D01*
X134990986Y-66207195D02*
X134752890Y-66619588D01*
X135141474Y-66898922D01*
X135124044Y-66833873D01*
X135130424Y-66727585D01*
X135249471Y-66521389D01*
X135338330Y-66462720D01*
X135403379Y-66445290D01*
X135509667Y-66451670D01*
X135715863Y-66570717D01*
X135774532Y-66659576D01*
X135791962Y-66724624D01*
X135785582Y-66830913D01*
X135666535Y-67037109D01*
X135577676Y-67095778D01*
X135512628Y-67113208D01*
X117927380Y-96623047D02*
X117451190Y-96956380D01*
X117927380Y-97194476D02*
X116927380Y-97194476D01*
X116927380Y-96813523D01*
X116975000Y-96718285D01*
X117022619Y-96670666D01*
X117117857Y-96623047D01*
X117260714Y-96623047D01*
X117355952Y-96670666D01*
X117403571Y-96718285D01*
X117451190Y-96813523D01*
X117451190Y-97194476D01*
X117022619Y-96242095D02*
X116975000Y-96194476D01*
X116927380Y-96099238D01*
X116927380Y-95861142D01*
X116975000Y-95765904D01*
X117022619Y-95718285D01*
X117117857Y-95670666D01*
X117213095Y-95670666D01*
X117355952Y-95718285D01*
X117927380Y-96289714D01*
X117927380Y-95670666D01*
X116927380Y-95051619D02*
X116927380Y-94956380D01*
X116975000Y-94861142D01*
X117022619Y-94813523D01*
X117117857Y-94765904D01*
X117308333Y-94718285D01*
X117546428Y-94718285D01*
X117736904Y-94765904D01*
X117832142Y-94813523D01*
X117879761Y-94861142D01*
X117927380Y-94956380D01*
X117927380Y-95051619D01*
X117879761Y-95146857D01*
X117832142Y-95194476D01*
X117736904Y-95242095D01*
X117546428Y-95289714D01*
X117308333Y-95289714D01*
X117117857Y-95242095D01*
X117022619Y-95194476D01*
X116975000Y-95146857D01*
X116927380Y-95051619D01*
X117022619Y-94337333D02*
X116975000Y-94289714D01*
X116927380Y-94194476D01*
X116927380Y-93956380D01*
X116975000Y-93861142D01*
X117022619Y-93813523D01*
X117117857Y-93765904D01*
X117213095Y-93765904D01*
X117355952Y-93813523D01*
X117927380Y-94384952D01*
X117927380Y-93765904D01*
X140652714Y-71715380D02*
X140652714Y-72524904D01*
X140700333Y-72620142D01*
X140747952Y-72667761D01*
X140843190Y-72715380D01*
X141033666Y-72715380D01*
X141128904Y-72667761D01*
X141176523Y-72620142D01*
X141224142Y-72524904D01*
X141224142Y-71715380D01*
X142224142Y-72715380D02*
X141652714Y-72715380D01*
X141938428Y-72715380D02*
X141938428Y-71715380D01*
X141843190Y-71858238D01*
X141747952Y-71953476D01*
X141652714Y-72001095D01*
X142843190Y-71715380D02*
X142938428Y-71715380D01*
X143033666Y-71763000D01*
X143081285Y-71810619D01*
X143128904Y-71905857D01*
X143176523Y-72096333D01*
X143176523Y-72334428D01*
X143128904Y-72524904D01*
X143081285Y-72620142D01*
X143033666Y-72667761D01*
X142938428Y-72715380D01*
X142843190Y-72715380D01*
X142747952Y-72667761D01*
X142700333Y-72620142D01*
X142652714Y-72524904D01*
X142605095Y-72334428D01*
X142605095Y-72096333D01*
X142652714Y-71905857D01*
X142700333Y-71810619D01*
X142747952Y-71763000D01*
X142843190Y-71715380D01*
X143557476Y-71810619D02*
X143605095Y-71763000D01*
X143700333Y-71715380D01*
X143938428Y-71715380D01*
X144033666Y-71763000D01*
X144081285Y-71810619D01*
X144128904Y-71905857D01*
X144128904Y-72001095D01*
X144081285Y-72143952D01*
X143509857Y-72715380D01*
X144128904Y-72715380D01*
X137358380Y-71350047D02*
X136882190Y-71683380D01*
X137358380Y-71921476D02*
X136358380Y-71921476D01*
X136358380Y-71540523D01*
X136406000Y-71445285D01*
X136453619Y-71397666D01*
X136548857Y-71350047D01*
X136691714Y-71350047D01*
X136786952Y-71397666D01*
X136834571Y-71445285D01*
X136882190Y-71540523D01*
X136882190Y-71921476D01*
X136453619Y-70969095D02*
X136406000Y-70921476D01*
X136358380Y-70826238D01*
X136358380Y-70588142D01*
X136406000Y-70492904D01*
X136453619Y-70445285D01*
X136548857Y-70397666D01*
X136644095Y-70397666D01*
X136786952Y-70445285D01*
X137358380Y-71016714D01*
X137358380Y-70397666D01*
X136358380Y-69778619D02*
X136358380Y-69683380D01*
X136406000Y-69588142D01*
X136453619Y-69540523D01*
X136548857Y-69492904D01*
X136739333Y-69445285D01*
X136977428Y-69445285D01*
X137167904Y-69492904D01*
X137263142Y-69540523D01*
X137310761Y-69588142D01*
X137358380Y-69683380D01*
X137358380Y-69778619D01*
X137310761Y-69873857D01*
X137263142Y-69921476D01*
X137167904Y-69969095D01*
X136977428Y-70016714D01*
X136739333Y-70016714D01*
X136548857Y-69969095D01*
X136453619Y-69921476D01*
X136406000Y-69873857D01*
X136358380Y-69778619D01*
X136786952Y-68873857D02*
X136739333Y-68969095D01*
X136691714Y-69016714D01*
X136596476Y-69064333D01*
X136548857Y-69064333D01*
X136453619Y-69016714D01*
X136406000Y-68969095D01*
X136358380Y-68873857D01*
X136358380Y-68683380D01*
X136406000Y-68588142D01*
X136453619Y-68540523D01*
X136548857Y-68492904D01*
X136596476Y-68492904D01*
X136691714Y-68540523D01*
X136739333Y-68588142D01*
X136786952Y-68683380D01*
X136786952Y-68873857D01*
X136834571Y-68969095D01*
X136882190Y-69016714D01*
X136977428Y-69064333D01*
X137167904Y-69064333D01*
X137263142Y-69016714D01*
X137310761Y-68969095D01*
X137358380Y-68873857D01*
X137358380Y-68683380D01*
X137310761Y-68588142D01*
X137263142Y-68540523D01*
X137167904Y-68492904D01*
X136977428Y-68492904D01*
X136882190Y-68540523D01*
X136834571Y-68588142D01*
X136786952Y-68683380D01*
X117292380Y-64936476D02*
X116292380Y-64936476D01*
X116292380Y-64698380D01*
X116340000Y-64555523D01*
X116435238Y-64460285D01*
X116530476Y-64412666D01*
X116720952Y-64365047D01*
X116863809Y-64365047D01*
X117054285Y-64412666D01*
X117149523Y-64460285D01*
X117244761Y-64555523D01*
X117292380Y-64698380D01*
X117292380Y-64936476D01*
X116292380Y-64031714D02*
X116292380Y-63412666D01*
X116673333Y-63746000D01*
X116673333Y-63603142D01*
X116720952Y-63507904D01*
X116768571Y-63460285D01*
X116863809Y-63412666D01*
X117101904Y-63412666D01*
X117197142Y-63460285D01*
X117244761Y-63507904D01*
X117292380Y-63603142D01*
X117292380Y-63888857D01*
X117244761Y-63984095D01*
X117197142Y-64031714D01*
X116292380Y-62793619D02*
X116292380Y-62698380D01*
X116340000Y-62603142D01*
X116387619Y-62555523D01*
X116482857Y-62507904D01*
X116673333Y-62460285D01*
X116911428Y-62460285D01*
X117101904Y-62507904D01*
X117197142Y-62555523D01*
X117244761Y-62603142D01*
X117292380Y-62698380D01*
X117292380Y-62793619D01*
X117244761Y-62888857D01*
X117197142Y-62936476D01*
X117101904Y-62984095D01*
X116911428Y-63031714D01*
X116673333Y-63031714D01*
X116482857Y-62984095D01*
X116387619Y-62936476D01*
X116340000Y-62888857D01*
X116292380Y-62793619D01*
X117292380Y-61507904D02*
X117292380Y-62079333D01*
X117292380Y-61793619D02*
X116292380Y-61793619D01*
X116435238Y-61888857D01*
X116530476Y-61984095D01*
X116578095Y-62079333D01*
X111236285Y-79716380D02*
X111236285Y-80430666D01*
X111188666Y-80573523D01*
X111093428Y-80668761D01*
X110950571Y-80716380D01*
X110855333Y-80716380D01*
X112236285Y-80716380D02*
X111664857Y-80716380D01*
X111950571Y-80716380D02*
X111950571Y-79716380D01*
X111855333Y-79859238D01*
X111760095Y-79954476D01*
X111664857Y-80002095D01*
X112855333Y-79716380D02*
X112950571Y-79716380D01*
X113045809Y-79764000D01*
X113093428Y-79811619D01*
X113141047Y-79906857D01*
X113188666Y-80097333D01*
X113188666Y-80335428D01*
X113141047Y-80525904D01*
X113093428Y-80621142D01*
X113045809Y-80668761D01*
X112950571Y-80716380D01*
X112855333Y-80716380D01*
X112760095Y-80668761D01*
X112712476Y-80621142D01*
X112664857Y-80525904D01*
X112617238Y-80335428D01*
X112617238Y-80097333D01*
X112664857Y-79906857D01*
X112712476Y-79811619D01*
X112760095Y-79764000D01*
X112855333Y-79716380D01*
X114141047Y-80716380D02*
X113569619Y-80716380D01*
X113855333Y-80716380D02*
X113855333Y-79716380D01*
X113760095Y-79859238D01*
X113664857Y-79954476D01*
X113569619Y-80002095D01*
X122467619Y-58197619D02*
X122420000Y-58292857D01*
X122324761Y-58388095D01*
X122181904Y-58530952D01*
X122134285Y-58626190D01*
X122134285Y-58721428D01*
X122372380Y-58673809D02*
X122324761Y-58769047D01*
X122229523Y-58864285D01*
X122039047Y-58911904D01*
X121705714Y-58911904D01*
X121515238Y-58864285D01*
X121420000Y-58769047D01*
X121372380Y-58673809D01*
X121372380Y-58483333D01*
X121420000Y-58388095D01*
X121515238Y-58292857D01*
X121705714Y-58245238D01*
X122039047Y-58245238D01*
X122229523Y-58292857D01*
X122324761Y-58388095D01*
X122372380Y-58483333D01*
X122372380Y-58673809D01*
X121467619Y-57864285D02*
X121420000Y-57816666D01*
X121372380Y-57721428D01*
X121372380Y-57483333D01*
X121420000Y-57388095D01*
X121467619Y-57340476D01*
X121562857Y-57292857D01*
X121658095Y-57292857D01*
X121800952Y-57340476D01*
X122372380Y-57911904D01*
X122372380Y-57292857D01*
X121372380Y-56673809D02*
X121372380Y-56578571D01*
X121420000Y-56483333D01*
X121467619Y-56435714D01*
X121562857Y-56388095D01*
X121753333Y-56340476D01*
X121991428Y-56340476D01*
X122181904Y-56388095D01*
X122277142Y-56435714D01*
X122324761Y-56483333D01*
X122372380Y-56578571D01*
X122372380Y-56673809D01*
X122324761Y-56769047D01*
X122277142Y-56816666D01*
X122181904Y-56864285D01*
X121991428Y-56911904D01*
X121753333Y-56911904D01*
X121562857Y-56864285D01*
X121467619Y-56816666D01*
X121420000Y-56769047D01*
X121372380Y-56673809D01*
X122372380Y-55388095D02*
X122372380Y-55959523D01*
X122372380Y-55673809D02*
X121372380Y-55673809D01*
X121515238Y-55769047D01*
X121610476Y-55864285D01*
X121658095Y-55959523D01*
X120975380Y-96623047D02*
X120499190Y-96956380D01*
X120975380Y-97194476D02*
X119975380Y-97194476D01*
X119975380Y-96813523D01*
X120023000Y-96718285D01*
X120070619Y-96670666D01*
X120165857Y-96623047D01*
X120308714Y-96623047D01*
X120403952Y-96670666D01*
X120451571Y-96718285D01*
X120499190Y-96813523D01*
X120499190Y-97194476D01*
X120070619Y-96242095D02*
X120023000Y-96194476D01*
X119975380Y-96099238D01*
X119975380Y-95861142D01*
X120023000Y-95765904D01*
X120070619Y-95718285D01*
X120165857Y-95670666D01*
X120261095Y-95670666D01*
X120403952Y-95718285D01*
X120975380Y-96289714D01*
X120975380Y-95670666D01*
X119975380Y-95051619D02*
X119975380Y-94956380D01*
X120023000Y-94861142D01*
X120070619Y-94813523D01*
X120165857Y-94765904D01*
X120356333Y-94718285D01*
X120594428Y-94718285D01*
X120784904Y-94765904D01*
X120880142Y-94813523D01*
X120927761Y-94861142D01*
X120975380Y-94956380D01*
X120975380Y-95051619D01*
X120927761Y-95146857D01*
X120880142Y-95194476D01*
X120784904Y-95242095D01*
X120594428Y-95289714D01*
X120356333Y-95289714D01*
X120165857Y-95242095D01*
X120070619Y-95194476D01*
X120023000Y-95146857D01*
X119975380Y-95051619D01*
X119975380Y-94384952D02*
X119975380Y-93765904D01*
X120356333Y-94099238D01*
X120356333Y-93956380D01*
X120403952Y-93861142D01*
X120451571Y-93813523D01*
X120546809Y-93765904D01*
X120784904Y-93765904D01*
X120880142Y-93813523D01*
X120927761Y-93861142D01*
X120975380Y-93956380D01*
X120975380Y-94242095D01*
X120927761Y-94337333D01*
X120880142Y-94384952D01*
X123515380Y-63349047D02*
X123039190Y-63682380D01*
X123515380Y-63920476D02*
X122515380Y-63920476D01*
X122515380Y-63539523D01*
X122563000Y-63444285D01*
X122610619Y-63396666D01*
X122705857Y-63349047D01*
X122848714Y-63349047D01*
X122943952Y-63396666D01*
X122991571Y-63444285D01*
X123039190Y-63539523D01*
X123039190Y-63920476D01*
X122610619Y-62968095D02*
X122563000Y-62920476D01*
X122515380Y-62825238D01*
X122515380Y-62587142D01*
X122563000Y-62491904D01*
X122610619Y-62444285D01*
X122705857Y-62396666D01*
X122801095Y-62396666D01*
X122943952Y-62444285D01*
X123515380Y-63015714D01*
X123515380Y-62396666D01*
X122515380Y-61777619D02*
X122515380Y-61682380D01*
X122563000Y-61587142D01*
X122610619Y-61539523D01*
X122705857Y-61491904D01*
X122896333Y-61444285D01*
X123134428Y-61444285D01*
X123324904Y-61491904D01*
X123420142Y-61539523D01*
X123467761Y-61587142D01*
X123515380Y-61682380D01*
X123515380Y-61777619D01*
X123467761Y-61872857D01*
X123420142Y-61920476D01*
X123324904Y-61968095D01*
X123134428Y-62015714D01*
X122896333Y-62015714D01*
X122705857Y-61968095D01*
X122610619Y-61920476D01*
X122563000Y-61872857D01*
X122515380Y-61777619D01*
X122848714Y-60587142D02*
X123515380Y-60587142D01*
X122467761Y-60825238D02*
X123182047Y-61063333D01*
X123182047Y-60444285D01*
X132738952Y-97353380D02*
X132405619Y-96877190D01*
X132167523Y-97353380D02*
X132167523Y-96353380D01*
X132548476Y-96353380D01*
X132643714Y-96401000D01*
X132691333Y-96448619D01*
X132738952Y-96543857D01*
X132738952Y-96686714D01*
X132691333Y-96781952D01*
X132643714Y-96829571D01*
X132548476Y-96877190D01*
X132167523Y-96877190D01*
X133072285Y-96353380D02*
X133691333Y-96353380D01*
X133358000Y-96734333D01*
X133500857Y-96734333D01*
X133596095Y-96781952D01*
X133643714Y-96829571D01*
X133691333Y-96924809D01*
X133691333Y-97162904D01*
X133643714Y-97258142D01*
X133596095Y-97305761D01*
X133500857Y-97353380D01*
X133215142Y-97353380D01*
X133119904Y-97305761D01*
X133072285Y-97258142D01*
X134310380Y-96353380D02*
X134405619Y-96353380D01*
X134500857Y-96401000D01*
X134548476Y-96448619D01*
X134596095Y-96543857D01*
X134643714Y-96734333D01*
X134643714Y-96972428D01*
X134596095Y-97162904D01*
X134548476Y-97258142D01*
X134500857Y-97305761D01*
X134405619Y-97353380D01*
X134310380Y-97353380D01*
X134215142Y-97305761D01*
X134167523Y-97258142D01*
X134119904Y-97162904D01*
X134072285Y-96972428D01*
X134072285Y-96734333D01*
X134119904Y-96543857D01*
X134167523Y-96448619D01*
X134215142Y-96401000D01*
X134310380Y-96353380D01*
X135596095Y-97353380D02*
X135024666Y-97353380D01*
X135310380Y-97353380D02*
X135310380Y-96353380D01*
X135215142Y-96496238D01*
X135119904Y-96591476D01*
X135024666Y-96639095D01*
X137428952Y-97353380D02*
X137095619Y-96877190D01*
X136857523Y-97353380D02*
X136857523Y-96353380D01*
X137238476Y-96353380D01*
X137333714Y-96401000D01*
X137381333Y-96448619D01*
X137428952Y-96543857D01*
X137428952Y-96686714D01*
X137381333Y-96781952D01*
X137333714Y-96829571D01*
X137238476Y-96877190D01*
X136857523Y-96877190D01*
X137762285Y-96353380D02*
X138381333Y-96353380D01*
X138048000Y-96734333D01*
X138190857Y-96734333D01*
X138286095Y-96781952D01*
X138333714Y-96829571D01*
X138381333Y-96924809D01*
X138381333Y-97162904D01*
X138333714Y-97258142D01*
X138286095Y-97305761D01*
X138190857Y-97353380D01*
X137905142Y-97353380D01*
X137809904Y-97305761D01*
X137762285Y-97258142D01*
X139000380Y-96353380D02*
X139095619Y-96353380D01*
X139190857Y-96401000D01*
X139238476Y-96448619D01*
X139286095Y-96543857D01*
X139333714Y-96734333D01*
X139333714Y-96972428D01*
X139286095Y-97162904D01*
X139238476Y-97258142D01*
X139190857Y-97305761D01*
X139095619Y-97353380D01*
X139000380Y-97353380D01*
X138905142Y-97305761D01*
X138857523Y-97258142D01*
X138809904Y-97162904D01*
X138762285Y-96972428D01*
X138762285Y-96734333D01*
X138809904Y-96543857D01*
X138857523Y-96448619D01*
X138905142Y-96401000D01*
X139000380Y-96353380D01*
X139714666Y-96448619D02*
X139762285Y-96401000D01*
X139857523Y-96353380D01*
X140095619Y-96353380D01*
X140190857Y-96401000D01*
X140238476Y-96448619D01*
X140286095Y-96543857D01*
X140286095Y-96639095D01*
X140238476Y-96781952D01*
X139667047Y-97353380D01*
X140286095Y-97353380D01*
X127325380Y-63349047D02*
X126849190Y-63682380D01*
X127325380Y-63920476D02*
X126325380Y-63920476D01*
X126325380Y-63539523D01*
X126373000Y-63444285D01*
X126420619Y-63396666D01*
X126515857Y-63349047D01*
X126658714Y-63349047D01*
X126753952Y-63396666D01*
X126801571Y-63444285D01*
X126849190Y-63539523D01*
X126849190Y-63920476D01*
X126325380Y-63015714D02*
X126325380Y-62396666D01*
X126706333Y-62730000D01*
X126706333Y-62587142D01*
X126753952Y-62491904D01*
X126801571Y-62444285D01*
X126896809Y-62396666D01*
X127134904Y-62396666D01*
X127230142Y-62444285D01*
X127277761Y-62491904D01*
X127325380Y-62587142D01*
X127325380Y-62872857D01*
X127277761Y-62968095D01*
X127230142Y-63015714D01*
X126325380Y-61777619D02*
X126325380Y-61682380D01*
X126373000Y-61587142D01*
X126420619Y-61539523D01*
X126515857Y-61491904D01*
X126706333Y-61444285D01*
X126944428Y-61444285D01*
X127134904Y-61491904D01*
X127230142Y-61539523D01*
X127277761Y-61587142D01*
X127325380Y-61682380D01*
X127325380Y-61777619D01*
X127277761Y-61872857D01*
X127230142Y-61920476D01*
X127134904Y-61968095D01*
X126944428Y-62015714D01*
X126706333Y-62015714D01*
X126515857Y-61968095D01*
X126420619Y-61920476D01*
X126373000Y-61872857D01*
X126325380Y-61777619D01*
X126325380Y-61110952D02*
X126325380Y-60444285D01*
X127325380Y-60872857D01*
X123769380Y-67286047D02*
X123293190Y-67619380D01*
X123769380Y-67857476D02*
X122769380Y-67857476D01*
X122769380Y-67476523D01*
X122817000Y-67381285D01*
X122864619Y-67333666D01*
X122959857Y-67286047D01*
X123102714Y-67286047D01*
X123197952Y-67333666D01*
X123245571Y-67381285D01*
X123293190Y-67476523D01*
X123293190Y-67857476D01*
X122769380Y-66952714D02*
X122769380Y-66333666D01*
X123150333Y-66667000D01*
X123150333Y-66524142D01*
X123197952Y-66428904D01*
X123245571Y-66381285D01*
X123340809Y-66333666D01*
X123578904Y-66333666D01*
X123674142Y-66381285D01*
X123721761Y-66428904D01*
X123769380Y-66524142D01*
X123769380Y-66809857D01*
X123721761Y-66905095D01*
X123674142Y-66952714D01*
X122769380Y-65714619D02*
X122769380Y-65619380D01*
X122817000Y-65524142D01*
X122864619Y-65476523D01*
X122959857Y-65428904D01*
X123150333Y-65381285D01*
X123388428Y-65381285D01*
X123578904Y-65428904D01*
X123674142Y-65476523D01*
X123721761Y-65524142D01*
X123769380Y-65619380D01*
X123769380Y-65714619D01*
X123721761Y-65809857D01*
X123674142Y-65857476D01*
X123578904Y-65905095D01*
X123388428Y-65952714D01*
X123150333Y-65952714D01*
X122959857Y-65905095D01*
X122864619Y-65857476D01*
X122817000Y-65809857D01*
X122769380Y-65714619D01*
X123197952Y-64809857D02*
X123150333Y-64905095D01*
X123102714Y-64952714D01*
X123007476Y-65000333D01*
X122959857Y-65000333D01*
X122864619Y-64952714D01*
X122817000Y-64905095D01*
X122769380Y-64809857D01*
X122769380Y-64619380D01*
X122817000Y-64524142D01*
X122864619Y-64476523D01*
X122959857Y-64428904D01*
X123007476Y-64428904D01*
X123102714Y-64476523D01*
X123150333Y-64524142D01*
X123197952Y-64619380D01*
X123197952Y-64809857D01*
X123245571Y-64905095D01*
X123293190Y-64952714D01*
X123388428Y-65000333D01*
X123578904Y-65000333D01*
X123674142Y-64952714D01*
X123721761Y-64905095D01*
X123769380Y-64809857D01*
X123769380Y-64619380D01*
X123721761Y-64524142D01*
X123674142Y-64476523D01*
X123578904Y-64428904D01*
X123388428Y-64428904D01*
X123293190Y-64476523D01*
X123245571Y-64524142D01*
X123197952Y-64619380D01*
X120229380Y-91757285D02*
X121038904Y-91757285D01*
X121134142Y-91709666D01*
X121181761Y-91662047D01*
X121229380Y-91566809D01*
X121229380Y-91376333D01*
X121181761Y-91281095D01*
X121134142Y-91233476D01*
X121038904Y-91185857D01*
X120229380Y-91185857D01*
X120324619Y-90757285D02*
X120277000Y-90709666D01*
X120229380Y-90614428D01*
X120229380Y-90376333D01*
X120277000Y-90281095D01*
X120324619Y-90233476D01*
X120419857Y-90185857D01*
X120515095Y-90185857D01*
X120657952Y-90233476D01*
X121229380Y-90804904D01*
X121229380Y-90185857D01*
X120229380Y-89566809D02*
X120229380Y-89471571D01*
X120277000Y-89376333D01*
X120324619Y-89328714D01*
X120419857Y-89281095D01*
X120610333Y-89233476D01*
X120848428Y-89233476D01*
X121038904Y-89281095D01*
X121134142Y-89328714D01*
X121181761Y-89376333D01*
X121229380Y-89471571D01*
X121229380Y-89566809D01*
X121181761Y-89662047D01*
X121134142Y-89709666D01*
X121038904Y-89757285D01*
X120848428Y-89804904D01*
X120610333Y-89804904D01*
X120419857Y-89757285D01*
X120324619Y-89709666D01*
X120277000Y-89662047D01*
X120229380Y-89566809D01*
X121229380Y-88281095D02*
X121229380Y-88852523D01*
X121229380Y-88566809D02*
X120229380Y-88566809D01*
X120372238Y-88662047D01*
X120467476Y-88757285D01*
X120515095Y-88852523D01*
X130389380Y-91757285D02*
X131198904Y-91757285D01*
X131294142Y-91709666D01*
X131341761Y-91662047D01*
X131389380Y-91566809D01*
X131389380Y-91376333D01*
X131341761Y-91281095D01*
X131294142Y-91233476D01*
X131198904Y-91185857D01*
X130389380Y-91185857D01*
X130389380Y-90804904D02*
X130389380Y-90185857D01*
X130770333Y-90519190D01*
X130770333Y-90376333D01*
X130817952Y-90281095D01*
X130865571Y-90233476D01*
X130960809Y-90185857D01*
X131198904Y-90185857D01*
X131294142Y-90233476D01*
X131341761Y-90281095D01*
X131389380Y-90376333D01*
X131389380Y-90662047D01*
X131341761Y-90757285D01*
X131294142Y-90804904D01*
X130389380Y-89566809D02*
X130389380Y-89471571D01*
X130437000Y-89376333D01*
X130484619Y-89328714D01*
X130579857Y-89281095D01*
X130770333Y-89233476D01*
X131008428Y-89233476D01*
X131198904Y-89281095D01*
X131294142Y-89328714D01*
X131341761Y-89376333D01*
X131389380Y-89471571D01*
X131389380Y-89566809D01*
X131341761Y-89662047D01*
X131294142Y-89709666D01*
X131198904Y-89757285D01*
X131008428Y-89804904D01*
X130770333Y-89804904D01*
X130579857Y-89757285D01*
X130484619Y-89709666D01*
X130437000Y-89662047D01*
X130389380Y-89566809D01*
X131389380Y-88281095D02*
X131389380Y-88852523D01*
X131389380Y-88566809D02*
X130389380Y-88566809D01*
X130532238Y-88662047D01*
X130627476Y-88757285D01*
X130675095Y-88852523D01*
X130833952Y-76144380D02*
X130500619Y-75668190D01*
X130262523Y-76144380D02*
X130262523Y-75144380D01*
X130643476Y-75144380D01*
X130738714Y-75192000D01*
X130786333Y-75239619D01*
X130833952Y-75334857D01*
X130833952Y-75477714D01*
X130786333Y-75572952D01*
X130738714Y-75620571D01*
X130643476Y-75668190D01*
X130262523Y-75668190D01*
X131167285Y-75144380D02*
X131786333Y-75144380D01*
X131453000Y-75525333D01*
X131595857Y-75525333D01*
X131691095Y-75572952D01*
X131738714Y-75620571D01*
X131786333Y-75715809D01*
X131786333Y-75953904D01*
X131738714Y-76049142D01*
X131691095Y-76096761D01*
X131595857Y-76144380D01*
X131310142Y-76144380D01*
X131214904Y-76096761D01*
X131167285Y-76049142D01*
X132405380Y-75144380D02*
X132500619Y-75144380D01*
X132595857Y-75192000D01*
X132643476Y-75239619D01*
X132691095Y-75334857D01*
X132738714Y-75525333D01*
X132738714Y-75763428D01*
X132691095Y-75953904D01*
X132643476Y-76049142D01*
X132595857Y-76096761D01*
X132500619Y-76144380D01*
X132405380Y-76144380D01*
X132310142Y-76096761D01*
X132262523Y-76049142D01*
X132214904Y-75953904D01*
X132167285Y-75763428D01*
X132167285Y-75525333D01*
X132214904Y-75334857D01*
X132262523Y-75239619D01*
X132310142Y-75192000D01*
X132405380Y-75144380D01*
X133595857Y-75477714D02*
X133595857Y-76144380D01*
X133357761Y-75096761D02*
X133119666Y-75811047D01*
X133738714Y-75811047D01*
X130960952Y-82367380D02*
X130627619Y-81891190D01*
X130389523Y-82367380D02*
X130389523Y-81367380D01*
X130770476Y-81367380D01*
X130865714Y-81415000D01*
X130913333Y-81462619D01*
X130960952Y-81557857D01*
X130960952Y-81700714D01*
X130913333Y-81795952D01*
X130865714Y-81843571D01*
X130770476Y-81891190D01*
X130389523Y-81891190D01*
X131294285Y-81367380D02*
X131913333Y-81367380D01*
X131580000Y-81748333D01*
X131722857Y-81748333D01*
X131818095Y-81795952D01*
X131865714Y-81843571D01*
X131913333Y-81938809D01*
X131913333Y-82176904D01*
X131865714Y-82272142D01*
X131818095Y-82319761D01*
X131722857Y-82367380D01*
X131437142Y-82367380D01*
X131341904Y-82319761D01*
X131294285Y-82272142D01*
X132532380Y-81367380D02*
X132627619Y-81367380D01*
X132722857Y-81415000D01*
X132770476Y-81462619D01*
X132818095Y-81557857D01*
X132865714Y-81748333D01*
X132865714Y-81986428D01*
X132818095Y-82176904D01*
X132770476Y-82272142D01*
X132722857Y-82319761D01*
X132627619Y-82367380D01*
X132532380Y-82367380D01*
X132437142Y-82319761D01*
X132389523Y-82272142D01*
X132341904Y-82176904D01*
X132294285Y-81986428D01*
X132294285Y-81748333D01*
X132341904Y-81557857D01*
X132389523Y-81462619D01*
X132437142Y-81415000D01*
X132532380Y-81367380D01*
X133722857Y-81367380D02*
X133532380Y-81367380D01*
X133437142Y-81415000D01*
X133389523Y-81462619D01*
X133294285Y-81605476D01*
X133246666Y-81795952D01*
X133246666Y-82176904D01*
X133294285Y-82272142D01*
X133341904Y-82319761D01*
X133437142Y-82367380D01*
X133627619Y-82367380D01*
X133722857Y-82319761D01*
X133770476Y-82272142D01*
X133818095Y-82176904D01*
X133818095Y-81938809D01*
X133770476Y-81843571D01*
X133722857Y-81795952D01*
X133627619Y-81748333D01*
X133437142Y-81748333D01*
X133341904Y-81795952D01*
X133294285Y-81843571D01*
X133246666Y-81938809D01*
X119451380Y-96623047D02*
X118975190Y-96956380D01*
X119451380Y-97194476D02*
X118451380Y-97194476D01*
X118451380Y-96813523D01*
X118499000Y-96718285D01*
X118546619Y-96670666D01*
X118641857Y-96623047D01*
X118784714Y-96623047D01*
X118879952Y-96670666D01*
X118927571Y-96718285D01*
X118975190Y-96813523D01*
X118975190Y-97194476D01*
X118546619Y-96242095D02*
X118499000Y-96194476D01*
X118451380Y-96099238D01*
X118451380Y-95861142D01*
X118499000Y-95765904D01*
X118546619Y-95718285D01*
X118641857Y-95670666D01*
X118737095Y-95670666D01*
X118879952Y-95718285D01*
X119451380Y-96289714D01*
X119451380Y-95670666D01*
X118451380Y-95051619D02*
X118451380Y-94956380D01*
X118499000Y-94861142D01*
X118546619Y-94813523D01*
X118641857Y-94765904D01*
X118832333Y-94718285D01*
X119070428Y-94718285D01*
X119260904Y-94765904D01*
X119356142Y-94813523D01*
X119403761Y-94861142D01*
X119451380Y-94956380D01*
X119451380Y-95051619D01*
X119403761Y-95146857D01*
X119356142Y-95194476D01*
X119260904Y-95242095D01*
X119070428Y-95289714D01*
X118832333Y-95289714D01*
X118641857Y-95242095D01*
X118546619Y-95194476D01*
X118499000Y-95146857D01*
X118451380Y-95051619D01*
X119451380Y-93765904D02*
X119451380Y-94337333D01*
X119451380Y-94051619D02*
X118451380Y-94051619D01*
X118594238Y-94146857D01*
X118689476Y-94242095D01*
X118737095Y-94337333D01*
X141501952Y-93797380D02*
X141168619Y-93321190D01*
X140930523Y-93797380D02*
X140930523Y-92797380D01*
X141311476Y-92797380D01*
X141406714Y-92845000D01*
X141454333Y-92892619D01*
X141501952Y-92987857D01*
X141501952Y-93130714D01*
X141454333Y-93225952D01*
X141406714Y-93273571D01*
X141311476Y-93321190D01*
X140930523Y-93321190D01*
X141835285Y-92797380D02*
X142454333Y-92797380D01*
X142121000Y-93178333D01*
X142263857Y-93178333D01*
X142359095Y-93225952D01*
X142406714Y-93273571D01*
X142454333Y-93368809D01*
X142454333Y-93606904D01*
X142406714Y-93702142D01*
X142359095Y-93749761D01*
X142263857Y-93797380D01*
X141978142Y-93797380D01*
X141882904Y-93749761D01*
X141835285Y-93702142D01*
X143073380Y-92797380D02*
X143168619Y-92797380D01*
X143263857Y-92845000D01*
X143311476Y-92892619D01*
X143359095Y-92987857D01*
X143406714Y-93178333D01*
X143406714Y-93416428D01*
X143359095Y-93606904D01*
X143311476Y-93702142D01*
X143263857Y-93749761D01*
X143168619Y-93797380D01*
X143073380Y-93797380D01*
X142978142Y-93749761D01*
X142930523Y-93702142D01*
X142882904Y-93606904D01*
X142835285Y-93416428D01*
X142835285Y-93178333D01*
X142882904Y-92987857D01*
X142930523Y-92892619D01*
X142978142Y-92845000D01*
X143073380Y-92797380D01*
X143740047Y-92797380D02*
X144359095Y-92797380D01*
X144025761Y-93178333D01*
X144168619Y-93178333D01*
X144263857Y-93225952D01*
X144311476Y-93273571D01*
X144359095Y-93368809D01*
X144359095Y-93606904D01*
X144311476Y-93702142D01*
X144263857Y-93749761D01*
X144168619Y-93797380D01*
X143882904Y-93797380D01*
X143787666Y-93749761D01*
X143740047Y-93702142D01*
M02*
