M48
; DRILL file {KiCad 5.1.5} date Thu 23 Apr 2020 09:44:06 PM CEST
; FORMAT={2:4/ absolute / inch / suppress trailing zeros}
; #@! TF.CreationDate,2020-04-23T21:44:06+02:00
; #@! TF.GenerationSoftware,Kicad,Pcbnew,5.1.5
FMAT,2
INCH,LZ
T1C0.0130
T2C0.0300
T3C0.0433
T4C0.0512
T5C0.0591
T6C0.0945
T7C0.1181
%
G90
G05
T1
X0482Y-0345
X048574Y-036724
X04925Y-0345
X04925Y-0385
X0498Y-03635
X050146Y-026404
X05025Y-0385
X05095Y-0362
X05115Y-0305
X052576Y-036726
X05275Y-0345
X05345Y-0296
X05345Y-0311
X05375Y-0306
X0539Y-03635
X053904Y-027246
X05435Y-0368
X0556Y-0294
X05645Y-0351
X05675Y-038
X05685Y-0306
T2
X044Y-03345
X044Y-03445
X044Y-03545
X044Y-03645
X044Y-03745
X044Y-03845
X044Y-03945
X045Y-03345
X045Y-03945
X046Y-03345
X046Y-03945
X047Y-03345
X047Y-03945
X048Y-03345
X048Y-03945
X049Y-03345
X049Y-03945
X05Y-03345
X05Y-03945
X051Y-03345
X051Y-03945
X052Y-03345
X052Y-03945
X053Y-03345
X053Y-03945
X054Y-03345
X054Y-03945
X055Y-03345
X055Y-03945
X056Y-03345
X056Y-03945
X057Y-03345
X057Y-03945
T3
X0495Y-02275
X0505Y-02275
X0515Y-02275
T4
X0455Y-028
X0455Y-03
T5
X049488Y-029967
X0525Y-02475
T6
X0455Y-02125
X0555Y-02125
T7
X05625Y-0415
X04475Y-0415
X0505Y-01925
T0
M30
